<svg width="84" height="57" viewBox="0 0 84 57" fill="none" xmlns="http://www.w3.org/2000/svg">
<path d="M49.9629 3.30531H51.0729V2.19531H49.9629V3.30531Z" fill="white"/>
<path d="M51.6406 3.30531H52.7506V2.19531H51.6406V3.30531Z" fill="white"/>
<path d="M69.457 14.4518H70.567V13.3418H69.457V14.4518Z" fill="white"/>
<path d="M67.2266 14.4518H68.3365V13.3418H67.2266V14.4518Z" fill="white"/>
<path d="M80.4374 12.297C80.6618 12.1958 80.8538 12.0345 80.9924 11.831C81.1421 11.6061 81.2442 11.3529 81.2924 11.087C81.3555 10.7616 81.3853 10.4305 81.3813 10.099V3.58203H80.4374V10.099C80.4393 10.3218 80.4246 10.5444 80.3934 10.765C80.3724 10.9205 80.3237 11.0709 80.2494 11.209C80.1866 11.3147 80.0941 11.3995 79.9834 11.453C79.8416 11.5066 79.6909 11.5331 79.5394 11.531C79.4652 11.5329 79.391 11.5292 79.3174 11.52C79.2311 11.5082 79.1459 11.4898 79.0624 11.465L78.8184 12.365C79.0681 12.4324 79.3257 12.466 79.5844 12.465C79.8785 12.4775 80.1715 12.4203 80.4394 12.298" fill="white"/>
<path d="M77.2193 1.92861H75.9313V1.71761C75.9241 1.61868 75.9517 1.52033 76.0093 1.43961C76.0485 1.40561 76.0948 1.38092 76.1449 1.36741C76.1949 1.3539 76.2474 1.35192 76.2983 1.3616H76.9423V0.717608H76.2783C75.9748 0.696546 75.6754 0.796496 75.4453 0.995607C75.234 1.24568 75.1301 1.56921 75.1563 1.8956V2.66161H77.2103V1.92861H77.2193Z" fill="white"/>
<path d="M74.5991 12.4663C74.3184 12.4666 74.0387 12.433 73.7661 12.3663C73.4413 12.2882 73.1222 12.188 72.8111 12.0663L73.1001 11.1663C73.3528 11.2851 73.6168 11.3783 73.8881 11.4443C74.1428 11.5032 74.4038 11.5294 74.6651 11.5223C75.0837 11.5436 75.4986 11.4349 75.8531 11.2113C76.0006 11.0827 76.1157 10.9212 76.189 10.7398C76.2623 10.5584 76.2918 10.3622 76.2751 10.1673V9.24629L75.9641 9.90129H75.7091C75.2077 9.90308 74.708 9.8433 74.2211 9.72329C73.7803 9.61433 73.3629 9.42629 72.9891 9.16829C72.6334 8.91907 72.3425 8.58814 72.1411 8.20329C71.942 7.78432 71.836 7.32723 71.8303 6.86341C71.8246 6.39958 71.9194 5.94002 72.1081 5.51629C72.2966 5.12451 72.5699 4.77952 72.9081 4.50629C73.27 4.21006 73.6841 3.98417 74.1291 3.84029C74.641 3.67032 75.1778 3.58783 75.7171 3.59629H77.2171V10.0913C77.2339 10.4085 77.1876 10.726 77.0809 11.0252C76.9741 11.3244 76.809 11.5994 76.5951 11.8343C76.3208 12.0666 76.0032 12.2421 75.6605 12.3506C75.3179 12.4591 74.9571 12.4984 74.5991 12.4663ZM75.2991 4.52829C74.9847 4.52883 74.6728 4.58538 74.3781 4.69529C73.7802 4.89265 73.2825 5.31472 72.9901 5.87229C72.8452 6.15775 72.7692 6.47317 72.7681 6.79329C72.7582 7.10374 72.8214 7.41217 72.9525 7.69373C73.0837 7.97529 73.2791 8.22211 73.5231 8.41429C73.7658 8.60218 74.0401 8.74509 74.3331 8.83629C74.6533 8.93373 74.9864 8.98228 75.3211 8.98029H76.2761V4.79529L76.8091 4.52929L75.2991 4.52829Z" fill="white"/>
<path d="M70.3026 12.3647H53.2026C52.9086 12.375 52.6161 12.3179 52.3476 12.1977C52.1232 12.0965 51.9312 11.9352 51.7926 11.7317C51.7756 11.7071 51.7608 11.681 51.7486 11.6537L51.7376 11.6317V12.3317H49.7836C49.199 12.3405 48.6187 12.2297 48.0784 12.0061C47.5381 11.7826 47.0492 11.451 46.6416 11.0317C45.8622 10.2073 45.4322 9.11319 45.4416 7.97871V7.95671C45.4308 6.81681 45.8649 5.71762 46.6516 4.89271C47.0586 4.46901 47.5488 4.13395 48.0914 3.90852C48.6339 3.6831 49.2172 3.57218 49.8046 3.58272H52.3356V10.0107C52.3337 10.2335 52.3484 10.4561 52.3796 10.6767C52.4004 10.8322 52.4492 10.9826 52.5236 11.1207C52.5864 11.2264 52.679 11.3112 52.7896 11.3647C52.9314 11.4183 53.082 11.4448 53.2336 11.4427H69.3646V3.58272H70.3086L70.2976 12.3647H70.3026ZM49.7866 4.47172C48.9044 4.47012 48.0575 4.81837 47.4316 5.44015C46.8057 6.06192 46.4519 6.90648 46.4476 7.78871V7.95571C46.4207 8.8552 46.7514 9.7287 47.3674 10.3848C47.9833 11.0408 48.8342 11.4259 49.7336 11.4557H51.6336C51.5675 11.3066 51.5191 11.1502 51.4896 10.9897C51.4265 10.6643 51.3967 10.3332 51.4006 10.0017V4.74872L51.9776 4.45972L49.7866 4.47172Z" fill="white"/>
<path d="M40.7603 10.0223L41.1714 11.0993L35.2103 3.57227H34.2773V12.3203H35.2433V5.72626L34.6884 4.44926L40.9273 12.3093H41.7154V3.57227H40.7494V10.0223H40.7603Z" fill="white"/>
<path d="M54.1144 26.2867L59.5214 21.1577V17.6387H45.0784V21.6467H52.4784L55.2314 19.8927L48.3704 26.7427L49.1034 29.7177H51.0574C53.6884 29.7177 55.2424 30.6837 55.2424 32.4177V32.4737C55.2424 34.0497 53.9874 35.0497 52.2224 35.0497C51.2253 35.0463 50.2421 34.8156 49.3477 34.3751C48.4532 33.9346 47.6709 33.296 47.0604 32.5077L43.8184 35.5717C44.8386 36.776 46.1194 37.7326 47.5637 38.3693C49.008 39.0059 50.5781 39.3059 52.1554 39.2467C56.9184 39.2467 59.8554 36.3047 59.8554 32.2967V32.2387C59.8554 28.2867 57.0134 26.7767 54.1044 26.2877" fill="white"/>
<path d="M28.1481 12.4645C27.5444 12.4755 26.9449 12.362 26.3871 12.1309C25.8293 11.8998 25.3251 11.5562 24.9061 11.1215C24.1064 10.2673 23.6654 9.13854 23.6741 7.96847V7.94647C23.6621 6.77045 24.1078 5.63585 24.9171 4.78247C25.3383 4.34693 25.8442 4.00214 26.4036 3.76929C26.9631 3.53645 27.5642 3.42047 28.1701 3.42847C28.7738 3.4174 29.3732 3.53095 29.9311 3.76203C30.4889 3.99311 30.9931 4.33675 31.4121 4.77147C32.2135 5.62457 32.6548 6.75403 32.6441 7.92447V7.94647C32.6561 9.12249 32.2103 10.2571 31.4011 11.1105C30.9811 11.5477 30.4755 11.8937 29.9157 12.1266C29.356 12.3596 28.7543 12.4746 28.1481 12.4645ZM28.1481 4.33747C27.2356 4.33534 26.3596 4.6953 25.7122 5.33835C25.0648 5.9814 24.699 6.85501 24.6951 7.76747V7.94547C24.6681 8.87461 25.0111 9.77645 25.6486 10.4529C26.2861 11.1294 27.166 11.5252 28.0951 11.5535H28.1731C29.085 11.5538 29.9599 11.1932 30.6069 10.5506C31.2539 9.9079 31.6203 9.03536 31.6261 8.12347V7.94547C31.653 7.01633 31.3101 6.11449 30.6726 5.438C30.0351 4.76152 29.1552 4.3657 28.2261 4.33747H28.1481Z" fill="white"/>
<path d="M72.4106 39.2433C69.3824 39.2899 66.4581 38.14 64.2726 36.0433C63.2486 35.0355 62.4377 33.8322 61.888 32.5048C61.3383 31.1774 61.061 29.753 61.0726 28.3163V28.2493C61.0632 26.8079 61.3433 25.3793 61.8965 24.0482C62.4496 22.7171 63.2644 21.5106 64.2926 20.5003C66.5014 18.4303 69.4134 17.2757 72.4406 17.2696C75.4678 17.2634 78.3844 18.4063 80.6016 20.4673C81.6246 21.4736 82.435 22.6751 82.9847 24.0006C83.5344 25.3261 83.8122 26.7484 83.8016 28.1833V28.2393C83.811 29.6808 83.5309 31.1094 82.9778 32.4405C82.4246 33.7716 81.6098 34.9781 80.5816 35.9883C79.5009 37.042 78.2228 37.8719 76.8206 38.4305C75.4185 38.989 73.9198 39.2653 72.4106 39.2433ZM72.4106 21.5913C71.5493 21.5855 70.6956 21.7541 69.9013 22.0871C69.1069 22.4202 68.3882 22.9106 67.7885 23.529C67.1889 24.1473 66.7207 24.8807 66.4122 25.685C66.1037 26.4892 65.9613 27.3476 65.9936 28.2083V28.2633C65.9707 29.1179 66.1167 29.9686 66.423 30.7667C66.7294 31.5648 67.1902 32.2946 67.779 32.9144C68.3678 33.5341 69.0731 34.0316 69.8545 34.3784C70.6359 34.7252 71.478 34.9145 72.3326 34.9353H72.4656C73.327 34.9412 74.1806 34.7725 74.975 34.4395C75.7693 34.1065 76.488 33.616 77.0877 32.9977C77.6874 32.3793 78.1555 31.6459 78.464 30.8417C78.7725 30.0375 78.9149 29.1791 78.8826 28.3183V28.2513C78.9055 27.3968 78.7596 26.5461 78.4532 25.748C78.1468 24.9499 77.686 24.2201 77.0972 23.6003C76.5084 22.9805 75.8031 22.483 75.0217 22.1362C74.2403 21.7895 73.3982 21.6002 72.5436 21.5793C72.4999 21.5885 72.4552 21.5922 72.4106 21.5903V21.5913Z" fill="white"/>
<path d="M20.9648 12.3203H21.9648V3.57227H20.9648V12.3203Z" fill="white"/>
<path d="M5.00537 36.4449L5.91537 35.7449L10.5894 32.1589C14.3754 29.2499 16.2074 27.4849 16.2074 23.9439V23.8879C16.2074 19.9139 13.2764 17.3379 8.84737 17.3379C5.02837 17.3379 2.98537 18.8809 0.876373 21.7379L4.17638 24.3799C5.76438 22.4369 6.89637 21.5269 8.55037 21.5269C8.92777 21.4889 9.30891 21.5335 9.66741 21.6574C10.0259 21.7813 10.3532 21.9816 10.6266 22.2445C10.9001 22.5074 11.1131 22.8265 11.251 23.1799C11.3889 23.5332 11.4484 23.9123 11.4254 24.2909C11.4254 26.0449 10.3814 27.1999 7.72538 29.3909L0.609375 35.1909V38.8909H16.4184V34.8609H8.25837L5.00537 36.4449Z" fill="white"/>
<path d="M5.05681 12.3733L8.84282 3.57327H7.77681L4.77681 10.7453L4.87682 11.7113L4.63281 11.1113L2.03281 4.87226L1.48882 3.57227H0.382812L4.16882 12.3723L5.05681 12.3733Z" fill="white"/>
<path d="M10.1973 12.3203H11.1973V3.57227H10.1973V12.3203Z" fill="white"/>
<path d="M16.457 7.46714C14.514 7.05614 14.07 6.59014 14.07 5.76714V5.74514C14.07 4.95714 14.803 4.33514 15.946 4.33514C16.879 4.33562 17.7808 4.67055 18.488 5.27914L19.065 4.52414C18.1979 3.79852 17.0952 3.41541 15.965 3.44714C14.289 3.44714 13.065 4.45714 13.065 5.83414V5.85614C13.065 7.28814 13.998 7.94314 16.018 8.37614C17.872 8.76514 18.305 9.23114 18.305 10.0411V10.0631C18.305 10.9291 17.528 11.5511 16.34 11.5511C15.78 11.5569 15.2244 11.4509 14.7059 11.2394C14.1873 11.0279 13.7162 10.715 13.32 10.3191L12.709 11.0411C13.6854 11.9516 14.974 12.4527 16.309 12.4411C18.063 12.4411 19.318 11.4641 19.318 9.96513V9.94314C19.318 8.61114 18.418 7.88914 16.454 7.46714" fill="white"/>
<path d="M4.73438 50.0225H5.28937V49.4785H4.73438V50.0225Z" fill="white"/>
<path d="M41.8366 48.8487H35.7536C35.4685 48.8509 35.1844 48.8135 34.9096 48.7377C34.6593 48.6718 34.4225 48.5628 34.2096 48.4157C34.0078 48.2692 33.8411 48.0796 33.7216 47.8607C33.5973 47.6092 33.5362 47.3312 33.5436 47.0507C33.5446 46.8019 33.5974 46.556 33.6986 46.3287C33.8007 46.1051 33.9525 45.9077 34.1426 45.7517C34.3502 45.5831 34.5877 45.4549 34.8426 45.3737C35.1366 45.28 35.444 45.235 35.7526 45.2407H36.5966V48.3267H38.7286V45.2407H39.2616V48.3267H41.2936V45.2407H41.8266L41.8376 48.8487H41.8366ZM35.5306 45.7627C35.3493 45.7642 35.1695 45.7943 34.9976 45.8517C34.828 45.9076 34.6701 45.9941 34.5316 46.1067C34.3972 46.223 34.2845 46.3622 34.1986 46.5177C34.1152 46.6789 34.0733 46.8583 34.0766 47.0397C34.0736 47.2234 34.1115 47.4055 34.1876 47.5727C34.262 47.7264 34.3679 47.8627 34.4986 47.9727C34.6371 48.0854 34.795 48.1718 34.9646 48.2277C35.148 48.2843 35.3386 48.3143 35.5306 48.3167H36.0636V45.7637L35.5306 45.7627Z" fill="white"/>
<path d="M30.3574 48.8456H30.8904V44.0605H30.3574V48.8456Z" fill="white"/>
<path d="M36.0527 44.6162H36.6077V44.0723H36.0527V44.6162Z" fill="white"/>
<path d="M41.293 50.0225H41.848V49.4785H41.293V50.0225Z" fill="white"/>
<path d="M5.67969 50.0225H6.23469V49.4785H5.67969V50.0225Z" fill="white"/>
<path d="M12.362 50.3112C12.2015 50.31 12.0416 50.2916 11.885 50.2563C11.7003 50.2123 11.5186 50.1566 11.341 50.0893L11.508 49.5782C11.6536 49.6464 11.8062 49.6984 11.963 49.7332C12.1089 49.7644 12.2579 49.7792 12.407 49.7773C12.646 49.7924 12.8834 49.73 13.084 49.5992C13.1706 49.5267 13.238 49.4341 13.2806 49.3296C13.3231 49.225 13.3394 49.1116 13.328 48.9993V48.8442H13.006C12.7181 48.8445 12.4311 48.8109 12.151 48.7443C11.8965 48.681 11.6555 48.5719 11.44 48.4222C11.2382 48.2758 11.0715 48.0862 10.952 47.8672C10.8278 47.6157 10.7667 47.3377 10.774 47.0573C10.7738 46.8035 10.8308 46.5529 10.941 46.3242C11.0473 46.1001 11.2028 45.9028 11.396 45.7473C11.6059 45.5793 11.8426 45.4478 12.096 45.3582C12.3893 45.2602 12.6968 45.2115 13.006 45.2143H13.872V48.3003H15.726L14.784 46.0723C14.928 45.9503 15.073 45.8283 15.228 45.7173C15.3842 45.6038 15.5518 45.507 15.728 45.4283C15.8956 45.3488 16.0704 45.2856 16.25 45.2393C16.5923 45.1502 16.9517 45.1502 17.294 45.2393C17.4736 45.2856 17.6484 45.3488 17.816 45.4283C17.9874 45.5161 18.1543 45.6126 18.316 45.7173C18.475 45.8259 18.627 45.9445 18.771 46.0723L17.827 48.3043H20.647V45.5512H21.18V48.3043H22.224C22.3412 48.3074 22.4579 48.2884 22.568 48.2483C22.673 48.2146 22.7709 48.162 22.857 48.0933C22.943 48.0161 23.0112 47.9213 23.057 47.8152C23.1106 47.6811 23.1371 47.5377 23.135 47.3932V45.5503H23.668V47.4373C23.6699 47.5644 23.7003 47.6895 23.757 47.8033C23.8144 47.9145 23.8894 48.0158 23.979 48.1032C24.0763 48.1905 24.1893 48.2584 24.312 48.3033C24.4512 48.3525 24.5974 48.3788 24.745 48.3813C24.8835 48.3922 25.0227 48.3731 25.153 48.3251C25.2834 48.2771 25.4018 48.2014 25.5 48.1032C25.5873 48.0033 25.6538 47.8871 25.6957 47.7613C25.7376 47.6354 25.754 47.5025 25.744 47.3702V45.5703H26.277V47.2913C26.279 47.459 26.2642 47.6265 26.233 47.7913C26.3298 47.9643 26.477 48.1038 26.655 48.1913C26.8899 48.2909 27.1442 48.3363 27.399 48.3242H28.276V44.0723H28.809V48.8572H27.249V48.8463C27.1184 48.8426 26.9882 48.8278 26.86 48.8022C26.7287 48.7708 26.6019 48.7224 26.483 48.6583C26.3908 48.6014 26.3053 48.5343 26.228 48.4583C26.1628 48.3919 26.1067 48.3173 26.061 48.2363C25.9465 48.4583 25.7634 48.6375 25.539 48.7473C25.2825 48.8683 25.0005 48.9256 24.717 48.9142C24.4397 48.923 24.1645 48.8618 23.917 48.7363C23.6969 48.6216 23.5126 48.4486 23.384 48.2363C23.261 48.4227 23.0933 48.5754 22.896 48.6803C22.6795 48.7912 22.4393 48.8481 22.196 48.8463H13.861V48.9463C13.8798 49.3135 13.7521 49.6731 13.506 49.9463C13.3516 50.0839 13.17 50.1875 12.9729 50.2504C12.7758 50.3133 12.5677 50.334 12.362 50.3112ZM16.762 45.7703C16.531 45.771 16.3018 45.8123 16.085 45.8922C15.8549 45.9831 15.6411 46.1108 15.452 46.2703L16.296 48.3133H17.251L18.095 46.2703C17.9152 46.1208 17.7126 46.0009 17.495 45.9153C17.2615 45.8183 17.0108 45.7697 16.758 45.7722L16.762 45.7703ZM12.788 45.7703C12.6032 45.7718 12.4197 45.8018 12.244 45.8593C12.0731 45.9172 11.9149 46.0075 11.778 46.1252C11.6437 46.2415 11.5309 46.3807 11.445 46.5363C11.3665 46.7007 11.3248 46.8803 11.3229 47.0625C11.321 47.2448 11.3589 47.4252 11.434 47.5912C11.5058 47.7435 11.6123 47.8767 11.745 47.9803C11.8855 48.0873 12.0431 48.1697 12.211 48.2242C12.3938 48.2827 12.5853 48.3091 12.777 48.3022H13.321V45.7722L12.788 45.7703Z" fill="white"/>
<path d="M2.90234 44.6162H3.45734V44.0723H2.90234V44.6162Z" fill="white"/>
<path d="M57.2012 44.6162H57.7562V44.0723H57.2012V44.6162Z" fill="white"/>
<path d="M52.4492 48.8456H52.9822V44.0605H52.4492V48.8456Z" fill="white"/>
<path d="M35.1094 44.6162H35.6644V44.0723H35.1094V44.6162Z" fill="white"/>
<path d="M9.92995 46.7455C9.93384 46.5459 9.90374 46.3471 9.84095 46.1575C9.79183 45.9851 9.7047 45.8259 9.58595 45.6915C9.4494 45.5457 9.28785 45.4255 9.10895 45.3365C8.90414 45.2559 8.68495 45.2181 8.46495 45.2255H8.06495V45.7585H8.53095C8.65683 45.7608 8.7811 45.7873 8.89695 45.8365C9.00897 45.8875 9.10783 45.9634 9.18595 46.0585C9.26549 46.1458 9.31916 46.2535 9.34095 46.3695C9.37205 46.5005 9.38682 46.6349 9.38495 46.7695V48.3125H6.87695V48.8455H9.92995V46.7455Z" fill="white"/>
<path d="M80.8496 48.8456H81.3826V44.0605H80.8496V48.8456Z" fill="white"/>
<path d="M58.1465 44.6162H58.7015V44.0723H58.1465V44.6162Z" fill="white"/>
<path d="M75.1094 49.4571C74.8414 49.4574 74.5765 49.4005 74.3324 49.2901C74.0991 49.1823 73.8881 49.0317 73.7104 48.8461H71.3464C71.1656 49.0381 70.9461 49.1894 70.7023 49.2901C70.451 49.4022 70.1774 49.4552 69.9024 49.4451C69.6344 49.4454 69.3695 49.3884 69.1254 49.2781C68.8921 49.1703 68.6811 49.0197 68.5034 48.8341H57.8464C57.5613 48.8362 57.2772 48.7989 57.0024 48.7231C56.7521 48.6571 56.5153 48.5482 56.3024 48.4011C56.1002 48.2546 55.9332 48.0651 55.8134 47.8461C55.6891 47.5945 55.628 47.3165 55.6354 47.0361C55.6377 46.7877 55.6904 46.5424 55.7904 46.3151C55.8924 46.0914 56.0443 45.894 56.2344 45.7381C56.442 45.5694 56.6794 45.4412 56.9344 45.3601C57.2284 45.2664 57.5358 45.2214 57.8443 45.2271H58.6884V48.3131H63.6514V47.5031C63.6532 47.3721 63.6384 47.2414 63.6073 47.1141C63.5831 46.9989 63.5298 46.8918 63.4523 46.8031C63.3696 46.7109 63.267 46.6388 63.1524 46.5921C63.0106 46.5384 62.8599 46.512 62.7084 46.5141H59.9884C59.9204 46.4443 59.8676 46.3612 59.8334 46.2701C59.7935 46.1734 59.7637 46.0728 59.7444 45.9701L60.7764 44.0601H61.3644L60.3544 45.9811H62.7304C62.9575 45.9736 63.1839 46.0113 63.3963 46.0921C63.5754 46.1706 63.7346 46.2881 63.8624 46.4361C63.983 46.569 64.0704 46.7288 64.1174 46.9021C64.1712 47.0934 64.1974 47.2914 64.1954 47.4901V48.3111H65.9054V44.0591H66.4384V48.3111H68.1484C68.1011 48.1876 68.0604 48.0618 68.0264 47.9341C67.9947 47.7994 67.9799 47.6614 67.9823 47.5231C67.9798 47.2691 68.0277 47.0171 68.123 46.7816C68.2184 46.5462 68.3595 46.332 68.5381 46.1514C68.7167 45.9707 68.9293 45.8272 69.1636 45.7292C69.3979 45.6311 69.6494 45.5805 69.9034 45.5801C70.1693 45.5773 70.4332 45.6262 70.6804 45.7241C70.9122 45.8199 71.1233 45.9594 71.3024 46.1351C71.4789 46.3092 71.6186 46.517 71.7134 46.7461C71.8136 46.9891 71.8662 47.2492 71.8684 47.5121C71.8687 47.7835 71.8118 48.0521 71.7014 48.3001H73.3664C73.319 48.1767 73.2783 48.0508 73.2444 47.9231C73.2127 47.7884 73.1979 47.6504 73.2004 47.5121C73.1977 47.258 73.2454 47.006 73.3408 46.7705C73.4361 46.535 73.5772 46.3207 73.7558 46.1401C73.9344 45.9594 74.147 45.8159 74.3814 45.7179C74.6158 45.6199 74.8673 45.5693 75.1214 45.5691C75.3872 45.5664 75.6511 45.6153 75.8984 45.7131C76.1301 45.8089 76.3413 45.9484 76.5204 46.1241C76.697 46.2981 76.8367 46.5059 76.9314 46.7351C77.0316 46.9781 77.0842 47.2382 77.0864 47.5011C77.0867 47.7726 77.0298 48.0411 76.9194 48.2891H78.7464V44.0391H79.2794V48.8241H76.5484C76.3676 49.016 76.1481 49.1674 75.9044 49.2681C75.6592 49.3962 75.386 49.4612 75.1094 49.4571ZM75.1094 46.1151C74.9187 46.1133 74.7297 46.151 74.5544 46.2261C74.3913 46.2959 74.244 46.3979 74.1214 46.5261C73.9987 46.6552 73.9008 46.8057 73.8324 46.9701C73.7661 47.1438 73.7322 47.3281 73.7323 47.5141C73.7296 47.8813 73.869 48.2353 74.1214 48.5021C74.2461 48.6278 74.3929 48.7295 74.5544 48.8021C74.7258 48.877 74.9112 48.9148 75.0984 48.9131C75.2879 48.9132 75.4758 48.8794 75.6534 48.8131C75.8217 48.7473 75.9751 48.6485 76.1048 48.5227C76.2344 48.3968 76.3376 48.2463 76.4084 48.0801C76.4834 47.9048 76.5212 47.7157 76.5194 47.5251C76.5212 47.3308 76.4834 47.1382 76.4084 46.9591C76.3428 46.7905 76.2403 46.6388 76.1084 46.5151C75.9792 46.3925 75.8288 46.2945 75.6644 46.2261C75.4898 46.1488 75.3003 46.1109 75.1094 46.1151ZM69.9024 46.1151C69.7184 46.1131 69.536 46.1485 69.3662 46.2191C69.1963 46.2898 69.0426 46.3942 68.9144 46.5261C68.7917 46.6552 68.6938 46.8057 68.6254 46.9701C68.4921 47.3205 68.4921 47.7076 68.6254 48.0581C68.6911 48.2239 68.7893 48.3749 68.9144 48.5021C69.039 48.6278 69.1858 48.7295 69.3474 48.8021C69.5188 48.877 69.7042 48.9148 69.8914 48.9131C70.0844 48.9122 70.2758 48.8784 70.4574 48.8131C70.7134 48.7089 70.9326 48.5306 71.0869 48.3012C71.2411 48.0718 71.3235 47.8015 71.3234 47.5251C71.3252 47.3308 71.2874 47.1382 71.2124 46.9591C71.1468 46.7905 71.0443 46.6388 70.9124 46.5151C70.7833 46.3924 70.6328 46.2945 70.4684 46.2261C70.2895 46.15 70.0967 46.1122 69.9024 46.1151ZM57.6234 45.7601C57.4421 45.7617 57.2623 45.7917 57.0903 45.8491C56.9208 45.905 56.7629 45.9915 56.6244 46.1041C56.49 46.2204 56.3773 46.3595 56.2914 46.5151C56.208 46.6762 56.166 46.8556 56.1694 47.0371C56.1664 47.2208 56.2043 47.4028 56.2804 47.5701C56.3548 47.7238 56.4607 47.8601 56.5914 47.9701C56.7299 48.0827 56.8878 48.1691 57.0574 48.2251C57.2408 48.2817 57.4314 48.3116 57.6234 48.3141H58.1564V45.7611L57.6234 45.7601Z" fill="white"/>
<path d="M6.12218 48.8487H2.60318C2.31807 48.8509 2.03404 48.8135 1.75918 48.7377C1.50895 48.6718 1.27209 48.5628 1.05918 48.4157C0.857398 48.2692 0.690714 48.0796 0.571177 47.8607C0.446895 47.6092 0.385797 47.3312 0.393175 47.0507C0.394186 46.8019 0.446975 46.556 0.548178 46.3287C0.65027 46.1051 0.802139 45.9077 0.992178 45.7517C1.19982 45.5831 1.43726 45.4549 1.69218 45.3737C1.9862 45.28 2.29361 45.235 2.60217 45.2407H3.44618V48.3267H5.58918V45.2407H6.12218V48.8487ZM2.39218 45.7627C2.21094 45.7642 2.03106 45.7943 1.85917 45.8517C1.6896 45.9076 1.53167 45.9941 1.39318 46.1067C1.25878 46.223 1.14604 46.3621 1.06018 46.5177C0.976768 46.6789 0.93484 46.8583 0.938177 47.0397C0.935236 47.2234 0.973149 47.4055 1.04918 47.5727C1.12356 47.7264 1.22953 47.8628 1.36018 47.9727C1.49871 48.0854 1.65663 48.1718 1.82618 48.2277C2.00961 48.2843 2.20022 48.3143 2.39218 48.3167H2.92518V45.7637L2.39218 45.7627Z" fill="white"/>
<path d="M39.3281 50.0225H39.8831V49.4785H39.3281V50.0225Z" fill="white"/>
<path d="M38.3848 50.0225H38.9398V49.4785H38.3848V50.0225Z" fill="white"/>
<path d="M42.9467 50.3105C42.8007 50.3086 42.6555 50.2902 42.5137 50.2556L42.6577 49.7445L42.8017 49.7775C42.8457 49.7775 42.8907 49.7885 42.9237 49.7885C43.0107 49.7902 43.0972 49.7752 43.1787 49.7445C43.2449 49.715 43.2994 49.6644 43.3337 49.6006C43.3762 49.5215 43.4027 49.4348 43.4117 49.3456C43.4303 49.2168 43.4377 49.0866 43.4337 48.9565V45.2265H43.9667V48.3125H45.9667L45.0227 46.0815C45.1667 45.9595 45.3117 45.8375 45.4667 45.7265C45.6229 45.6131 45.7904 45.5162 45.9667 45.4375C46.1343 45.3582 46.3091 45.2949 46.4887 45.2485C46.6591 45.2038 46.8345 45.1813 47.0107 45.1815C47.1868 45.1819 47.3622 45.2044 47.5327 45.2485C47.7122 45.2949 47.887 45.3582 48.0547 45.4375C48.2274 45.523 48.3944 45.6195 48.5547 45.7265C48.7137 45.8352 48.8656 45.9537 49.0097 46.0815L48.0657 48.3125H50.3527V44.0605H50.8857V48.8456H43.9807V48.9565C43.9843 49.1467 43.9659 49.3367 43.9257 49.5226C43.8954 49.672 43.8388 49.8149 43.7587 49.9445C43.6815 50.0644 43.569 50.1574 43.4367 50.2105C43.2853 50.2872 43.116 50.3218 42.9467 50.3105ZM47.0207 45.7695C46.7896 45.7704 46.5605 45.8117 46.3437 45.8915C46.1136 45.982 45.8998 46.1094 45.7107 46.2686L46.5547 48.3116H47.5097L48.3537 46.2686C48.1739 46.119 47.9713 45.9991 47.7537 45.9135C47.5211 45.8179 47.2721 45.769 47.0207 45.7695Z" fill="white"/>
<path d="M1.95898 44.6162H2.51398V44.0723H1.95898V44.6162Z" fill="white"/>
<path d="M4.24701 52.3535H3.41602L1.59501 54.2625V52.3535H0.916016V56.1615H1.59301V55.0615L2.19301 54.4505L3.50301 56.1605H4.32501L2.66002 53.9846L4.24701 52.3535Z" fill="white"/>
<path d="M4.93555 56.1615H5.61255V52.3535H4.93555V56.1615Z" fill="white"/>
<path d="M9.32053 54.9846L7.26653 52.3535H6.64453V56.1615H7.31053V53.4536L9.43053 56.1625H9.99653V52.3535H9.33153V54.9846H9.32053Z" fill="white"/>
<path d="M12.7735 54.6077H13.7505V55.3187C13.4801 55.5065 13.1588 55.6073 12.8295 55.6077C12.4915 55.6147 12.1643 55.4881 11.9191 55.2554C11.6738 55.0227 11.5303 54.7026 11.5195 54.3647V54.2427C11.5052 53.9013 11.6268 53.5682 11.8578 53.3164C12.0888 53.0647 12.4102 52.9148 12.7515 52.8997H12.7625C12.9603 52.8932 13.1575 52.9263 13.3424 52.9969C13.5273 53.0674 13.6963 53.1741 13.8395 53.3107L14.2725 52.8107C13.865 52.4543 13.3365 52.2676 12.7955 52.2887C12.5396 52.2849 12.2854 52.3316 12.0475 52.4261C11.8096 52.5206 11.5927 52.661 11.4092 52.8394C11.2257 53.0179 11.0791 53.2307 10.9779 53.4659C10.8767 53.701 10.8229 53.9537 10.8195 54.2097V54.2647C10.8019 54.7664 10.9836 55.2546 11.3248 55.6228C11.666 55.991 12.139 56.2091 12.6405 56.2297H12.8075C13.396 56.2307 13.9648 56.0175 14.4075 55.6297V54.0297H12.7735V54.6077Z" fill="white"/>
<path d="M16.7679 56.1605H15.3359V52.3526H16.7679C17.0173 52.3346 17.2678 52.366 17.5051 52.4451C17.7423 52.5241 17.9616 52.6493 18.1503 52.8133C18.3391 52.9772 18.4937 53.1768 18.6051 53.4007C18.7166 53.6245 18.7828 53.8681 18.7999 54.1176V54.2506C18.8001 54.5014 18.7508 54.7499 18.6548 54.9817C18.5589 55.2134 18.4182 55.4241 18.2408 55.6015C18.0634 55.7789 17.8528 55.9195 17.621 56.0155C17.3892 56.1114 17.1408 56.1607 16.8899 56.1605H16.7679ZM16.0129 52.9606V55.5476H16.7679C17.099 55.569 17.4252 55.4583 17.6748 55.2397C17.9245 55.0212 18.0773 54.7126 18.0999 54.3816V54.2595C18.1105 53.9271 17.9892 53.6039 17.7626 53.3604C17.536 53.1169 17.2223 52.9728 16.8899 52.9596H16.0129V52.9606Z" fill="white"/>
<path d="M21.4336 56.2162C20.9211 56.2341 20.4225 56.0476 20.0475 55.6979C19.6724 55.3481 19.4516 54.8637 19.4336 54.3512V54.2512C19.4321 53.994 19.4813 53.739 19.5784 53.5008C19.6755 53.2627 19.8187 53.046 19.9996 52.8632C20.1902 52.6766 20.4158 52.5296 20.6635 52.4305C20.9111 52.3315 21.1759 52.2825 21.4426 52.2862C21.6972 52.2777 21.951 52.3195 22.1894 52.4092C22.4279 52.499 22.6462 52.6349 22.832 52.8091C23.0178 52.9834 23.1674 53.1926 23.2722 53.4248C23.377 53.657 23.4349 53.9076 23.4426 54.1622V54.2623C23.4442 54.5195 23.395 54.7745 23.2979 55.0126C23.2007 55.2508 23.0576 55.4675 22.8766 55.6503C22.6852 55.835 22.4592 55.98 22.2116 56.0771C21.964 56.1743 21.6996 56.2215 21.4336 56.2162ZM21.4336 52.8972C21.0921 52.8975 20.7647 53.0333 20.5232 53.2748C20.2817 53.5163 20.1459 53.8437 20.1456 54.1852V54.2522C20.137 54.6007 20.2663 54.9384 20.5055 55.192C20.7446 55.4456 21.0743 55.5945 21.4226 55.6063H21.4446C21.7869 55.605 22.1151 55.4692 22.3582 55.2283C22.6014 54.9873 22.7402 54.6605 22.7446 54.3182V54.2512C22.7593 53.9068 22.6366 53.5708 22.4035 53.3169C22.1704 53.063 21.846 52.912 21.5016 52.8972H21.4336Z" fill="white"/>
<path d="M26.1722 54.1535L25.0062 52.3535H24.2852V56.1615H24.9512V53.4415L26.1512 55.2285H26.1732L27.3832 53.4285V56.1595H28.0602V52.3535H27.3382L26.1722 54.1535Z" fill="white"/>
<path d="M32.5137 56.2162C32.0013 56.2338 31.5028 56.0472 31.1278 55.6976C30.7528 55.3479 30.532 54.8637 30.5137 54.3512V54.2512C30.5122 53.994 30.5613 53.739 30.6585 53.5008C30.7556 53.2627 30.8987 53.046 31.0797 52.8632C31.2703 52.6766 31.4959 52.5296 31.7436 52.4305C31.9912 52.3315 32.256 52.2825 32.5227 52.2862C32.7773 52.2777 33.0311 52.3195 33.2695 52.4092C33.5079 52.499 33.7263 52.6349 33.9121 52.8091C34.0979 52.9834 34.2475 53.1926 34.3523 53.4248C34.457 53.657 34.515 53.9076 34.5227 54.1622V54.2623C34.5243 54.5195 34.4751 54.7745 34.3779 55.0126C34.2808 55.2508 34.1377 55.4675 33.9567 55.6503C33.7653 55.835 33.5393 55.98 33.2917 56.0771C33.044 56.1743 32.7797 56.2215 32.5137 56.2162ZM32.5137 52.8972C32.1722 52.8975 31.8447 53.0333 31.6032 53.2748C31.3618 53.5163 31.226 53.8437 31.2257 54.1852V54.2522C31.2171 54.6007 31.3464 54.9384 31.5856 55.192C31.8247 55.4456 32.1543 55.5945 32.5027 55.6063H32.5247C32.867 55.605 33.1951 55.4692 33.4383 55.2283C33.6815 54.9873 33.8203 54.6605 33.8247 54.3182V54.2512C33.8393 53.9068 33.7166 53.5708 33.4835 53.3169C33.2505 53.063 32.9261 52.912 32.5817 52.8972H32.5137Z" fill="white"/>
<path d="M35.3652 56.1608H36.0422V54.6068H37.9742V53.9958H36.0422V52.9518H38.2182V52.3418H35.3652V56.1608Z" fill="white"/>
<path d="M42.0816 53.952C41.3486 53.774 41.1716 53.6519 41.1716 53.3519V53.3409C41.1716 53.0859 41.4046 52.8859 41.7936 52.8859C42.174 52.9019 42.5395 53.0381 42.8376 53.275L43.2036 52.775C42.8129 52.455 42.3205 52.2858 41.8156 52.298C41.6631 52.279 41.5084 52.2904 41.3603 52.3315C41.2122 52.3727 41.0738 52.4427 40.9529 52.5376C40.8321 52.6325 40.7312 52.7505 40.6561 52.8846C40.5811 53.0187 40.5333 53.1663 40.5156 53.319C40.5156 53.341 40.5046 53.375 40.5046 53.408V53.4189C40.5046 54.1189 40.9596 54.363 41.7816 54.551C42.4916 54.718 42.6476 54.8619 42.6476 55.1279V55.139C42.6476 55.428 42.3816 55.616 41.9706 55.616C41.7459 55.6165 41.5234 55.5726 41.3157 55.4868C41.1081 55.4009 40.9194 55.2749 40.7606 55.116L40.3496 55.593C40.7885 55.9884 41.3589 56.2062 41.9496 56.204C42.7596 56.204 43.3156 55.782 43.3156 55.071V55.067C43.3156 54.434 42.8936 54.146 42.0836 53.957" fill="white"/>
<path d="M44.3794 56.162H43.6914L45.3794 52.332H46.0014L47.6894 56.162H46.9784L46.5894 55.241H44.7794L44.3794 56.162ZM45.6794 53.1201L45.0244 54.6411H46.3454L45.6794 53.1201Z" fill="white"/>
<path d="M50.6963 54.5411C50.6963 55.2411 50.3303 55.5961 49.7303 55.5961C49.1303 55.5961 48.7643 55.2181 48.7643 54.5081V52.3431H48.0873V54.543C48.0632 54.7393 48.0784 54.9385 48.132 55.1288C48.1855 55.3192 48.2764 55.497 48.3994 55.652C48.5223 55.8069 48.6748 55.9358 48.848 56.0313C49.0212 56.1268 49.2116 56.1869 49.4083 56.2081C49.5153 56.2192 49.6232 56.2192 49.7303 56.2081C49.9302 56.2263 50.1317 56.2048 50.3232 56.1448C50.5148 56.0848 50.6925 55.9875 50.8463 55.8585C51.0001 55.7294 51.1267 55.5712 51.2191 55.393C51.3114 55.2148 51.3675 55.0201 51.3843 54.8201C51.3972 54.7128 51.3935 54.6042 51.3733 54.498V52.332H50.6963V54.5411Z" fill="white"/>
<path d="M53.7816 56.1605H52.3496V52.3526H53.7816C54.031 52.3346 54.2815 52.366 54.5187 52.4451C54.7559 52.5241 54.9752 52.6493 55.164 52.8133C55.3528 52.9772 55.5073 53.1768 55.6188 53.4007C55.7303 53.6245 55.7965 53.8681 55.8136 54.1176V54.2506C55.8136 54.7571 55.6124 55.243 55.2542 55.6012C54.896 55.9594 54.4102 56.1605 53.9036 56.1605H53.7816ZM53.0266 52.9606V55.5476H53.7816C54.1127 55.569 54.4388 55.4583 54.6885 55.2397C54.9381 55.0212 55.091 54.7126 55.1136 54.3816V54.2595C55.1241 53.9271 55.0029 53.6039 54.7763 53.3604C54.5496 53.1169 54.236 52.9728 53.9036 52.9596H53.0266V52.9606Z" fill="white"/>
<path d="M56.668 56.1615H57.345V52.3535H56.668V56.1615Z" fill="white"/>
<path d="M60.3775 56.162H59.6895L61.3765 52.332H61.9985L63.6855 56.162H62.9745L62.5855 55.241H60.7755L60.3755 56.162H60.3775ZM61.6775 53.1201L61.0225 54.6411H62.3435L61.6775 53.1201Z" fill="white"/>
<path d="M64.9954 56.1618H64.3184V52.3539H66.0284C66.4331 52.332 66.8307 52.4671 67.1384 52.7309C67.3483 52.9527 67.4638 53.2474 67.4604 53.5528V53.5639C67.468 53.8325 67.3811 54.0953 67.2148 54.3064C67.0485 54.5175 66.8133 54.6634 66.5504 54.7188L67.5823 56.1618H66.7944L65.8503 54.8299H65.0063V56.1618H64.9954ZM64.9954 52.9618V54.2389H65.9833C66.4603 54.2389 66.7714 53.9949 66.7714 53.6059V53.5948C66.7714 53.1948 66.4824 52.9618 65.9714 52.9618H64.9954Z" fill="white"/>
<path d="M68.7583 56.1613H68.0703L69.7583 52.3203H70.3803L72.0683 56.1503H71.3573L70.9693 55.2293H69.1593L68.7593 56.1613H68.7583ZM70.0583 53.1193L69.4033 54.6403H70.7243L70.0583 53.1193Z" fill="white"/>
<path d="M74.4869 56.162H72.7109V52.3541H74.4319C74.7957 52.3325 75.1538 52.4516 75.4319 52.687C75.5165 52.7687 75.583 52.8673 75.6269 52.9764C75.6708 53.0854 75.6913 53.2025 75.687 53.32V53.3311C75.6904 53.5099 75.6405 53.6856 75.5436 53.8359C75.4467 53.9863 75.3072 54.1043 75.1429 54.175C75.3581 54.2154 75.5523 54.3296 75.6922 54.4979C75.8321 54.6663 75.9087 54.8782 75.9089 55.097V55.108C75.8969 55.762 75.3759 56.162 74.4869 56.162ZM73.366 54.519V55.563H74.4869C74.9529 55.563 75.231 55.374 75.231 55.041V55.03C75.231 54.697 74.9539 54.519 74.4429 54.519H73.366ZM73.366 52.943V53.9531H74.288C74.743 53.9531 75.0099 53.764 75.0099 53.431C75.0099 53.131 74.7549 52.943 74.3329 52.943H73.366Z" fill="white"/>
<path d="M76.7305 56.1615H77.4075V52.3535H76.7305V56.1615Z" fill="white"/>
<path d="M78.7388 56.162H78.0508L79.7388 52.332H80.3608L82.0478 56.162H81.3378L80.9488 55.241H79.1388L78.7388 56.162ZM80.0388 53.1201L79.3838 54.6411H80.7048L80.0388 53.1201Z" fill="white"/>
<path d="M29.2041 15.8848L30.2922 16.9178L29.2482 17.9948L28.1602 16.9628L29.2041 15.8848Z" fill="white"/>
<path d="M31.6797 16.9608L32.7677 17.9928L33.8117 16.9158L32.7237 15.8828L31.6797 16.9608Z" fill="white"/>
<path d="M30.1465 18.3174L30.9905 19.1174L31.8005 18.2844L30.9565 17.4844L30.1465 18.3174Z" fill="white"/>
<path d="M33.2441 18.7705L34.0881 19.5805L34.8981 18.7475L34.0541 17.9375L33.2441 18.7705Z" fill="white"/>
<path d="M28.7695 19.5928L29.6135 20.4028L30.4235 19.5698L29.5795 18.7598L28.7695 19.5928Z" fill="white"/>
<path d="M31.6016 19.6924L32.4456 20.5024L33.2556 19.6694L32.4116 18.8594L31.6016 19.6924Z" fill="white"/>
<path d="M30.4902 20.6583L31.0782 21.2243L31.6442 20.6363L31.0562 20.0703L30.4902 20.6583Z" fill="white"/>
<path d="M32.7344 21.1017L33.3224 21.6677L33.8884 21.0797L33.3004 20.5137L32.7344 21.1017Z" fill="white"/>
<path d="M37.6172 16.6182L37.9502 18.4502L39.7932 18.1172L39.4602 16.2852L37.6172 16.6182Z" fill="white"/>
<path d="M35.2207 17.3832L35.4867 18.8482L36.9637 18.5822L36.6967 17.1172L35.2207 17.3832Z" fill="white"/>
<path d="M38.0742 19.4261L38.3402 20.8912L39.8172 20.6252L39.5502 19.1602L38.0742 19.4261Z" fill="white"/>
<path d="M36.041 19.6368L36.252 20.7798L37.407 20.5688L37.196 19.4258L36.041 19.6368Z" fill="white"/>
<path d="M38.2734 21.8126L38.4844 22.9556L39.6394 22.7446L39.4284 21.6016L38.2734 21.8126Z" fill="white"/>
<path d="M34.3105 20.1036L34.5215 21.2466L35.6765 21.0356L35.4655 19.8926L34.3105 20.1036Z" fill="white"/>
<path d="M36.3965 21.6007L36.6075 22.7437L37.7625 22.5327L37.5515 21.3887L36.3965 21.6007Z" fill="white"/>
<path d="M34.9316 21.7338L35.0757 22.5338L35.8857 22.3898L35.7416 21.5898L34.9316 21.7338Z" fill="white"/>
<path d="M36.4863 23.3998L36.6303 24.1999L37.4403 24.0558L37.2963 23.2559L36.4863 23.3998Z" fill="white"/>
<path d="M43.091 22.6016L42.291 24.2776L43.979 25.0776L44.779 23.4016L43.091 22.6016Z" fill="white"/>
<path d="M40.6948 21.8242L40.0508 23.1672L41.4048 23.8112L42.0488 22.4682L40.6948 21.8242Z" fill="white"/>
<path d="M41.8042 25.1426L41.1602 26.4856L42.5142 27.1296L43.1582 25.7866L41.8042 25.1426Z" fill="white"/>
<path d="M40.0273 24.1328L39.5273 25.1768L40.5823 25.6768L41.0823 24.6328L40.0273 24.1328Z" fill="white"/>
<path d="M40.5605 27.1855L40.0605 28.2296L41.1155 28.7296L41.6155 27.6855L40.5605 27.1855Z" fill="white"/>
<path d="M38.3516 23.5117L37.8516 24.5557L38.9066 25.0557L39.4066 24.0117L38.3516 23.5117Z" fill="white"/>
<path d="M39.1719 25.9316L38.6719 26.9756L39.7269 27.4756L40.2269 26.4316L39.1719 25.9316Z" fill="white"/>
<path d="M37.896 25.1992L37.541 25.9322L38.285 26.2872L38.64 25.5542L37.896 25.1992Z" fill="white"/>
<path d="M38.1831 27.4414L37.8281 28.1744L38.5721 28.5294L38.9271 27.7964L38.1831 27.4414Z" fill="white"/>
<path d="M44.0023 30.6387L42.3594 31.5267L43.2594 33.1587L44.9024 32.2707L44.0023 30.6387Z" fill="white"/>
<path d="M42.5143 28.6191L41.1934 29.3411L41.9153 30.6512L43.2253 29.9291L42.5143 28.6191Z" fill="white"/>
<path d="M41.4597 31.9492L40.1387 32.6712L40.8607 33.9812L42.1707 33.2592L41.4597 31.9492Z" fill="white"/>
<path d="M40.6148 30.0938L39.5938 30.6488L40.1598 31.6698L41.1808 31.1148L40.6148 30.0938Z" fill="white"/>
<path d="M39.2495 32.8809L38.2285 33.4359L38.7945 34.4569L39.8155 33.9019L39.2495 32.8809Z" fill="white"/>
<path d="M39.6265 28.6191L38.6055 29.1741L39.1715 30.1951L40.1925 29.6401L39.6265 28.6191Z" fill="white"/>
<path d="M38.8608 31.0605L37.8398 31.6155L38.4059 32.6365L39.4268 32.0815L38.8608 31.0605Z" fill="white"/>
<path d="M38.263 29.7168L37.541 30.1058L37.941 30.8278L38.663 30.4388L38.263 29.7168Z" fill="white"/>
<path d="M37.1634 31.7051L36.4414 32.0931L36.8414 32.8041L37.5634 32.4151L37.1634 31.7051Z" fill="white"/>
<path d="M40.0049 37.6783L38.151 37.4453L37.918 39.2883L39.7719 39.5213L40.0049 37.6783Z" fill="white"/>
<path d="M39.9934 35.1792L38.5054 34.9902L38.3164 36.4673L39.8044 36.6562L39.9934 35.1792Z" fill="white"/>
<path d="M37.1731 37.2671L35.6851 37.0781L35.4961 38.5551L36.9841 38.7441L37.1731 37.2671Z" fill="white"/>
<path d="M37.5744 35.267L36.4194 35.123L36.2754 36.278L37.4304 36.422L37.5744 35.267Z" fill="white"/>
<path d="M34.8224 36.7436L33.6674 36.5996L33.5234 37.7546L34.6784 37.8876L34.8224 36.7436Z" fill="white"/>
<path d="M37.6518 33.5034L36.4858 33.3594L36.3418 34.5144L37.4968 34.6584L37.6518 33.5034Z" fill="white"/>
<path d="M35.5874 35.0346L34.4214 34.8906L34.2773 36.0456L35.4323 36.1896L35.5874 35.0346Z" fill="white"/>
<path d="M35.8963 33.602L35.0863 33.502L34.9863 34.312L35.7963 34.412L35.8963 33.602Z" fill="white"/>
<path d="M33.8319 34.5785L33.0219 34.4785L32.9219 35.2885L33.7319 35.3885L33.8319 34.5785Z" fill="white"/>
<path d="M32.611 41.0629L31.234 39.7969L29.957 41.1629L31.334 42.4289L32.611 41.0629Z" fill="white"/>
<path d="M32.3669 15.0531L30.9899 13.7871L29.7129 15.1531L31.0899 16.4191L32.3669 15.0531Z" fill="white"/>
<path d="M34.0761 39.0315L32.9761 38.0215L31.9551 39.1095L33.0551 40.1195L34.0761 39.0315Z" fill="white"/>
<path d="M30.5565 39.0862L29.4566 38.0762L28.4355 39.1642L29.5356 40.1742L30.5565 39.0862Z" fill="white"/>
<path d="M32.0671 37.7099L31.2121 36.9219L30.4121 37.7769L31.2671 38.5649L32.0671 37.7099Z" fill="white"/>
<path d="M28.9695 37.2997L28.1144 36.5117L27.3145 37.3667L28.1694 38.1547L28.9695 37.2997Z" fill="white"/>
<path d="M33.1667 36.3114L32.3117 35.5234L31.5117 36.3784L32.3667 37.1664L33.1667 36.3114Z" fill="white"/>
<path d="M30.5905 36.3564L29.7355 35.5684L28.9355 36.4233L29.7906 37.2114L30.5905 36.3564Z" fill="white"/>
<path d="M31.6784 35.3792L31.0784 34.8242L30.5234 35.4242L31.1234 35.9792L31.6784 35.3792Z" fill="white"/>
<path d="M29.4362 34.9691L28.8363 34.4141L28.2812 35.014L28.8813 35.5691L29.4362 34.9691Z" fill="white"/>
<path d="M24.6316 39.5202L24.2656 37.6992L22.4336 38.0652L22.7996 39.8862L24.6316 39.5202Z" fill="white"/>
<path d="M27.0153 38.7209L26.7153 37.2559L25.2383 37.5449L25.5383 39.0099L27.0153 38.7209Z" fill="white"/>
<path d="M24.1286 36.7228L23.8286 35.2578L22.3516 35.5468L22.6516 37.0118L24.1286 36.7228Z" fill="white"/>
<path d="M26.1611 36.4777L25.9282 35.3457L24.7852 35.5677L25.0182 36.6997L26.1611 36.4777Z" fill="white"/>
<path d="M27.8701 35.9894L27.6371 34.8574L26.4941 35.0794L26.7271 36.2224L27.8701 35.9894Z" fill="white"/>
<path d="M25.7627 34.5226L25.5297 33.3906L24.3867 33.6236L24.6197 34.7556L25.7627 34.5226Z" fill="white"/>
<path d="M27.2267 34.3586L27.0717 33.5586L26.2617 33.7136L26.4167 34.5136L27.2267 34.3586Z" fill="white"/>
<path d="M25.6408 32.7258L25.4858 31.9258L24.6758 32.0808L24.8308 32.8808L25.6408 32.7258Z" fill="white"/>
<path d="M19.0574 33.6249L19.8344 31.9379L18.1344 31.1719L17.3574 32.8599L19.0574 33.6249Z" fill="white"/>
<path d="M21.4656 34.3686L22.0876 33.0146L20.7216 32.3926L20.0996 33.7466L21.4656 34.3686Z" fill="white"/>
<path d="M20.2996 31.0717L20.9216 29.7177L19.5556 29.0957L18.9336 30.4497L20.2996 31.0717Z" fill="white"/>
<path d="M22.0982 32.0476L22.5872 30.9926L21.5212 30.5156L21.0332 31.5706L22.0982 32.0476Z" fill="white"/>
<path d="M23.5191 34.6902L24.0071 33.6352L22.9411 33.1582L22.4531 34.2132L23.5191 34.6902Z" fill="white"/>
<path d="M21.5094 29.0066L21.9974 27.9516L20.9314 27.4746L20.4434 28.5296L21.5094 29.0066Z" fill="white"/>
<path d="M23.775 32.6492L24.263 31.5942L23.197 31.1172L22.709 32.1722L23.775 32.6492Z" fill="white"/>
<path d="M22.9195 30.239L23.4075 29.1841L22.3415 28.707L21.8535 29.7621L22.9195 30.239Z" fill="white"/>
<path d="M24.2069 30.9493L24.5509 30.2053L23.8069 29.8613L23.4629 30.6053L24.2069 30.9493Z" fill="white"/>
<path d="M23.8866 28.7072L24.2306 27.9631L23.4866 27.6191L23.1426 28.3631L23.8866 28.7072Z" fill="white"/>
<path d="M18.0131 25.6091L19.6341 24.6881L18.7011 23.0781L17.0801 23.9991L18.0131 25.6091Z" fill="white"/>
<path d="M19.5331 27.6092L20.8331 26.8762L20.0891 25.5762L18.7891 26.3202L19.5331 27.6092Z" fill="white"/>
<path d="M20.5331 24.2664L21.8331 23.5334L21.0891 22.2344L19.7891 22.9784L20.5331 24.2664Z" fill="white"/>
<path d="M21.409 26.0987L22.419 25.5217L21.842 24.5117L20.832 25.0887L21.409 26.0987Z" fill="white"/>
<path d="M22.7313 23.2901L23.7413 22.7131L23.1643 21.7031L22.1543 22.2802L22.7313 23.2901Z" fill="white"/>
<path d="M22.4208 27.5636L23.4308 26.9866L22.8538 25.9766L21.8438 26.5536L22.4208 27.5636Z" fill="white"/>
<path d="M23.1512 25.1104L24.1612 24.5334L23.5842 23.5234L22.5742 24.1004L23.1512 25.1104Z" fill="white"/>
<path d="M23.7645 26.4313L24.4755 26.0313L24.0645 25.3203L23.3535 25.7203L23.7645 26.4313Z" fill="white"/>
<path d="M24.829 24.4333L25.54 24.0333L25.129 23.3223L24.418 23.7223L24.829 24.4333Z" fill="white"/>
<path d="M21.8867 18.5051L23.7517 18.7051L23.9517 16.8621L22.0867 16.6621L21.8867 18.5051Z" fill="white"/>
<path d="M21.9434 21.0141L23.4314 21.1691L23.5863 19.6921L22.0984 19.5371L21.9434 21.0141Z" fill="white"/>
<path d="M24.7285 18.8715L26.2165 19.0265L26.3715 17.5495L24.8835 17.3945L24.7285 18.8715Z" fill="white"/>
<path d="M24.3516 20.8698L25.5176 20.9918L25.6396 19.8368L24.4736 19.7148L24.3516 20.8698Z" fill="white"/>
<path d="M27.082 19.3601L28.248 19.4821L28.37 18.3271L27.204 18.2051L27.082 19.3601Z" fill="white"/>
<path d="M24.3184 22.6452L25.4844 22.7672L25.6064 21.6122L24.4404 21.4902L24.3184 22.6452Z" fill="white"/>
<path d="M26.3496 21.0808L27.5156 21.2028L27.6376 20.0478L26.4716 19.9258L26.3496 21.0808Z" fill="white"/>
<path d="M26.0723 22.5112L26.8943 22.6002L26.9833 21.7902L26.1613 21.7012L26.0723 22.5112Z" fill="white"/>
<path d="M28.1152 21.5014L28.9372 21.5904L29.0262 20.7804L28.2042 20.6914L28.1152 21.5014Z" fill="white"/>
<path d="M36.9398 29.2505C36.7045 29.1161 36.4549 29.0081 36.1958 28.9286C35.5358 28.7199 34.8357 28.6705 34.1528 28.7845C33.8506 28.8309 33.5533 28.9053 33.2648 29.0066L33.1758 29.0396C33.0165 29.1006 32.8609 29.1711 32.7098 29.2505C32.5768 29.3175 32.4438 29.3945 32.3098 29.4725C32.001 29.6569 31.7044 29.861 31.4218 30.0836C31.1926 28.521 31.1626 26.9356 31.3328 25.3655C31.3328 25.3641 31.3331 25.3627 31.3337 25.3613C31.3342 25.36 31.335 25.3588 31.3361 25.3578C31.3371 25.3567 31.3383 25.3559 31.3396 25.3554C31.341 25.3548 31.3424 25.3546 31.3438 25.3546C32.0538 25.7986 31.8548 27.0305 31.6988 27.3865C31.6988 27.3895 31.7 27.3923 31.7021 27.3943C31.7041 27.3964 31.7069 27.3976 31.7098 27.3976C32.001 27.0632 32.1826 26.6476 32.2302 26.2068C32.2778 25.7661 32.189 25.3213 31.9758 24.9326C31.9758 24.9216 31.9758 24.9215 31.9868 24.9215C32.105 25.0175 32.2129 25.1254 32.3088 25.2436C32.5442 25.5434 32.6836 25.9072 32.7088 26.2875C32.7199 26.4463 32.7199 26.6058 32.7088 26.7646C32.7088 26.7976 32.6978 26.8315 32.6978 26.8645C32.6978 26.8755 32.6978 26.8755 32.7088 26.8755C32.8566 26.5909 32.9338 26.2748 32.9338 25.954C32.9338 25.6333 32.8566 25.3172 32.7088 25.0326C32.5984 24.8355 32.4641 24.6527 32.3088 24.4886C32.26 24.4342 32.2082 24.3824 32.1538 24.3336V24.3235C32.1538 24.3125 32.1538 24.3235 32.1648 24.3235C32.2178 24.3331 32.2697 24.3478 32.3198 24.3676C32.4639 24.4154 32.599 24.4867 32.7198 24.5786C32.9738 24.7668 33.1668 25.0255 33.2748 25.3225C33.3624 25.5375 33.4076 25.7674 33.4078 25.9995C33.4078 26.001 33.4081 26.0024 33.4087 26.0038C33.4092 26.0051 33.41 26.0063 33.4111 26.0073C33.4121 26.0083 33.4133 26.0092 33.4146 26.0097C33.416 26.0103 33.4174 26.0106 33.4188 26.0106C33.4298 26.0106 33.4298 26.0105 33.4298 25.9995C33.5593 25.6483 33.56 25.2625 33.4319 24.9108C33.3037 24.559 33.0549 24.2642 32.7298 24.0786C32.6052 24.0014 32.4706 23.9415 32.3298 23.9005C32.2682 23.8806 32.205 23.8659 32.1408 23.8565C32.1298 23.8565 32.1298 23.8456 32.1408 23.8456C32.2034 23.8367 32.2666 23.833 32.3298 23.8345C32.4639 23.8345 32.5976 23.8455 32.7298 23.8676C32.9284 23.9015 33.1176 23.9772 33.2848 24.0895C33.4401 24.1915 33.5692 24.3285 33.6618 24.4895C33.6618 24.5005 33.6728 24.4895 33.6728 24.4895C33.6602 24.346 33.6194 24.2064 33.5526 24.0787C33.4859 23.951 33.3945 23.8378 33.2838 23.7455C33.1202 23.6128 32.9314 23.5145 32.7288 23.4565C32.5983 23.4219 32.4639 23.4035 32.3288 23.4016C32.1579 23.3976 31.9879 23.4278 31.8288 23.4905C31.8178 23.4905 31.8178 23.4906 31.8178 23.4796C31.9395 23.3031 32.1211 23.177 32.3288 23.1245C32.4577 23.0826 32.5939 23.0676 32.7288 23.0805C32.8404 23.084 32.9501 23.1105 33.0508 23.1585H33.0618V23.1476C32.9668 23.0406 32.8542 22.9506 32.7288 22.8816C32.6043 22.8142 32.4689 22.7692 32.3288 22.7485C32.1406 22.7271 31.9501 22.7608 31.7806 22.8454C31.6111 22.9301 31.4698 23.0622 31.3738 23.2256H31.3628C31.3188 23.1476 31.2738 23.0475 31.2298 22.9595C31.1291 22.7279 31.0546 22.4858 31.0078 22.2375C31.0078 22.2346 31.0067 22.2318 31.0046 22.2298C31.0026 22.2277 30.9998 22.2266 30.9968 22.2266C30.9939 22.2266 30.9911 22.2277 30.9891 22.2298C30.987 22.2318 30.9858 22.2346 30.9858 22.2375C30.939 22.4857 30.8645 22.7279 30.7638 22.9595C30.724 23.0504 30.6796 23.1392 30.6308 23.2256H30.6198C30.4729 22.9958 30.2414 22.8332 29.9754 22.7729C29.7095 22.7127 29.4305 22.7596 29.1988 22.9035C29.0976 22.97 29.0078 23.0525 28.9328 23.1476V23.1585H28.9438C29.1565 23.0725 29.3912 23.0574 29.6132 23.1154C29.8352 23.1734 30.0325 23.3015 30.1758 23.4806V23.4915H30.1648C29.893 23.3946 29.5986 23.3798 29.3183 23.449C29.0381 23.5181 28.7844 23.6682 28.5888 23.8806C28.4426 24.054 28.3501 24.2663 28.3228 24.4915C28.3228 24.5025 28.3338 24.5025 28.3338 24.4915C28.3992 24.3796 28.4815 24.2784 28.5778 24.1916C28.7554 24.0492 28.9606 23.9451 29.1803 23.8859C29.4001 23.8267 29.6298 23.8136 29.8548 23.8475C29.8658 23.8475 29.8658 23.8586 29.8548 23.8586C29.5745 23.9066 29.3107 24.0243 29.0876 24.2007C28.8645 24.3772 28.6892 24.6068 28.5778 24.8686C28.4525 25.2349 28.4487 25.6319 28.5668 26.0005C28.5668 26.0035 28.568 26.0063 28.5701 26.0083C28.5721 26.0104 28.5749 26.0115 28.5778 26.0115C28.5888 26.0115 28.5888 26.0115 28.5888 26.0005V25.9676C28.5833 25.5931 28.7024 25.2274 28.9274 24.9279C29.1524 24.6285 29.4706 24.4124 29.8318 24.3135C29.8348 24.3135 29.8376 24.3147 29.8396 24.3168C29.8417 24.3188 29.8428 24.3216 29.8428 24.3246V24.3355C29.47 24.6266 29.2097 25.038 29.1064 25.4997C29.0032 25.9613 29.0634 26.4444 29.2768 26.8665H29.2878V26.8556C29.2239 26.4962 29.2558 26.1263 29.3805 25.7832C29.5051 25.4401 29.7181 25.136 29.9978 24.9016C30.0088 24.9016 30.0088 24.9015 30.0088 24.9125C29.7984 25.302 29.7111 25.7462 29.7586 26.1864C29.8061 26.6266 29.9861 27.0419 30.2748 27.3775C30.2748 27.3885 30.2858 27.3775 30.2858 27.3665C30.1418 27.0115 29.9418 25.7785 30.6408 25.3345H30.6518C30.8166 26.9049 30.7867 28.4896 30.5628 30.0526C30.0305 29.6263 29.4398 29.2784 28.8088 29.0196C28.7308 28.9976 28.6648 28.9646 28.5978 28.9416C28.065 28.7651 27.5047 28.6861 26.9438 28.7086C26.3494 28.7285 25.7662 28.8762 25.2338 29.1415C25.1668 29.1745 25.1118 29.2086 25.0668 29.2306C25.0558 29.2416 25.0558 29.2415 25.0668 29.2525C25.0728 29.2585 25.0805 29.2624 25.0888 29.2635C25.1438 29.2525 25.1888 29.2305 25.2438 29.2195C25.7997 29.0642 26.3785 29.0077 26.9538 29.0526C27.5266 29.1045 28.0861 29.2547 28.6078 29.4966C29.3204 29.8324 29.9849 30.2619 30.5838 30.7736C29.9589 31.3708 29.299 31.9304 28.6078 32.4496L28.5408 32.4825C28.5058 32.4328 28.4611 32.3907 28.4094 32.3586C28.3578 32.3265 28.3002 32.3052 28.2401 32.2959C28.18 32.2865 28.1186 32.2894 28.0596 32.3043C28.0007 32.3192 27.9453 32.3458 27.8968 32.3825C27.8064 32.4459 27.7429 32.5408 27.7188 32.6486C27.7022 32.7176 27.7016 32.7895 27.717 32.8589C27.7324 32.9282 27.7635 32.9931 27.8078 33.0486C27.9111 33.1514 28.0449 33.2179 28.1893 33.2379C28.3336 33.2579 28.4805 33.2304 28.6078 33.1595C29.4117 32.6528 30.1467 32.0444 30.7948 31.3495C30.8728 31.2825 30.9388 31.2165 31.0168 31.1495C31.0948 31.2165 31.1608 31.2825 31.2388 31.3495C31.6388 31.7155 32.0048 32.0715 32.3388 32.3705C32.4718 32.4925 32.6048 32.6145 32.7388 32.7145C32.912 32.8603 33.0977 32.9905 33.2938 33.1035C33.4228 33.2002 33.5806 33.2506 33.7417 33.2466C33.9028 33.2426 34.0578 33.1845 34.1818 33.0815C34.1944 33.068 34.2093 33.0568 34.2258 33.0486C34.2681 32.9919 34.2979 32.927 34.3132 32.8581C34.3285 32.7891 34.3291 32.7177 34.3148 32.6486C34.2953 32.5623 34.2487 32.4845 34.1818 32.4265C34.1227 32.3691 34.0502 32.3272 33.9708 32.3045C33.8826 32.2853 33.7907 32.2918 33.7062 32.3234C33.6216 32.3549 33.5479 32.4102 33.4938 32.4825C33.4268 32.4484 33.3635 32.4076 33.3048 32.3605C33.1124 32.2221 32.9271 32.0739 32.7498 31.9165C32.6278 31.8055 32.4948 31.6836 32.3498 31.5616C32.0718 31.3176 31.7728 31.0395 31.4618 30.7615C31.7508 30.5285 32.0498 30.2956 32.3498 30.0956C32.4828 30.0066 32.6158 29.9285 32.7498 29.8405C32.9278 29.7295 33.1158 29.6406 33.3048 29.5406C33.5917 29.4066 33.8886 29.2953 34.1928 29.2076C34.8566 29.0173 35.5541 28.9756 36.2358 29.0855C36.4798 29.1302 36.7242 29.1859 36.9688 29.2525C36.9798 29.2525 36.9908 29.2525 36.9908 29.2415C36.9468 29.2635 36.9468 29.2525 36.9348 29.2525" fill="white"/>
</svg>
