<svg width="147" height="157" viewBox="0 0 147 157" fill="none" xmlns="http://www.w3.org/2000/svg">
<path d="M70.5036 130.833H10.6967C4.91625 130.833 0.230469 126.147 0.230469 120.367V109.9H80.5571L70.5036 130.833Z" fill="#D3DCFB"/>
<path d="M136.307 47.1V91.0716V120.366H10.6967C4.91625 120.366 0.230469 115.68 0.230469 109.9V47.1L73.5022 20.9331L136.307 47.1Z" fill="#EBF5FC"/>
<path d="M18.7146 68.0335H13.1543C11.7996 68.0335 10.7012 66.9351 10.7012 65.5803V60.02C10.7012 58.6653 11.7996 57.5669 13.1543 57.5669H18.7146C20.0693 57.5669 21.1677 58.6653 21.1677 60.02V65.5803C21.1677 66.9351 20.0693 68.0335 18.7146 68.0335Z" fill="#44D5D0"/>
<path d="M39.6482 68.0335H34.0879C32.7332 68.0335 31.6348 66.9351 31.6348 65.5803V60.02C31.6348 58.6653 32.7332 57.5669 34.0879 57.5669H39.6482C41.0029 57.5669 42.1013 58.6653 42.1013 60.02V65.5803C42.1013 66.9351 41.0029 68.0335 39.6482 68.0335Z" fill="#44D5D0"/>
<path d="M60.5818 68.0335H55.0215C53.6667 68.0335 52.5684 66.9351 52.5684 65.5803V60.02C52.5684 58.6653 53.6667 57.5669 55.0215 57.5669H60.5818C61.9365 57.5669 63.0349 58.6653 63.0349 60.02V65.5803C63.0349 66.9351 61.9368 68.0335 60.5818 68.0335Z" fill="#44D5D0"/>
<path d="M81.5154 68.0335H75.9551C74.6003 68.0335 73.502 66.9351 73.502 65.5803V60.02C73.502 58.6653 74.6003 57.5669 75.9551 57.5669H81.5154C82.8701 57.5669 83.9685 58.6653 83.9685 60.02V65.5803C83.9685 66.9351 82.8701 68.0335 81.5154 68.0335Z" fill="#44D5D0"/>
<path d="M102.445 68.0335H96.8848C95.53 68.0335 94.4316 66.9351 94.4316 65.5803V60.02C94.4316 58.6653 95.53 57.5669 96.8848 57.5669H102.445C103.8 57.5669 104.898 58.6653 104.898 60.02V65.5803C104.898 66.9351 103.8 68.0335 102.445 68.0335Z" fill="#44D5D0"/>
<path d="M123.379 68.0335H117.818C116.464 68.0335 115.365 66.9351 115.365 65.5803V60.02C115.365 58.6653 116.464 57.5669 117.818 57.5669H123.379C124.733 57.5669 125.832 58.6653 125.832 60.02V65.5803C125.832 66.9351 124.733 68.0335 123.379 68.0335Z" fill="#44D5D0"/>
<path d="M18.7146 88.9666H13.1543C11.7996 88.9666 10.7012 87.8682 10.7012 86.5134V80.9531C10.7012 79.5984 11.7996 78.5 13.1543 78.5H18.7146C20.0693 78.5 21.1677 79.5984 21.1677 80.9531V86.5134C21.1677 87.8685 20.0693 88.9666 18.7146 88.9666Z" fill="#44D5D0"/>
<path d="M39.6482 88.9666H34.0879C32.7332 88.9666 31.6348 87.8682 31.6348 86.5134V80.9531C31.6348 79.5984 32.7332 78.5 34.0879 78.5H39.6482C41.0029 78.5 42.1013 79.5984 42.1013 80.9531V86.5134C42.1013 87.8685 41.0029 88.9666 39.6482 88.9666Z" fill="#44D5D0"/>
<path d="M60.5818 88.9666H55.0215C53.6667 88.9666 52.5684 87.8682 52.5684 86.5134V80.9531C52.5684 79.5984 53.6667 78.5 55.0215 78.5H60.5818C61.9365 78.5 63.0349 79.5984 63.0349 80.9531V86.5134C63.0349 87.8685 61.9368 88.9666 60.5818 88.9666Z" fill="#44D5D0"/>
<path d="M83.9685 88.9666V81.1166C83.9685 79.6714 82.7971 78.5 81.352 78.5H76.1185C74.6733 78.5 73.502 79.6714 73.502 81.1166V86.35C73.502 87.7952 74.6736 88.9666 76.1185 88.9666H83.9685Z" fill="#44D5D0"/>
<path d="M18.7146 109.9H13.1543C11.7996 109.9 10.7012 108.802 10.7012 107.447V101.887C10.7012 100.532 11.7996 99.4336 13.1543 99.4336H18.7146C20.0693 99.4336 21.1677 100.532 21.1677 101.887V107.447C21.1677 108.802 20.0693 109.9 18.7146 109.9Z" fill="#44D5D0"/>
<path d="M39.6482 109.9H34.0879C32.7332 109.9 31.6348 108.802 31.6348 107.447V101.887C31.6348 100.532 32.7332 99.4336 34.0879 99.4336H39.6482C41.0029 99.4336 42.1013 100.532 42.1013 101.887V107.447C42.1013 108.802 41.0029 109.9 39.6482 109.9Z" fill="#44D5D0"/>
<path d="M60.5818 109.9H55.0215C53.6667 109.9 52.5684 108.802 52.5684 107.447V101.887C52.5684 100.532 53.6667 99.4336 55.0215 99.4336H60.5818C61.9365 99.4336 63.0349 100.532 63.0349 101.887V107.447C63.0349 108.802 61.9368 109.9 60.5818 109.9Z" fill="#44D5D0"/>
<path d="M123.304 57.5664H117.892C117.564 57.5664 117.252 57.6308 116.965 57.7439C117.902 58.1138 118.565 59.0251 118.565 60.0934V65.5056C118.565 66.574 117.901 67.4853 116.965 67.8551C117.252 67.9686 117.564 68.033 117.892 68.033H123.304C124.7 68.033 125.831 66.9015 125.831 65.5059V60.0937C125.831 58.6979 124.699 57.5664 123.304 57.5664Z" fill="#26B4B0"/>
<path d="M102.37 57.5664H96.9579C96.6304 57.5664 96.3186 57.6308 96.0312 57.7439C96.968 58.1138 97.6316 59.0251 97.6316 60.0934V65.5056C97.6316 66.574 96.9677 67.4853 96.0312 67.8551C96.3186 67.9686 96.6304 68.033 96.9579 68.033H102.37C103.766 68.033 104.897 66.9015 104.897 65.5059V60.0937C104.897 58.6979 103.766 57.5664 102.37 57.5664Z" fill="#26B4B0"/>
<path d="M81.4404 57.5664H76.0282C75.7007 57.5664 75.3889 57.6308 75.1016 57.7439C76.0383 58.1138 76.7022 59.0251 76.7022 60.0934V65.5056C76.7022 66.574 76.0383 67.4853 75.1016 67.8551C75.3889 67.9686 75.7007 68.033 76.0282 68.033H81.4404C82.8363 68.033 83.9678 66.9015 83.9678 65.5059V60.0937C83.9675 58.6979 82.836 57.5664 81.4404 57.5664Z" fill="#26B4B0"/>
<path d="M60.5068 57.5664H55.0946C54.7671 57.5664 54.4553 57.6308 54.168 57.7439C55.1048 58.1138 55.7686 59.0251 55.7686 60.0934V65.5056C55.7686 66.574 55.1048 67.4853 54.168 67.8551C54.4553 67.9686 54.7671 68.033 55.0946 68.033H60.5068C61.9027 68.033 63.0342 66.9015 63.0342 65.5059V60.0937C63.0339 58.6979 61.9027 57.5664 60.5068 57.5664Z" fill="#26B4B0"/>
<path d="M39.5733 57.5664H34.161C33.8335 57.5664 33.5217 57.6308 33.2344 57.7439C34.1712 58.1138 34.8347 59.0251 34.8347 60.0934V65.5056C34.8347 66.574 34.1709 67.4853 33.2344 67.8551C33.5217 67.9686 33.8335 68.033 34.161 68.033H39.5733C40.9691 68.033 42.1006 66.9015 42.1006 65.5059V60.0937C42.1006 58.6979 40.9691 57.5664 39.5733 57.5664Z" fill="#26B4B0"/>
<path d="M18.6397 57.5664H13.2274C12.9 57.5664 12.5881 57.6308 12.3008 57.7439C13.2376 58.1138 13.9014 59.0251 13.9014 60.0934V65.5056C13.9014 66.574 13.2376 67.4853 12.3008 67.8551C12.5881 67.9686 12.9 68.033 13.2274 68.033H18.6397C20.0355 68.033 21.167 66.9015 21.167 65.5059V60.0937C21.1667 58.6979 20.0352 57.5664 18.6397 57.5664Z" fill="#26B4B0"/>
<path d="M18.6397 78.5H13.2274C12.9 78.5 12.5881 78.5644 12.3008 78.6775C13.2376 79.0474 13.9014 79.9587 13.9014 81.027V86.4395C13.9014 87.5079 13.2376 88.4192 12.3008 88.789C12.5881 88.9025 12.9 88.9669 13.2274 88.9669H18.6397C20.0355 88.9669 21.167 87.8354 21.167 86.4398V81.0273C21.1667 79.6315 20.0352 78.5 18.6397 78.5Z" fill="#26B4B0"/>
<path d="M18.6397 99.4336H13.2274C12.9 99.4336 12.5881 99.498 12.3008 99.6111C13.2376 99.981 13.9014 100.892 13.9014 101.961V107.373C13.9014 108.441 13.2376 109.353 12.3008 109.723C12.5881 109.836 12.9 109.9 13.2274 109.9H18.6397C20.0355 109.9 21.167 108.769 21.167 107.373V101.961C21.1667 100.565 20.0352 99.4336 18.6397 99.4336Z" fill="#26B4B0"/>
<path d="M39.5733 78.5H34.161C33.8335 78.5 33.5217 78.5644 33.2344 78.6775C34.1712 79.0474 34.8347 79.9587 34.8347 81.027V86.4395C34.8347 87.5079 34.1709 88.4192 33.2344 88.789C33.5217 88.9025 33.8335 88.9669 34.161 88.9669H39.5733C40.9691 88.9669 42.1006 87.8354 42.1006 86.4398V81.0273C42.1006 79.6315 40.9691 78.5 39.5733 78.5Z" fill="#26B4B0"/>
<path d="M39.5733 99.4336H34.161C33.8335 99.4336 33.5217 99.498 33.2344 99.6111C34.1712 99.981 34.8347 100.892 34.8347 101.961V107.373C34.8347 108.441 34.1709 109.353 33.2344 109.723C33.5217 109.836 33.8335 109.9 34.161 109.9H39.5733C40.9691 109.9 42.1006 108.769 42.1006 107.373V101.961C42.1006 100.565 40.9691 99.4336 39.5733 99.4336Z" fill="#26B4B0"/>
<path d="M60.5068 78.5H55.0946C54.7671 78.5 54.4553 78.5644 54.168 78.6775C55.1048 79.0474 55.7686 79.9587 55.7686 81.027V86.4395C55.7686 87.5079 55.1048 88.4192 54.168 88.789C54.4553 88.9025 54.7671 88.9669 55.0946 88.9669H60.5068C61.9027 88.9669 63.0342 87.8354 63.0342 86.4398V81.0273C63.0339 79.6315 61.9027 78.5 60.5068 78.5Z" fill="#26B4B0"/>
<path d="M83.9678 88.9666V81.027C83.9678 79.6312 82.8363 78.5 81.4404 78.5H76.0282C75.7007 78.5 75.3889 78.5644 75.1016 78.6775C76.0383 79.0474 76.7022 79.9587 76.7022 81.027V86.4395C76.7022 87.5079 76.0383 88.4192 75.1016 88.789C75.3889 88.9025 75.7007 88.9669 76.0282 88.9669H83.9678V88.9666Z" fill="#26B4B0"/>
<path d="M60.5068 99.4336H55.0946C54.7671 99.4336 54.4553 99.498 54.168 99.6111C55.1048 99.981 55.7686 100.892 55.7686 101.961V107.373C55.7686 108.441 55.1048 109.353 54.168 109.723C54.4553 109.836 54.7671 109.9 55.0946 109.9H60.5068C61.9027 109.9 63.0342 108.769 63.0342 107.373V101.961C63.0339 100.565 61.9027 99.4336 60.5068 99.4336Z" fill="#26B4B0"/>
<path d="M129.037 44.0708V91.0718V120.367H136.308V91.0718V47.1001L129.037 44.0708Z" fill="#D3DCFB"/>
<path d="M136.307 47.0999V20.9331C136.307 15.1526 131.621 10.4668 125.841 10.4668H10.6967C4.91625 10.4668 0.230469 15.1526 0.230469 20.9331V47.0999H136.307Z" fill="#FF4155"/>
<path d="M33.2091 23.3027H26.3964C25.0877 23.3027 24.0273 22.242 24.0273 20.9336C24.0273 19.6251 25.088 18.5645 26.3964 18.5645H33.2091C34.5178 18.5645 35.5782 19.6251 35.5782 20.9336C35.5782 22.242 34.5175 23.3027 33.2091 23.3027Z" fill="#E80054"/>
<path d="M49.9454 23.3027H43.1328C41.824 23.3027 40.7637 22.242 40.7637 20.9336C40.7637 19.6251 41.8243 18.5645 43.1328 18.5645H49.9454C51.2542 18.5645 52.3145 19.6251 52.3145 20.9336C52.3145 22.242 51.2542 23.3027 49.9454 23.3027Z" fill="#E80054"/>
<path d="M93.3949 23.3027H86.582C85.2733 23.3027 84.2129 22.242 84.2129 20.9336C84.2129 19.6251 85.2736 18.5645 86.582 18.5645H93.3949C94.7037 18.5645 95.764 19.6251 95.764 20.9336C95.764 22.242 94.7037 23.3027 93.3949 23.3027Z" fill="#E80054"/>
<path d="M110.133 23.3027H103.32C102.012 23.3027 100.951 22.242 100.951 20.9336C100.951 19.6251 102.012 18.5645 103.32 18.5645H110.133C111.442 18.5645 112.502 19.6251 112.502 20.9336C112.502 22.242 111.442 23.3027 110.133 23.3027Z" fill="#E80054"/>
<path d="M44.714 19.625C44.714 23.2378 41.7853 26.1666 38.1724 26.1666C34.5596 26.1666 31.6309 23.2378 31.6309 19.625V6.54156C31.6306 2.92872 34.5593 0 38.1721 0C41.785 0 44.7137 2.92872 44.7137 6.54156V19.625H44.714Z" fill="#EBF5FC"/>
<path d="M104.9 19.625C104.9 23.2378 101.971 26.1666 98.3583 26.1666C94.7454 26.1666 91.8164 23.2378 91.8164 19.625V6.54156C91.8164 2.92872 94.7451 0 98.358 0C101.971 0 104.9 2.92872 104.9 6.54156V19.625H104.9Z" fill="#EBF5FC"/>
<path d="M98.3579 0C97.0148 0 95.7674 0.405992 94.7285 1.10023C96.484 2.27343 97.641 4.27181 97.641 6.54187V19.625C97.641 21.8948 96.484 23.8934 94.7285 25.0666C95.7671 25.7606 97.0148 26.1669 98.3579 26.1669C101.971 26.1669 104.899 23.2381 104.899 19.6253V6.54156C104.9 2.92872 101.971 0 98.3579 0V0Z" fill="#D3DCFB"/>
<path d="M38.1724 0C36.8293 0 35.5819 0.405992 34.543 1.10023C36.2985 2.27343 37.4554 4.27181 37.4554 6.54187V19.625C37.4554 21.8948 36.2985 23.8934 34.543 25.0666C35.5816 25.7606 36.8293 26.1669 38.1724 26.1669C41.7852 26.1669 44.7139 23.2381 44.7139 19.6253V6.54156C44.7142 2.92872 41.7855 0 38.1724 0V0Z" fill="#D3DCFB"/>
<path d="M125.753 10.584H118.484C124.265 10.584 128.951 15.2698 128.951 21.0502V47.2174H136.219V21.0505C136.219 15.2701 131.533 10.584 125.753 10.584Z" fill="#E80054"/>
<path d="M0.230469 34.2637H136.307V39.0022H0.230469V34.2637Z" fill="#E80054"/>
<path d="M107.52 157C129.197 157 146.77 139.427 146.77 117.75C146.77 96.0728 129.197 78.5 107.52 78.5C85.8424 78.5 68.2695 96.0728 68.2695 117.75C68.2695 139.427 85.8424 157 107.52 157Z" fill="#26B4B0"/>
<path d="M107.52 146.534C123.416 146.534 136.303 133.647 136.303 117.75C136.303 101.854 123.416 88.9668 107.52 88.9668C91.6231 88.9668 78.7363 101.854 78.7363 117.75C78.7363 133.647 91.6231 146.534 107.52 146.534Z" fill="#EBF5FC"/>
<path d="M107.519 114.886C106.211 114.886 105.15 113.825 105.15 112.517V99.4331C105.15 98.1246 106.211 97.064 107.519 97.064C108.828 97.064 109.889 98.1246 109.889 99.4331V112.517C109.889 113.825 108.828 114.886 107.519 114.886Z" fill="#26B4B0"/>
<path d="M120.602 120.119H112.752C111.443 120.119 110.383 119.058 110.383 117.75C110.383 116.442 111.443 115.381 112.752 115.381H120.602C121.911 115.381 122.971 116.442 122.971 117.75C122.971 119.058 121.911 120.119 120.602 120.119Z" fill="#26B4B0"/>
<path d="M107.52 78.5C106.295 78.5 105.084 78.5592 103.887 78.669C123.861 80.5024 139.504 97.298 139.504 117.75C139.504 138.202 123.86 154.998 103.887 156.831C105.083 156.941 106.294 157 107.519 157C129.197 157 146.77 139.427 146.77 117.75C146.77 96.073 129.197 78.5 107.52 78.5Z" fill="#049A96"/>
<path d="M107.519 88.9668C106.289 88.9668 105.078 89.0444 103.889 89.194C118.071 90.979 129.042 103.083 129.042 117.75C129.042 132.417 118.071 144.522 103.889 146.306C105.078 146.456 106.289 146.534 107.519 146.534C123.416 146.534 136.302 133.647 136.302 117.75C136.302 101.854 123.416 88.9668 107.519 88.9668Z" fill="#D3DCFB"/>
<path d="M107.519 122.983C110.409 122.983 112.752 120.64 112.752 117.75C112.752 114.86 110.409 112.517 107.519 112.517C104.628 112.517 102.285 114.86 102.285 117.75C102.285 120.64 104.628 122.983 107.519 122.983Z" fill="#FF4155"/>
</svg>
