<svg width="98" height="84" viewBox="0 0 98 84" fill="none" xmlns="http://www.w3.org/2000/svg">
<path d="M62.368 24.872L62.454 24.931C59.9074 18.9377 56.3379 13.4331 51.905 8.66299L49.105 5.5L46.105 8.66299C41.4105 13.733 37.678 19.6153 35.09 26.022C30.5396 37.7589 28.4299 50.3003 28.89 62.88C32.8877 50.1778 38.0942 37.8883 44.438 26.18C44.562 46.08 46.168 67.156 48.878 83.157C51.588 67.168 53.191 46.107 53.318 26.22C59.6012 37.9432 64.8046 50.2138 68.864 62.88C69.6148 49.8813 67.3918 36.8825 62.364 24.872" fill="white"/>
<path d="M28.191 3.06552C21.6088 4.62235 15.2088 6.86805 9.09702 9.7655C7.53768 10.5162 5.99835 11.3095 4.47902 12.1455C3.71569 12.5662 2.95801 12.9968 2.20601 13.4375C1.82801 13.6595 1.45201 13.8815 1.07701 14.1095C0.760684 14.3649 0.412423 14.5781 0.0410156 14.7435C9.35337 12.5634 18.8317 11.1659 28.377 10.5655C28.377 10.5655 25.24 14.9585 22.856 23.8595C21.518 28.8425 21.697 36.0175 22.856 42.3905C24.7239 34.4652 27.594 26.8102 31.397 19.6105C35.0127 12.5301 39.843 6.13912 45.668 0.728516C39.7768 0.89787 33.9193 1.68212 28.191 3.06851" fill="white"/>
<path d="M69.1899 2.39078C75.7722 3.94724 82.1722 6.19297 88.2839 9.09078C89.8432 9.84145 91.3826 10.6348 92.9019 11.4708C93.6666 11.8914 94.4246 12.3221 95.1759 12.7628C95.5529 12.9848 95.9299 13.2068 96.3039 13.4348C96.62 13.69 96.9679 13.9031 97.3389 14.0688C88.028 11.8876 78.5509 10.4887 69.0069 9.88678C69.0069 9.88678 72.1399 14.2798 74.5269 23.1808C75.8639 28.1638 75.6829 35.3388 74.5269 41.7118C72.6584 33.7867 69.7883 26.1318 65.9859 18.9318C62.3698 11.8514 57.5388 5.46071 51.7129 0.0507812C57.6041 0.220157 63.4616 1.00441 69.1899 2.39078Z" fill="white"/>
</svg>
