<svg width="498" height="448" viewBox="0 0 498 448" fill="none" xmlns="http://www.w3.org/2000/svg">
<g opacity="0.2">
<path d="M319.033 140.388L319.473 140.721C307.917 111.525 290.622 77.7496 265.479 48.7075H265.491L251.161 30.8184L235.812 48.7006H235.823C208.888 79.8339 190.968 116.366 179.445 146.885C156.497 211.647 145.525 282.421 147.7 355.357C165.481 291.062 192.444 219.702 227.281 147.782C227.917 260.345 236.136 379.548 250.009 470.043C263.88 379.615 272.081 260.495 272.737 148.013C304.222 213.368 331.756 283.504 352.306 355.364C356.148 281.842 344.769 208.32 319.033 140.388Z" fill="white"/>
<path d="M144.079 17.0496C110.499 26.0552 77.4806 38.3534 46.3482 54.9244C38.3671 59.1707 30.4883 63.6582 22.7119 68.3869C18.8054 70.7668 14.9275 73.2034 11.0782 75.6968C9.14489 76.9504 7.21775 78.2108 5.3018 79.496C3.81078 80.4942 1.69851 82.6539 0 83.0837C46.7644 71.1494 88.4669 63.871 145.033 59.4512C145.033 59.4512 128.979 84.303 116.773 134.645C109.926 162.83 110.84 203.41 116.773 239.456C116.773 239.456 128.238 178.001 160.487 110.61C178.115 73.7527 201.949 35.1158 233.533 3.81641C203.379 4.77336 173.398 9.20801 144.078 17.0482" fill="#D3B98C"/>
<path d="M353.923 13.2318C387.508 22.243 420.528 34.5356 451.653 51.1066C459.634 55.3529 467.513 59.8404 475.289 64.5691C479.202 66.949 483.081 69.3857 486.928 71.8791C488.855 73.1326 490.788 74.3931 492.704 75.6782C494.203 76.6764 496.308 78.8362 498 79.2659C451.237 67.333 409.531 60.0546 352.985 55.6348C352.985 55.6348 369.022 80.4865 381.241 130.828C388.082 159.014 387.157 199.593 381.241 235.639C381.241 235.639 369.77 174.184 337.527 106.794C319.897 69.9362 296.058 31.3049 264.469 0C294.623 0.956894 324.603 5.39156 353.923 13.2318Z" fill="#A0A9AD"/>
</g>
</svg>
