<svg width="216" height="125" viewBox="0 0 216 125" fill="none" xmlns="http://www.w3.org/2000/svg">
<circle opacity="0.2" cx="107.5" cy="62.5" r="62.5" fill="#34D8DA"/>
<circle cx="28.5" cy="72.5" r="2.5" fill="#D4F5F5"/>
<circle cx="12.5" cy="64.5" r="4.5" fill="#D4F5F5"/>
<circle cx="22.5" cy="50.5" r="3.5" fill="#D4F5F5"/>
<circle cx="6" cy="43" r="6" fill="#D4F5F5"/>
<circle r="2.5" transform="matrix(-1 0 0 1 187.5 72.5)" fill="#D4F5F5"/>
<circle r="4.5" transform="matrix(-1 0 0 1 203.5 64.5)" fill="#D4F5F5"/>
<circle r="3.5" transform="matrix(-1 0 0 1 193.5 50.5)" fill="#D4F5F5"/>
<circle r="6" transform="matrix(-1 0 0 1 210 43)" fill="#D4F5F5"/>
<path d="M136.875 23.6406H124.75C124.348 23.6406 123.963 23.8003 123.678 24.0845C123.394 24.3688 123.234 24.7543 123.234 25.1562V32.7344H92.9219V25.1562C92.9219 24.7543 92.7622 24.3688 92.478 24.0845C92.1937 23.8003 91.8082 23.6406 91.4062 23.6406H79.2812C78.4773 23.6406 77.7063 23.96 77.1378 24.5285C76.5694 25.0969 76.25 25.8679 76.25 26.6719V99.4219C76.25 100.226 76.5694 100.997 77.1378 101.565C77.7063 102.134 78.4773 102.453 79.2812 102.453H136.875C137.679 102.453 138.45 102.134 139.018 101.565C139.587 100.997 139.906 100.226 139.906 99.4219V26.6719C139.906 25.8679 139.587 25.0969 139.018 24.5285C138.45 23.96 137.679 23.6406 136.875 23.6406Z" fill="#DCDCDC"/>
<path d="M132.328 29.7031H124.75C124.348 29.7031 123.963 29.8628 123.678 30.147C123.394 30.4313 123.234 30.8168 123.234 31.2188V32.7344H92.9219V31.2188C92.9219 30.8168 92.7622 30.4313 92.478 30.147C92.1937 29.8628 91.8082 29.7031 91.4062 29.7031H83.8281C83.4262 29.7031 83.0406 29.8628 82.7564 30.147C82.4722 30.4313 82.3125 30.8168 82.3125 31.2188V94.875C82.3125 95.277 82.4722 95.6625 82.7564 95.9467C83.0406 96.2309 83.4262 96.3906 83.8281 96.3906H132.328C132.73 96.3906 133.116 96.2309 133.4 95.9467C133.684 95.6625 133.844 95.277 133.844 94.875V31.2188C133.844 30.8168 133.684 30.4313 133.4 30.147C133.116 29.8628 132.73 29.7031 132.328 29.7031Z" fill="#F1F1F1"/>
<path d="M121.719 20.6095H118.688C118.486 20.6098 118.286 20.5688 118.1 20.4891C117.914 20.4093 117.747 20.2925 117.608 20.1457C117.468 20.0089 117.358 19.8452 117.283 19.6644C117.208 19.4837 117.17 19.2896 117.172 19.0939C117.172 17.888 116.693 16.7315 115.84 15.8788C114.987 15.0261 113.831 14.547 112.625 14.547H103.531C102.937 14.5422 102.348 14.657 101.799 14.8846C101.25 15.1121 100.753 15.4478 100.336 15.8717C99.9058 16.2902 99.5641 16.7913 99.3318 17.3449C99.0995 17.8986 98.9813 18.4935 98.9844 19.0939C98.9844 19.4959 98.8247 19.8814 98.5405 20.1656C98.2562 20.4498 97.8707 20.6095 97.4688 20.6095H94.4375C93.2316 20.6095 92.0751 21.0886 91.2224 21.9413C90.3697 22.794 89.8906 23.9505 89.8906 25.1564V32.7345C89.8906 33.5385 90.21 34.3095 90.7785 34.8779C91.3469 35.4464 92.1179 35.7658 92.9219 35.7658H123.234C124.038 35.7658 124.809 35.4464 125.378 34.8779C125.946 34.3095 126.266 33.5385 126.266 32.7345V25.1564C126.266 23.9505 125.787 22.794 124.934 21.9413C124.081 21.0886 122.925 20.6095 121.719 20.6095Z" fill="#34D8DA"/>
<path d="M109.594 23.6406H106.562C106.161 23.6406 105.775 23.4809 105.491 23.1967C105.207 22.9125 105.047 22.527 105.047 22.125C105.047 21.723 105.207 21.3375 105.491 21.0533C105.775 20.7691 106.161 20.6094 106.562 20.6094H109.594C109.996 20.6094 110.381 20.7691 110.665 21.0533C110.95 21.3375 111.109 21.723 111.109 22.125C111.109 22.527 110.95 22.9125 110.665 23.1967C110.381 23.4809 109.996 23.6406 109.594 23.6406Z" fill="#019B9D"/>
<path d="M118.688 47.8906H97.4688C97.0668 47.8906 96.6813 47.7309 96.397 47.4467C96.1128 47.1625 95.9531 46.777 95.9531 46.375C95.9531 45.973 96.1128 45.5875 96.397 45.3033C96.6813 45.0191 97.0668 44.8594 97.4688 44.8594H118.688C119.089 44.8594 119.475 45.0191 119.759 45.3033C120.043 45.5875 120.203 45.973 120.203 46.375C120.203 46.777 120.043 47.1625 119.759 47.4467C119.475 47.7309 119.089 47.8906 118.688 47.8906Z" fill="#0F4880"/>
<path d="M123.234 56.9844H92.9219C92.5199 56.9844 92.1344 56.8247 91.8502 56.5405C91.5659 56.2562 91.4062 55.8707 91.4062 55.4688C91.4062 55.0668 91.5659 54.6813 91.8502 54.397C92.1344 54.1128 92.5199 53.9531 92.9219 53.9531H123.234C123.636 53.9531 124.022 54.1128 124.306 54.397C124.59 54.6813 124.75 55.0668 124.75 55.4688C124.75 55.8707 124.59 56.2562 124.306 56.5405C124.022 56.8247 123.636 56.9844 123.234 56.9844Z" fill="#0F4880"/>
<path d="M123.234 66.0781H98.9844C98.5824 66.0781 98.1969 65.9184 97.9127 65.6342C97.6284 65.35 97.4688 64.9645 97.4688 64.5625C97.4688 64.1605 97.6284 63.775 97.9127 63.4908C98.1969 63.2066 98.5824 63.0469 98.9844 63.0469H123.234C123.636 63.0469 124.022 63.2066 124.306 63.4908C124.59 63.775 124.75 64.1605 124.75 64.5625C124.75 64.9645 124.59 65.35 124.306 65.6342C124.022 65.9184 123.636 66.0781 123.234 66.0781Z" fill="#0F4880"/>
<path d="M123.234 75.1719H100.5C100.098 75.1719 99.7125 75.0122 99.4283 74.728C99.1441 74.4437 98.9844 74.0582 98.9844 73.6562C98.9844 73.2543 99.1441 72.8688 99.4283 72.5845C99.7125 72.3003 100.098 72.1406 100.5 72.1406H123.234C123.636 72.1406 124.022 72.3003 124.306 72.5845C124.59 72.8688 124.75 73.2543 124.75 73.6562C124.75 74.0582 124.59 74.4437 124.306 74.728C124.022 75.0122 123.636 75.1719 123.234 75.1719Z" fill="#0F4880"/>
<path d="M123.234 84.2656H98.9844C98.5824 84.2656 98.1969 84.1059 97.9127 83.8217C97.6284 83.5375 97.4688 83.152 97.4688 82.75C97.4688 82.348 97.6284 81.9625 97.9127 81.6783C98.1969 81.3941 98.5824 81.2344 98.9844 81.2344H123.234C123.636 81.2344 124.022 81.3941 124.306 81.6783C124.59 81.9625 124.75 82.348 124.75 82.75C124.75 83.152 124.59 83.5375 124.306 83.8217C124.022 84.1059 123.636 84.2656 123.234 84.2656Z" fill="#0F4880"/>
<path d="M84.442 58.3879C82.3396 57.4569 80.0649 56.9787 77.7656 56.9844C73.344 56.9844 69.1034 58.7409 65.9768 61.8675C62.8502 64.9941 61.0938 69.2346 61.0938 73.6563C61.0938 78.078 62.8502 82.3185 65.9768 85.4451C69.1034 88.5717 73.344 90.3282 77.7656 90.3282C80.062 90.334 82.3339 89.8574 84.4344 88.9292C87.4067 87.6338 89.9364 85.4992 91.7134 82.7871C93.4903 80.0751 94.4373 76.9034 94.4381 73.6611C94.4389 70.4187 93.4935 67.2466 91.7179 64.5336C89.9423 61.8207 87.4136 59.6848 84.442 58.3879V58.3879Z" fill="#78BCFF"/>
<path d="M76.2509 79.7188C75.849 79.7187 75.4635 79.559 75.1794 79.2747L70.6325 74.7279C70.3564 74.442 70.2036 74.0591 70.2071 73.6618C70.2105 73.2644 70.3699 72.8842 70.6509 72.6032C70.932 72.3222 71.3121 72.1628 71.7095 72.1594C72.1069 72.1559 72.4897 72.3087 72.7756 72.5848L76.1494 75.9585L82.6665 68.1379C82.9242 67.8292 83.294 67.6355 83.6944 67.5994C84.0949 67.5633 84.4934 67.6878 84.8021 67.9454C85.1108 68.2031 85.3045 68.5728 85.3406 68.9733C85.3767 69.3738 85.2522 69.7722 84.9945 70.0809L77.4164 79.1747C77.2815 79.3363 77.1143 79.468 76.9257 79.5614C76.737 79.6548 76.5309 79.7079 76.3206 79.7173L76.2509 79.7188Z" fill="#166CBF"/>
</svg>
