<svg width="60" height="61" viewBox="0 0 60 61" fill="none" xmlns="http://www.w3.org/2000/svg">
<path d="M30 59.8606C4.03126 59.8606 0.901882 37.0566 0.937507 31.3556V29.4552C0.901882 23.7542 4.03126 0.950169 30 0.950169C55.9687 0.950169 59.0981 23.7542 59.0625 29.4552V31.3556C59.0981 37.0566 55.9687 59.8606 30 59.8606Z" fill="url(#paint0_linear_2_64)"/>
<path d="M46.875 18.0532C46.875 18.0532 45.7884 18.2366 44.2912 18.6034C45.6928 17.733 46.875 17.103 46.875 17.103C46.875 17.103 35.625 19.0034 35.625 22.8041C35.6273 22.9646 35.6497 23.1243 35.6916 23.2791C35.6497 23.434 35.6273 23.5936 35.625 23.7542C35.625 27.5549 46.875 29.4552 46.875 29.4552C46.875 29.4552 45.6928 28.8253 44.2912 27.9549C45.7884 28.3217 46.875 28.5051 46.875 28.5051C46.875 28.5051 40.7925 25.2745 39.8503 23.2791C40.7925 21.2838 46.875 18.0532 46.875 18.0532Z" fill="#F99C06"/>
<path d="M13.125 17.103C13.125 17.103 14.3072 17.733 15.7088 18.6034C14.2116 18.2366 13.125 18.0532 13.125 18.0532C13.125 18.0532 19.2075 21.2838 20.1497 23.2791C19.2075 25.2745 13.125 28.5051 13.125 28.5051C13.125 28.5051 14.2116 28.3217 15.7088 27.9549C14.3072 28.8253 13.125 29.4552 13.125 29.4552C13.125 29.4552 24.375 27.5549 24.375 23.7542C24.3727 23.5936 24.3503 23.434 24.3084 23.2791C24.3503 23.1243 24.3727 22.9646 24.375 22.8041C24.375 19.0034 13.125 17.103 13.125 17.103Z" fill="#F99C06"/>
<path d="M46.875 17.103C46.875 17.103 35.625 19.0034 35.625 22.8041C35.625 26.6047 46.875 28.5051 46.875 28.5051C46.875 28.5051 39.7162 24.7044 39.7162 22.8041C39.7162 20.9037 46.875 17.103 46.875 17.103Z" fill="#472301"/>
<path d="M13.125 17.103C13.125 17.103 24.375 19.0034 24.375 22.8041C24.375 26.6047 13.125 28.5051 13.125 28.5051C13.125 28.5051 20.2838 24.7044 20.2838 22.8041C20.2838 20.9037 13.125 17.103 13.125 17.103Z" fill="#472301"/>
<path d="M47.8125 12.336C47.8109 12.0873 47.7137 11.849 47.5417 11.6717C47.3697 11.4943 47.1363 11.3918 46.8909 11.3859C39.9872 11.1445 36.9778 8.21801 35.955 6.87732C35.824 6.69823 35.635 6.57155 35.4211 6.51944C35.2072 6.46733 34.982 6.49311 34.785 6.59227C34.6715 6.65057 34.5712 6.73206 34.4903 6.83161C34.4094 6.93116 34.3497 7.0466 34.315 7.17067C34.2803 7.29475 34.2713 7.42476 34.2886 7.55252C34.306 7.68028 34.3492 7.80302 34.4156 7.91301C34.317 8.07214 34.2686 8.25797 34.2768 8.44572C34.285 8.63347 34.3494 8.81422 34.4616 8.96389C35.7441 10.6409 39.2353 13.9732 46.8581 14.2316C46.9827 14.2339 47.1064 14.211 47.2221 14.1643C47.3378 14.1175 47.4431 14.0479 47.532 13.9595C47.6208 13.871 47.6914 13.7655 47.7396 13.6491C47.7877 13.5327 47.8125 13.4077 47.8125 13.2815C47.8088 13.1126 47.7588 12.9481 47.6681 12.8064C47.757 12.6655 47.8068 12.5031 47.8125 12.336V12.336Z" fill="#F99C06"/>
<path d="M25.2188 6.59702C25.0217 6.49786 24.7966 6.47208 24.5827 6.52419C24.3688 6.5763 24.1798 6.70298 24.0488 6.88207C23.0259 8.22276 20.0175 11.1493 13.1128 11.3906C12.8675 11.3965 12.6341 11.4991 12.462 11.6764C12.29 11.8538 12.1929 12.0921 12.1913 12.3408C12.1961 12.5095 12.246 12.6737 12.3356 12.8159C12.245 12.9576 12.195 13.1221 12.1913 13.291C12.1912 13.4172 12.216 13.5422 12.2642 13.6586C12.3124 13.775 12.3829 13.8805 12.4718 13.969C12.5606 14.0574 12.666 14.127 12.7817 14.1738C12.8974 14.2205 13.0211 14.2434 13.1456 14.2411C20.7684 13.9827 24.2597 10.6504 25.5422 8.97339C25.6543 8.82372 25.7188 8.64297 25.727 8.45522C25.7352 8.26747 25.6868 8.08164 25.5881 7.92251C25.6553 7.81234 25.6992 7.68921 25.717 7.56093C25.7347 7.43266 25.7259 7.30205 25.6912 7.17739C25.6565 7.05274 25.5965 6.93678 25.5152 6.83686C25.4339 6.73695 25.3329 6.65527 25.2188 6.59702V6.59702Z" fill="#F99C06"/>
<path d="M47.8125 12.336C47.8125 12.4624 47.7877 12.5874 47.7395 12.7039C47.6913 12.8203 47.6206 12.9259 47.5317 13.0144C47.4427 13.1028 47.3372 13.1725 47.2214 13.2191C47.1056 13.2658 46.9818 13.2886 46.8572 13.2862C39.2353 13.0278 35.7441 9.69552 34.4616 8.01848C34.378 7.9075 34.3195 7.7792 34.2904 7.64273C34.2613 7.50625 34.2622 7.36495 34.2931 7.22887C34.3239 7.09279 34.384 6.96528 34.4691 6.85541C34.5541 6.74555 34.662 6.65603 34.785 6.59322C34.982 6.49406 35.2072 6.46828 35.4211 6.52039C35.635 6.5725 35.824 6.69918 35.955 6.87827C36.9778 8.21896 39.9863 11.1455 46.8909 11.3868C47.1363 11.3927 47.3697 11.4953 47.5417 11.6726C47.7138 11.85 47.8109 12.0883 47.8125 12.337V12.336Z" fill="url(#paint1_radial_2_64)"/>
<path d="M12.1875 12.336C12.1892 12.0873 12.2863 11.849 12.4583 11.6717C12.6303 11.4943 12.8637 11.3918 13.1091 11.3859C20.0128 11.1445 23.0222 8.21801 24.045 6.87732C24.176 6.69823 24.365 6.57155 24.5789 6.51944C24.7928 6.46733 25.018 6.49311 25.215 6.59227C25.3381 6.65508 25.4459 6.7446 25.531 6.85446C25.616 6.96433 25.6761 7.09184 25.707 7.22792C25.7379 7.364 25.7388 7.5053 25.7096 7.64178C25.6805 7.77825 25.6221 7.90655 25.5385 8.01752C24.256 9.69457 20.7647 13.0268 13.1428 13.2853C13.0183 13.2877 12.8946 13.2649 12.7788 13.2183C12.6631 13.1717 12.5576 13.1021 12.4687 13.0138C12.3798 12.9254 12.3091 12.8199 12.2608 12.7036C12.2125 12.5872 12.1876 12.4623 12.1875 12.336V12.336Z" fill="url(#paint2_radial_2_64)"/>
<path d="M45.9375 43.7078C45.7874 40.8692 44.6861 38.1676 42.8156 36.0494C40.5656 33.5315 36.6844 31.3556 30 31.3556C23.3156 31.3556 19.4344 33.5315 17.1844 36.0494C16.7666 36.5109 16.3871 37.0067 16.05 37.5317C14.8604 39.376 14.1746 41.5072 14.0625 43.7078C14.0666 43.8313 14.0788 43.9545 14.0991 44.0764C14.0625 44.4432 14.0625 44.6579 14.0625 44.6579C14.0625 45.4139 14.3588 46.139 14.8863 46.6736C15.4137 47.2081 16.1291 47.5085 16.875 47.5085H17.325C17.6283 47.5097 17.9295 47.4583 18.2156 47.3564C19.3293 46.9778 20.4661 46.6731 21.6188 46.4443V46.4348C27.1534 45.3326 32.8467 45.3326 38.3813 46.4348V46.4443C39.534 46.6731 40.6708 46.9778 41.7844 47.3564C42.0705 47.4583 42.3718 47.5097 42.675 47.5085H43.125C43.8709 47.5085 44.5863 47.2081 45.1138 46.6736C45.6412 46.139 45.9375 45.4139 45.9375 44.6579C45.9375 44.6579 45.9375 44.4404 45.901 44.0764C45.9208 43.9545 45.933 43.8313 45.9375 43.7078V43.7078Z" fill="#F99406"/>
<path d="M45.9375 44.6579C45.7874 41.8194 44.6861 39.1178 42.8156 36.9996C40.5656 34.4816 36.6844 32.3057 30 32.3057C23.3156 32.3057 19.4344 34.4816 17.1844 36.9996C16.7666 37.4611 16.3871 37.9569 16.05 38.4818C14.8604 40.3262 14.1746 42.4573 14.0625 44.6579C14.0666 44.7815 14.0788 44.9047 14.0991 45.0266C14.0625 45.3934 14.0625 45.6081 14.0625 45.6081C14.0625 46.3641 14.3588 47.0892 14.8863 47.6237C15.4137 48.1583 16.1291 48.4586 16.875 48.4586H17.325C17.6283 48.4599 17.9295 48.4085 18.2156 48.3066C19.3293 47.928 20.4661 47.6233 21.6188 47.3944V47.3849C27.1534 46.2827 32.8467 46.2827 38.3813 47.3849V47.3944C39.534 47.6233 40.6708 47.928 41.7844 48.3066C42.0705 48.4085 42.3718 48.4599 42.675 48.4586H43.125C43.8709 48.4586 44.5863 48.1583 45.1138 47.6237C45.6412 47.0892 45.9375 46.3641 45.9375 45.6081C45.9375 45.6081 45.9375 45.3905 45.901 45.0266C45.9208 44.9046 45.933 44.7815 45.9375 44.6579V44.6579Z" fill="#F9BF06"/>
<path d="M42.8156 36.9996C38.5751 36.3466 34.2888 36.0479 30 36.1064C25.7112 36.0479 21.4249 36.3466 17.1844 36.9996C19.4344 34.4816 23.3156 32.3057 30 32.3057C36.6844 32.3057 40.5656 34.4816 42.8156 36.9996Z" fill="url(#paint3_linear_2_64)"/>
<path d="M38.3813 46.4348C32.8467 45.3326 27.1533 45.3326 21.6188 46.4348C21.975 45.6841 24.075 41.8074 30 41.8074C35.925 41.8074 38.025 45.6841 38.3813 46.4348Z" fill="#8F030E"/>
<path d="M45.9375 44.6579C45.9375 45.4139 45.6412 46.139 45.1138 46.6736C44.5863 47.2081 43.8709 47.5084 43.125 47.5084H42.675C42.3718 47.5097 42.0705 47.4583 41.7844 47.3564C40.6708 46.9778 39.534 46.6731 38.3813 46.4443V46.4348C38.025 45.6841 35.925 41.8074 30 41.8074C24.075 41.8074 21.975 45.6841 21.6188 46.4348V46.4443C20.4661 46.6731 19.3293 46.9778 18.2156 47.3564C17.9295 47.4583 17.6283 47.5097 17.325 47.5084H16.875C16.1291 47.5084 15.4137 47.2081 14.8863 46.6736C14.3588 46.139 14.0625 45.4139 14.0625 44.6579C14.1746 42.4573 14.8604 40.3262 16.05 38.4818C16.3871 37.9569 16.7666 37.4611 17.1844 36.9996C21.4249 36.3466 25.7112 36.0479 30 36.1064C34.2888 36.0479 38.5751 36.3466 42.8156 36.9996C44.6861 39.1178 45.7874 41.8194 45.9375 44.6579V44.6579Z" fill="url(#paint4_linear_2_64)"/>
<path d="M42.8156 36.9996C38.5751 36.3466 34.2888 36.0479 30 36.1064C25.7112 36.0479 21.4249 36.3466 17.1844 36.9996C19.4344 34.4816 23.3156 32.3057 30 32.3057C36.6844 32.3057 40.5656 34.4816 42.8156 36.9996Z" fill="url(#paint5_linear_2_64)"/>
<defs>
<linearGradient id="paint0_linear_2_64" x1="30" y1="1.23902" x2="30" y2="60.1495" gradientUnits="userSpaceOnUse">
<stop stop-color="#FFE100"/>
<stop offset="1" stop-color="#F98900"/>
</linearGradient>
<radialGradient id="paint1_radial_2_64" cx="0" cy="0" r="1" gradientUnits="userSpaceOnUse" gradientTransform="translate(41.04 9.89221) scale(5.34281 5.41501)">
<stop offset="0.005" stop-color="#414D4D"/>
<stop offset="0.206" stop-color="#3A4545"/>
<stop offset="0.522" stop-color="#272E2E"/>
<stop offset="0.914" stop-color="#080909"/>
<stop offset="1"/>
</radialGradient>
<radialGradient id="paint2_radial_2_64" cx="0" cy="0" r="1" gradientUnits="userSpaceOnUse" gradientTransform="translate(18.96 9.89221) scale(5.34281 5.41501)">
<stop offset="0.005" stop-color="#414D4D"/>
<stop offset="0.206" stop-color="#3A4545"/>
<stop offset="0.522" stop-color="#272E2E"/>
<stop offset="0.914" stop-color="#080909"/>
<stop offset="1"/>
</radialGradient>
<linearGradient id="paint3_linear_2_64" x1="17.1844" y1="34.6527" x2="42.8156" y2="34.6527" gradientUnits="userSpaceOnUse">
<stop stop-color="#B8B4B2"/>
<stop offset="0.143" stop-color="#D0CCC9"/>
<stop offset="0.374" stop-color="#F2EDEA"/>
<stop offset="0.5" stop-color="#FFFAF6"/>
<stop offset="0.638" stop-color="#F9F5F1"/>
<stop offset="0.825" stop-color="#E8E5E3"/>
<stop offset="1" stop-color="#D1D1D1"/>
</linearGradient>
<linearGradient id="paint4_linear_2_64" x1="30" y1="44.694" x2="30" y2="33.4393" gradientUnits="userSpaceOnUse">
<stop stop-color="#69101B"/>
<stop offset="0.427" stop-color="#400A10"/>
</linearGradient>
<linearGradient id="paint5_linear_2_64" x1="30.0731" y1="32.4853" x2="30.0192" y2="35.7463" gradientUnits="userSpaceOnUse">
<stop stop-color="#ABABAB" stop-opacity="0.5"/>
<stop offset="0.541" stop-color="#C1C1C1" stop-opacity="0.216"/>
<stop offset="1" stop-color="#D1D1D1" stop-opacity="0"/>
</linearGradient>
</defs>
</svg>
