<svg width="60" height="60" viewBox="0 0 60 60" fill="none" xmlns="http://www.w3.org/2000/svg">
<path d="M30 58.3594C4.03126 58.3594 0.901882 36.1272 0.937507 30.5692V28.7165C0.901882 23.1585 4.03126 0.92634 30 0.92634C55.9688 0.92634 59.0981 23.1585 59.0625 28.7165V30.5692C59.0981 36.1272 55.9688 58.3594 30 58.3594Z" fill="url(#paint0_linear_2_81)"/>
<path d="M43.125 22.2321C43.125 19.6745 41.8659 17.6004 40.3125 17.6004C38.7591 17.6004 37.5 19.6745 37.5 22.2321C37.5 22.3905 37.5187 22.5406 37.5281 22.6953C37.5187 22.85 37.5 23.0001 37.5 23.1585C37.5 25.7161 38.7591 27.7902 40.3125 27.7902C41.8659 27.7902 43.125 25.7161 43.125 23.1585C43.125 23.0001 43.1063 22.85 43.0969 22.6953C43.1063 22.5406 43.125 22.3905 43.125 22.2321Z" fill="#EDA406"/>
<path d="M22.5 22.2321C22.5 19.6745 21.2409 17.6004 19.6875 17.6004C18.1341 17.6004 16.875 19.6745 16.875 22.2321C16.875 22.3905 16.8938 22.5406 16.9031 22.6953C16.8938 22.85 16.875 23.0001 16.875 23.1585C16.875 25.7161 18.1341 27.7902 19.6875 27.7902C21.2409 27.7902 22.5 25.7161 22.5 23.1585C22.5 23.0001 22.4813 22.85 22.4719 22.6953C22.4813 22.5406 22.5 22.3905 22.5 22.2321Z" fill="#EDA406"/>
<path d="M43.125 23.1585C43.125 20.6009 41.8659 18.5268 40.3125 18.5268C38.7591 18.5268 37.5 20.6009 37.5 23.1585C37.5 23.3169 37.5187 23.467 37.5281 23.6217C37.5187 23.7763 37.5 23.9264 37.5 24.0848C37.5 26.6424 38.7591 28.7165 40.3125 28.7165C41.8659 28.7165 43.125 26.6424 43.125 24.0848C43.125 23.9264 43.1063 23.7763 43.0969 23.6217C43.1063 23.467 43.125 23.3169 43.125 23.1585Z" fill="#FFD000"/>
<path d="M22.5 23.1585C22.5 20.6009 21.2409 18.5268 19.6875 18.5268C18.1341 18.5268 16.875 20.6009 16.875 23.1585C16.875 23.3169 16.8938 23.467 16.9031 23.6217C16.8938 23.7763 16.875 23.9264 16.875 24.0848C16.875 26.6424 18.1341 28.7165 19.6875 28.7165C21.2409 28.7165 22.5 26.6424 22.5 24.0848C22.5 23.9264 22.4813 23.7763 22.4719 23.6217C22.4813 23.467 22.5 23.3169 22.5 23.1585Z" fill="#FFD000"/>
<path d="M40.3125 27.7902C41.8658 27.7902 43.125 25.7165 43.125 23.1585C43.125 20.6005 41.8658 18.5268 40.3125 18.5268C38.7592 18.5268 37.5 20.6005 37.5 23.1585C37.5 25.7165 38.7592 27.7902 40.3125 27.7902Z" fill="url(#paint1_linear_2_81)"/>
<path d="M19.6875 27.7902C21.2408 27.7902 22.5 25.7165 22.5 23.1585C22.5 20.6005 21.2408 18.5268 19.6875 18.5268C18.1342 18.5268 16.875 20.6005 16.875 23.1585C16.875 25.7165 18.1342 27.7902 19.6875 27.7902Z" fill="url(#paint2_linear_2_81)"/>
<path d="M40.3125 21.3058C41.6728 21.3058 42.8072 21.9709 43.0687 24.0848C43.1063 23.7774 43.125 23.4681 43.125 23.1585C43.125 20.6009 41.8659 18.5268 40.3125 18.5268C38.7591 18.5268 37.5 20.6009 37.5 23.1585C37.5 23.4681 37.5187 23.7774 37.5563 24.0848C37.8178 21.9709 38.9522 21.3058 40.3125 21.3058Z" fill="black"/>
<path d="M19.6875 21.3058C21.0478 21.3058 22.1822 21.9709 22.4438 24.0848C22.4813 23.7774 22.5001 23.4681 22.5 23.1585C22.5 20.6009 21.2409 18.5268 19.6875 18.5268C18.1341 18.5268 16.875 20.6009 16.875 23.1585C16.875 23.4681 16.8937 23.7774 16.9313 24.0848C17.1928 21.9709 18.3272 21.3058 19.6875 21.3058Z" fill="black"/>
<path d="M30 38.9063C37.5 38.9063 42.1875 44.4643 42.1875 44.4643C41.7974 43.0746 41.1314 41.7754 40.2281 40.6426C39.3248 39.5098 38.2024 38.5659 36.9263 37.866C34.8003 36.7248 32.4194 36.1271 30 36.1271C27.5806 36.1271 25.1997 36.7248 23.0738 37.866C21.7976 38.5659 20.6752 39.5098 19.7719 40.6426C18.8686 41.7754 18.2026 43.0746 17.8125 44.4643C17.8125 44.4643 22.5 38.9063 30 38.9063Z" fill="#ED8D06"/>
<path d="M30 39.8326C34.4991 39.8515 38.8351 41.4993 42.1875 44.4643C42.1875 44.4643 41.2313 41.1091 36.9263 38.7923C34.8003 37.6512 32.4194 37.0534 30 37.0534C27.5806 37.0534 25.1997 37.6512 23.0738 38.7923C18.7688 41.1091 17.8125 44.4643 17.8125 44.4643C21.1649 41.4993 25.5009 39.8515 30 39.8326V39.8326Z" fill="#F9BF06"/>
<path d="M17.8125 44.4643C17.8125 44.4643 18.7688 41.1091 23.0738 38.7923C25.1997 37.6512 27.5806 37.0534 30 37.0534C32.4194 37.0534 34.8003 37.6512 36.9263 38.7923C41.2313 41.1091 42.1875 44.4643 42.1875 44.4643C42.1875 44.4643 37.5 38.9063 30 38.9063C22.5 38.9063 17.8125 44.4643 17.8125 44.4643V44.4643Z" fill="url(#paint3_linear_2_81)"/>
<defs>
<linearGradient id="paint0_linear_2_81" x1="30" y1="1.20795" x2="30" y2="58.641" gradientUnits="userSpaceOnUse">
<stop stop-color="#FFE100"/>
<stop offset="1" stop-color="#F98900"/>
</linearGradient>
<linearGradient id="paint1_linear_2_81" x1="40.3125" y1="27.5354" x2="40.3125" y2="18.7056" gradientUnits="userSpaceOnUse">
<stop offset="0.005" stop-color="#414D4D"/>
<stop offset="0.206" stop-color="#3A4545"/>
<stop offset="0.522" stop-color="#272E2E"/>
<stop offset="0.914" stop-color="#080909"/>
<stop offset="1"/>
</linearGradient>
<linearGradient id="paint2_linear_2_81" x1="19.6875" y1="27.6568" x2="19.6875" y2="19.3373" gradientUnits="userSpaceOnUse">
<stop offset="0.005" stop-color="#414D4D"/>
<stop offset="0.206" stop-color="#3A4545"/>
<stop offset="0.522" stop-color="#272E2E"/>
<stop offset="0.914" stop-color="#080909"/>
<stop offset="1"/>
</linearGradient>
<linearGradient id="paint3_linear_2_81" x1="30" y1="36.7877" x2="30" y2="44.1558" gradientUnits="userSpaceOnUse">
<stop stop-color="#803F02"/>
<stop offset="0.174" stop-color="#6D3602"/>
<stop offset="0.515" stop-color="#4D2601"/>
<stop offset="0.802" stop-color="#3A1C01"/>
<stop offset="1" stop-color="#331901"/>
</linearGradient>
</defs>
</svg>
