<svg width="70" height="70" viewBox="0 0 70 70" fill="none" xmlns="http://www.w3.org/2000/svg">
<path d="M35 68.086C4.70312 68.086 1.05219 42.1484 1.09375 35.6641V33.5026C1.05219 27.0182 4.70312 1.08073 35 1.08073C65.2969 1.08073 68.9478 27.0182 68.9062 33.5026V35.6641C68.9478 42.1484 65.2969 68.086 35 68.086Z" fill="url(#paint0_linear_2_39)"/>
<path d="M50.3125 25.9375C50.3125 22.9536 48.8436 20.5339 47.0312 20.5339C45.2189 20.5339 43.75 22.9536 43.75 25.9375C43.75 26.1223 43.7719 26.2974 43.7828 26.4779C43.7719 26.6583 43.75 26.8334 43.75 27.0182C43.75 30.0021 45.2189 32.4219 47.0312 32.4219C48.8436 32.4219 50.3125 30.0021 50.3125 27.0182C50.3125 26.8334 50.2906 26.6583 50.2797 26.4779C50.2906 26.2974 50.3125 26.1223 50.3125 25.9375Z" fill="#EDA406"/>
<path d="M26.25 25.9375C26.25 22.9536 24.7811 20.5339 22.9687 20.5339C21.1564 20.5339 19.6875 22.9536 19.6875 25.9375C19.6875 26.1223 19.7094 26.2974 19.7203 26.4779C19.7094 26.6583 19.6875 26.8334 19.6875 27.0182C19.6875 30.0021 21.1564 32.4219 22.9687 32.4219C24.7811 32.4219 26.25 30.0021 26.25 27.0182C26.25 26.8334 26.2281 26.6583 26.2172 26.4779C26.2281 26.2974 26.25 26.1223 26.25 25.9375Z" fill="#EDA406"/>
<path d="M50.3125 27.0182C50.3125 24.0343 48.8436 21.6146 47.0312 21.6146C45.2189 21.6146 43.75 24.0343 43.75 27.0182C43.75 27.203 43.7719 27.3781 43.7828 27.5586C43.7719 27.7391 43.75 27.9142 43.75 28.099C43.75 31.0829 45.2189 33.5026 47.0312 33.5026C48.8436 33.5026 50.3125 31.0829 50.3125 28.099C50.3125 27.9142 50.2906 27.7391 50.2797 27.5586C50.2906 27.3781 50.3125 27.203 50.3125 27.0182Z" fill="#FFD000"/>
<path d="M26.25 27.0182C26.25 24.0343 24.7811 21.6146 22.9687 21.6146C21.1564 21.6146 19.6875 24.0343 19.6875 27.0182C19.6875 27.203 19.7094 27.3781 19.7203 27.5586C19.7094 27.7391 19.6875 27.9142 19.6875 28.099C19.6875 31.0829 21.1564 33.5026 22.9687 33.5026C24.7811 33.5026 26.25 31.0829 26.25 28.099C26.25 27.9142 26.2281 27.7391 26.2172 27.5586C26.2281 27.3781 26.25 27.203 26.25 27.0182Z" fill="#FFD000"/>
<path d="M47.0312 32.4219C48.8434 32.4219 50.3125 30.0026 50.3125 27.0182C50.3125 24.0339 48.8434 21.6146 47.0312 21.6146C45.2191 21.6146 43.75 24.0339 43.75 27.0182C43.75 30.0026 45.2191 32.4219 47.0312 32.4219Z" fill="url(#paint1_linear_2_39)"/>
<path d="M22.9687 32.4219C24.7809 32.4219 26.25 30.0026 26.25 27.0182C26.25 24.0339 24.7809 21.6146 22.9687 21.6146C21.1566 21.6146 19.6875 24.0339 19.6875 27.0182C19.6875 30.0026 21.1566 32.4219 22.9687 32.4219Z" fill="url(#paint2_linear_2_39)"/>
<path d="M47.0312 24.8568C48.6183 24.8568 49.9417 25.6327 50.2469 28.099C50.2906 27.7403 50.3125 27.3794 50.3125 27.0182C50.3125 24.0343 48.8436 21.6146 47.0312 21.6146C45.2189 21.6146 43.75 24.0343 43.75 27.0182C43.7499 27.3794 43.7719 27.7403 43.8156 28.099C44.1208 25.6327 45.4442 24.8568 47.0312 24.8568Z" fill="black"/>
<path d="M22.9687 24.8568C24.5558 24.8568 25.8792 25.6327 26.1844 28.099C26.2281 27.7403 26.2501 27.3794 26.25 27.0182C26.25 24.0343 24.7811 21.6146 22.9687 21.6146C21.1564 21.6146 19.6875 24.0343 19.6875 27.0182C19.6874 27.3794 19.7094 27.7403 19.7531 28.099C20.0583 25.6327 21.3817 24.8568 22.9687 24.8568Z" fill="black"/>
<mask id="mask0_2_39" style="mask-type:alpha" maskUnits="userSpaceOnUse" x="18" y="46" width="34" height="4">
<rect x="18.4722" y="46.1111" width="33.0556" height="3.36227" fill="#C4C4C4"/>
</mask>
<g mask="url(#mask0_2_39)">
<rect x="19.4444" y="44.1898" width="30.625" height="3.84259" rx="1.9213" fill="#F9BF06"/>
</g>
<mask id="mask1_2_39" style="mask-type:alpha" maskUnits="userSpaceOnUse" x="17" y="42" width="35" height="5">
<rect x="51.0417" y="46.1111" width="33.0556" height="3.36227" transform="rotate(-180 51.0417 46.1111)" fill="#C4C4C4"/>
</mask>
<g mask="url(#mask1_2_39)">
<rect x="50.0694" y="48.0324" width="30.625" height="3.84259" rx="1.92129" transform="rotate(-180 50.0694 48.0324)" fill="#ED8D06"/>
</g>
<path d="M21.875 46.1111H47.8819" stroke="url(#paint3_linear_2_39)" stroke-width="4.5" stroke-linecap="round"/>
<defs>
<linearGradient id="paint0_linear_2_39" x1="35" y1="1.40927" x2="35" y2="68.4145" gradientUnits="userSpaceOnUse">
<stop stop-color="#FFE100"/>
<stop offset="1" stop-color="#F98900"/>
</linearGradient>
<linearGradient id="paint1_linear_2_39" x1="47.0312" y1="32.1247" x2="47.0312" y2="21.8232" gradientUnits="userSpaceOnUse">
<stop offset="0.005" stop-color="#414D4D"/>
<stop offset="0.206" stop-color="#3A4545"/>
<stop offset="0.522" stop-color="#272E2E"/>
<stop offset="0.914" stop-color="#080909"/>
<stop offset="1"/>
</linearGradient>
<linearGradient id="paint2_linear_2_39" x1="22.9687" y1="32.2663" x2="22.9687" y2="22.5602" gradientUnits="userSpaceOnUse">
<stop offset="0.005" stop-color="#414D4D"/>
<stop offset="0.206" stop-color="#3A4545"/>
<stop offset="0.522" stop-color="#272E2E"/>
<stop offset="0.914" stop-color="#080909"/>
<stop offset="1"/>
</linearGradient>
<linearGradient id="paint3_linear_2_39" x1="22.3611" y1="47.1111" x2="47.3958" y2="47.1111" gradientUnits="userSpaceOnUse">
<stop stop-color="#803F02"/>
<stop offset="0.174" stop-color="#6D3602"/>
<stop offset="0.515" stop-color="#4D2601"/>
<stop offset="0.802" stop-color="#3A1C01"/>
<stop offset="1" stop-color="#331901"/>
</linearGradient>
</defs>
</svg>
