<svg width="60" height="60" viewBox="0 0 60 60" fill="none" xmlns="http://www.w3.org/2000/svg">
<path d="M30 59.0625C4.03125 59.0625 0.901875 36.5625 0.9375 30.9375V29.0625C0.901875 23.4375 4.03125 0.9375 30 0.9375C55.9687 0.9375 59.0981 23.4375 59.0625 29.0625V30.9375C59.0981 36.5625 55.9687 59.0625 30 59.0625Z" fill="url(#paint0_linear_2_26)"/>
<path d="M46.875 36.5531C46.8831 36.4132 46.8577 36.2734 46.8009 36.1452C46.7441 36.0171 46.6576 35.9043 46.5485 35.8163C46.4395 35.7283 46.311 35.6676 46.1737 35.6392C46.0365 35.6109 45.8944 35.6156 45.7594 35.6531C40.6 36.9127 35.3109 37.5641 30 37.5937C24.6891 37.5641 19.4 36.9127 14.2406 35.6531C14.1056 35.6156 13.9635 35.6109 13.8263 35.6392C13.689 35.6676 13.5605 35.7283 13.4515 35.8163C13.3424 35.9043 13.2559 36.0171 13.1991 36.1452C13.1423 36.2734 13.1169 36.4132 13.125 36.5531C13.1419 36.7284 13.1775 36.8934 13.2028 37.0641C13.1379 37.1963 13.111 37.344 13.125 37.4906C13.1964 38.2366 13.3504 38.9724 13.5844 39.6844C13.6949 40.0583 13.8296 40.4247 13.9875 40.7813C15.0285 43.0306 16.6824 44.9412 18.7594 46.2938C22.0632 48.5642 25.9917 49.7503 30 49.6875C34.0083 49.7503 37.9368 48.5642 41.2406 46.2938C43.3176 44.9412 44.9715 43.0306 46.0125 40.7813C46.1704 40.4247 46.3051 40.0583 46.4156 39.6844C46.6496 38.9724 46.8036 38.2366 46.875 37.4906C46.889 37.344 46.8621 37.1963 46.7972 37.0641C46.8225 36.8934 46.8581 36.7284 46.875 36.5531V36.5531Z" fill="#F9BF06"/>
<path d="M46.875 35.6156C46.8831 35.4757 46.8577 35.3359 46.8009 35.2077C46.7441 35.0796 46.6576 34.9668 46.5485 34.8788C46.4395 34.7908 46.311 34.7301 46.1737 34.7017C46.0365 34.6734 45.8944 34.6781 45.7594 34.7156C40.6 35.9752 35.3109 36.6266 30 36.6562C24.6891 36.6266 19.4 35.9752 14.2406 34.7156C14.1056 34.6781 13.9635 34.6734 13.8263 34.7017C13.689 34.7301 13.5605 34.7908 13.4515 34.8788C13.3424 34.9668 13.2559 35.0796 13.1991 35.2077C13.1423 35.3359 13.1169 35.4757 13.125 35.6156C13.1419 35.7909 13.1775 35.9559 13.2028 36.1266C13.1379 36.2588 13.111 36.4065 13.125 36.5531C13.1964 37.2991 13.3504 38.0349 13.5844 38.7469C13.6949 39.1208 13.8296 39.4872 13.9875 39.8438C15.0285 42.0931 16.6824 44.0037 18.7594 45.3563C22.0632 47.6267 25.9917 48.8128 30 48.75C34.0083 48.8128 37.9368 47.6267 41.2406 45.3563C43.3176 44.0037 44.9715 42.0931 46.0125 39.8438C46.1704 39.4872 46.3051 39.1208 46.4156 38.7469C46.6496 38.0349 46.8036 37.2991 46.875 36.5531C46.889 36.4065 46.8621 36.2588 46.7972 36.1266C46.8225 35.9559 46.8581 35.7909 46.875 35.6156V35.6156Z" fill="#ED8D06"/>
<path d="M46.4156 38.7469C46.3051 39.1208 46.1704 39.4872 46.0125 39.8437C44.9715 42.0931 43.3176 44.0037 41.2406 45.3563C37.9368 47.6267 34.0083 48.8128 30 48.75C25.9917 48.8128 22.0632 47.6267 18.7594 45.3563C16.6824 44.0037 15.0285 42.0931 13.9875 39.8437C13.8296 39.4872 13.6949 39.1208 13.5844 38.7469C18.535 41.7225 24.2251 43.2401 30 43.125C35.7749 43.2401 41.465 41.7225 46.4156 38.7469V38.7469Z" fill="url(#paint1_linear_2_26)"/>
<path d="M45.7594 35.6531C45.8944 35.6156 46.0365 35.6109 46.1737 35.6392C46.311 35.6676 46.4395 35.7283 46.5485 35.8163C46.6576 35.9043 46.7441 36.0171 46.8009 36.1452C46.8577 36.2734 46.8831 36.4132 46.875 36.5531C46.8036 37.2991 46.6496 38.0349 46.4156 38.7469C41.465 41.7225 35.7749 43.2401 30 43.125C24.2251 43.2401 18.535 41.7225 13.5844 38.7469C13.3504 38.0349 13.1964 37.2991 13.125 36.5531C13.1169 36.4132 13.1423 36.2734 13.1991 36.1452C13.2559 36.0171 13.3424 35.9043 13.4515 35.8163C13.5605 35.7283 13.689 35.6676 13.8263 35.6392C13.9635 35.6109 14.1056 35.6156 14.2406 35.6531C19.4 36.9127 24.6892 37.5641 30 37.5937C35.3109 37.5641 40.6 36.9127 45.7594 35.6531V35.6531Z" fill="url(#paint2_linear_2_26)"/>
<path d="M45.7594 35.6531C45.8944 35.6156 46.0365 35.6109 46.1737 35.6392C46.311 35.6676 46.4395 35.7283 46.5485 35.8163C46.6576 35.9043 46.7441 36.0171 46.8009 36.1452C46.8577 36.2734 46.8831 36.4132 46.875 36.5531C46.8036 37.2991 46.6496 38.0349 46.4156 38.7469C41.465 41.7225 35.7749 43.2401 30 43.125C24.2251 43.2401 18.535 41.7225 13.5844 38.7469C13.3504 38.0349 13.1964 37.2991 13.125 36.5531C13.1169 36.4132 13.1423 36.2734 13.1991 36.1452C13.2559 36.0171 13.3424 35.9043 13.4515 35.8163C13.5605 35.7283 13.689 35.6676 13.8263 35.6392C13.9635 35.6109 14.1056 35.6156 14.2406 35.6531C19.4 36.9127 24.6892 37.5641 30 37.5937C35.3109 37.5641 40.6 36.9127 45.7594 35.6531V35.6531Z" fill="url(#paint3_linear_2_26)"/>
<path d="M45 24.8438C45 22.0312 43.125 19.2188 40.3125 19.2188C37.5 19.2188 35.625 22.0312 35.625 24.8438C35.625 25.0134 35.6381 25.155 35.6447 25.3125C35.6325 25.4691 35.625 25.6266 35.625 25.7812C35.625 28.5938 36.5625 29.5312 36.5625 29.5312C36.5625 29.5312 37.5 23.9062 40.3125 23.9062C43.125 23.9062 44.0625 29.5312 44.0625 29.5312C44.0625 29.5312 45 28.5938 45 25.7812C45 25.6247 44.9925 25.4672 44.9803 25.3125C44.9869 25.155 45 25.0134 45 24.8438Z" fill="#ED8D06"/>
<path d="M19.6875 19.2188C16.875 19.2188 15 22.0312 15 24.8438C15 25.0134 15.0131 25.155 15.0197 25.3125C15.0075 25.4691 15 25.6266 15 25.7812C15 28.5938 15.9375 29.5312 15.9375 29.5312C15.9375 29.5312 16.875 23.9062 19.6875 23.9062C22.5 23.9062 23.4375 29.5312 23.4375 29.5312C23.4375 29.5312 24.375 28.5938 24.375 25.7812C24.375 25.6247 24.3675 25.4672 24.3553 25.3125C24.3619 25.1569 24.375 25.0153 24.375 24.8438C24.375 22.0312 22.5 19.2188 19.6875 19.2188Z" fill="#ED8D06"/>
<path d="M36.5625 28.5938C36.5625 28.5938 35.625 27.6562 35.625 24.8438C35.625 22.0312 37.5 19.2188 40.3125 19.2188C43.125 19.2188 45 22.0312 45 24.8438C45 27.6562 44.0625 28.5938 44.0625 28.5938C44.0625 28.5938 43.125 22.9688 40.3125 22.9688C37.5 22.9688 36.5625 28.5938 36.5625 28.5938Z" fill="url(#paint4_linear_2_26)"/>
<path d="M15.9375 28.5938C15.9375 28.5938 15 27.6562 15 24.8438C15 22.0312 16.875 19.2188 19.6875 19.2188C22.5 19.2188 24.375 22.0312 24.375 24.8438C24.375 27.6562 23.4375 28.5938 23.4375 28.5938C23.4375 28.5938 22.5 22.9688 19.6875 22.9688C16.875 22.9688 15.9375 28.5938 15.9375 28.5938Z" fill="url(#paint5_linear_2_26)"/>
<defs>
<linearGradient id="paint0_linear_2_26" x1="30" y1="1.2225" x2="30" y2="59.3475" gradientUnits="userSpaceOnUse">
<stop stop-color="#FFE100"/>
<stop offset="1" stop-color="#F98900"/>
</linearGradient>
<linearGradient id="paint1_linear_2_26" x1="30" y1="49.1719" x2="30" y2="40.3275" gradientUnits="userSpaceOnUse">
<stop stop-color="#911625"/>
<stop offset="0.587" stop-color="#630F19"/>
<stop offset="1" stop-color="#400A10"/>
</linearGradient>
<linearGradient id="paint2_linear_2_26" x1="13.1213" y1="39.375" x2="46.8788" y2="39.375" gradientUnits="userSpaceOnUse">
<stop stop-color="#B8B4B2"/>
<stop offset="0.333" stop-color="#E6E1DE"/>
<stop offset="0.5" stop-color="#FFFAF6"/>
<stop offset="0.638" stop-color="#F9F5F1"/>
<stop offset="0.825" stop-color="#E8E5E3"/>
<stop offset="1" stop-color="#D1D1D1"/>
</linearGradient>
<linearGradient id="paint3_linear_2_26" x1="30" y1="37.23" x2="30" y2="43.3219" gradientUnits="userSpaceOnUse">
<stop stop-color="#ABABAB" stop-opacity="0.5"/>
<stop offset="0.541" stop-color="#C1C1C1" stop-opacity="0.216"/>
<stop offset="1" stop-color="#D1D1D1" stop-opacity="0"/>
</linearGradient>
<linearGradient id="paint4_linear_2_26" x1="40.3125" y1="27.1528" x2="40.3125" y2="19.5994" gradientUnits="userSpaceOnUse">
<stop stop-color="#803F02"/>
<stop offset="0.174" stop-color="#6D3602"/>
<stop offset="0.515" stop-color="#4D2601"/>
<stop offset="0.802" stop-color="#3A1C01"/>
<stop offset="1" stop-color="#331901"/>
</linearGradient>
<linearGradient id="paint5_linear_2_26" x1="19.6875" y1="27.1528" x2="19.6875" y2="19.5994" gradientUnits="userSpaceOnUse">
<stop stop-color="#803F02"/>
<stop offset="0.174" stop-color="#6D3602"/>
<stop offset="0.515" stop-color="#4D2601"/>
<stop offset="0.802" stop-color="#3A1C01"/>
<stop offset="1" stop-color="#331901"/>
</linearGradient>
</defs>
</svg>
