<svg width="60" height="60" viewBox="0 0 60 60" fill="none" xmlns="http://www.w3.org/2000/svg">
<g clip-path="url(#clip0_2_3)">
<path d="M30 59.0625C4.03126 59.0625 0.901882 36.5625 0.937507 30.9375V29.0625C0.901882 23.4375 4.03126 0.937477 30 0.937477C55.9687 0.937477 59.0981 23.4375 59.0625 29.0625V30.9375C59.0981 36.5625 55.9687 59.0625 30 59.0625Z" fill="url(#paint0_linear_2_3)"/>
<path d="M45.7556 34.7194C45.9014 34.687 46.0528 34.6904 46.197 34.7294C46.3411 34.7683 46.4737 34.8416 46.5834 34.943C46.693 35.0443 46.7765 35.1707 46.8266 35.3114C46.8767 35.452 46.8921 35.6027 46.8713 35.7506C46.8035 36.5295 46.6686 37.3011 46.4681 38.0569C41.4401 40.8644 35.7579 42.2896 30 42.1875C24.2419 42.2888 18.5597 40.8626 13.5319 38.054C13.3314 37.2983 13.1966 36.5267 13.1288 35.7478C13.1079 35.5999 13.1233 35.4492 13.1734 35.3086C13.2235 35.1679 13.307 35.0415 13.4167 34.9402C13.5263 34.8388 13.6589 34.7655 13.803 34.7266C13.9472 34.6876 14.0986 34.6842 14.2444 34.7165C19.3739 36.1552 24.6727 36.9021 30 36.9375C35.3272 36.9031 40.626 36.1571 45.7556 34.7194V34.7194Z" fill="url(#paint1_linear_2_3)"/>
<path d="M46.875 34.6875H46.8675C46.8704 34.5492 46.8418 34.4122 46.7837 34.2867C46.7257 34.1612 46.6398 34.0506 46.5326 33.9633C46.4254 33.8759 46.2997 33.8142 46.1651 33.7828C46.0305 33.7514 45.8904 33.751 45.7556 33.7819C40.626 35.2196 35.3272 35.9656 30 36C24.6727 35.9646 19.3739 35.2177 14.2444 33.779C14.1094 33.7482 13.9691 33.7485 13.8342 33.7801C13.6994 33.8117 13.5735 33.8737 13.4663 33.9613C13.359 34.0489 13.2732 34.1599 13.2153 34.2858C13.1575 34.4116 13.1292 34.549 13.1325 34.6875H13.125V35.625H13.1325C13.1297 35.6665 13.1297 35.7081 13.1325 35.7497C13.2003 36.5286 13.3352 37.3002 13.5356 38.0559C13.6576 38.5523 13.8111 39.0405 13.995 39.5175C14.9783 42.0119 16.6288 44.1879 18.766 45.8072C21.961 48.347 25.9222 49.7297 30.0038 49.7297C34.0853 49.7297 38.0465 48.347 41.2416 45.8072C43.3787 44.1879 45.0292 42.0119 46.0125 39.5175C46.1964 39.0405 46.3499 38.5523 46.4719 38.0559C46.6723 37.3002 46.8072 36.5286 46.875 35.7497C46.8778 35.7081 46.8778 35.6665 46.875 35.625V34.6875Z" fill="#ED8D06"/>
<path d="M46.8675 35.625C46.8704 35.4867 46.8418 35.3497 46.7837 35.2242C46.7257 35.0987 46.6398 34.9881 46.5326 34.9008C46.4254 34.8134 46.2997 34.7517 46.1651 34.7203C46.0305 34.6889 45.8904 34.6885 45.7556 34.7194C40.626 36.1571 35.3272 36.9031 30 36.9375C24.6727 36.9021 19.3739 36.1552 14.2444 34.7165C14.1094 34.6857 13.9691 34.686 13.8342 34.7176C13.6994 34.7492 13.5735 34.8112 13.4663 34.8988C13.359 34.9864 13.2732 35.0974 13.2153 35.2233C13.1575 35.3491 13.1292 35.4865 13.1325 35.625H13.125V36.5625H13.1325C13.1297 36.604 13.1297 36.6456 13.1325 36.6872C13.2003 37.4661 13.3352 38.2377 13.5356 38.9934C13.6576 39.4898 13.8111 39.978 13.995 40.455C14.9783 42.9494 16.6288 45.1254 18.766 46.7447C21.961 49.2845 25.9222 50.6672 30.0038 50.6672C34.0853 50.6672 38.0465 49.2845 41.2416 46.7447C43.3787 45.1254 45.0292 42.9494 46.0125 40.455C46.1964 39.978 46.3499 39.4898 46.4719 38.9934C46.6723 38.2377 46.8072 37.4661 46.875 36.6872C46.8778 36.6456 46.8778 36.604 46.875 36.5625V35.625H46.8675Z" fill="#F9BF06"/>
<path d="M36.4856 48.525C32.3008 50.075 27.6992 50.075 23.5144 48.525C23.8228 47.7094 25.2187 45 30 45C34.7812 45 36.1772 47.7094 36.4856 48.525Z" fill="#8F030E"/>
<path d="M46.0088 39.5175C45.0254 42.0119 43.3749 44.1879 41.2378 45.8072C39.8028 46.9521 38.1999 47.8691 36.4856 48.5259C36.1772 47.7094 34.7813 45 30 45C25.2188 45 23.8228 47.7084 23.5144 48.524C21.8001 47.8672 20.1973 46.9502 18.7622 45.8053C16.6251 44.186 14.9746 42.0101 13.9913 39.5156C13.8072 39.0387 13.6538 38.5505 13.5319 38.054C18.5597 40.8626 24.2419 42.2888 30 42.1875C35.7582 42.2888 41.4403 40.8626 46.4681 38.054C46.3463 38.5511 46.1929 39.0399 46.0088 39.5175V39.5175Z" fill="url(#paint2_linear_2_3)"/>
<path d="M45.7556 34.7194C45.9014 34.687 46.0528 34.6904 46.197 34.7294C46.3411 34.7683 46.4737 34.8416 46.5834 34.943C46.693 35.0443 46.7765 35.1707 46.8266 35.3114C46.8767 35.452 46.8921 35.6027 46.8713 35.7506C46.8035 36.5295 46.6686 37.3011 46.4681 38.0569C41.4401 40.8644 35.7579 42.2896 30 42.1875C24.2419 42.2888 18.5597 40.8626 13.5319 38.054C13.3314 37.2983 13.1966 36.5267 13.1288 35.7478C13.1079 35.5999 13.1233 35.4492 13.1734 35.3086C13.2235 35.1679 13.307 35.0415 13.4167 34.9402C13.5263 34.8388 13.6589 34.7655 13.803 34.7266C13.9472 34.6876 14.0986 34.6842 14.2444 34.7165C19.3739 36.1552 24.6727 36.9021 30 36.9375C35.3272 36.9031 40.626 36.1571 45.7556 34.7194V34.7194Z" fill="url(#paint3_linear_2_3)"/>
<path d="M45.7556 34.7194C45.9014 34.687 46.0528 34.6904 46.197 34.7294C46.3411 34.7683 46.4737 34.8416 46.5834 34.943C46.693 35.0443 46.7765 35.1707 46.8266 35.3114C46.8767 35.452 46.8921 35.6027 46.8713 35.7506C46.8035 36.5295 46.6686 37.3011 46.4681 38.0569C41.4401 40.8644 35.7579 42.2896 30 42.1875C24.2419 42.2888 18.5597 40.8626 13.5319 38.054C13.3314 37.2983 13.1966 36.5267 13.1288 35.7478C13.1079 35.5999 13.1233 35.4492 13.1734 35.3086C13.2235 35.1679 13.307 35.0415 13.4167 34.9402C13.5263 34.8388 13.6589 34.7655 13.803 34.7266C13.9472 34.6876 14.0986 34.6842 14.2444 34.7165C19.3739 36.1552 24.6727 36.9021 30 36.9375C35.3272 36.9031 40.626 36.1571 45.7556 34.7194V34.7194Z" fill="url(#paint4_linear_2_3)"/>
<path d="M54.8128 12.0459C50.2284 10.8478 47.8125 13.125 47.8125 13.125C47.8125 13.125 46.5619 9.88966 41.9775 8.69154C41.2623 8.44895 40.5041 8.35977 39.7521 8.42981C39.0002 8.49986 38.2714 8.72756 37.6133 9.09808C36.9553 9.4686 36.3826 9.97361 35.9328 10.5802C35.483 11.1868 35.166 11.8814 35.0025 12.6187C34.6299 13.9548 34.5877 15.3615 34.8797 16.7175C36.2918 22.1158 39.1413 27.0302 43.125 30.9375C48.4136 29.4778 53.1742 26.5358 56.8453 22.4587C57.7901 21.4331 58.4741 20.1951 58.8394 18.8494C59.3306 17.0625 59.3972 13.244 54.8128 12.0459V12.0459Z" fill="#EC3A4A"/>
<path d="M54.8128 12.0459C50.2284 10.8478 47.8125 13.125 47.8125 13.125C47.8125 13.125 46.5619 9.88966 41.9775 8.69154C41.2623 8.44895 40.5039 8.35981 39.7519 8.42991C38.9999 8.50002 38.2711 8.7278 37.613 9.09841C36.955 9.46902 36.3824 9.97415 35.9326 10.5809C35.4828 11.1876 35.1659 11.8823 35.0025 12.6197C34.6299 13.9554 34.5877 15.3618 34.8797 16.7175C36.2918 22.1158 39.1413 27.0302 43.125 30.9375C48.4136 29.4778 53.1742 26.5358 56.8453 22.4587C57.7901 21.4331 58.4741 20.1951 58.8394 18.8494C59.3306 17.0625 59.3972 13.244 54.8128 12.0459V12.0459Z" fill="url(#paint5_linear_2_3)"/>
<path d="M41.2256 10.365C45.9975 11.6137 47.3306 14.8706 47.3306 14.8706C47.3306 14.8706 49.8159 12.6122 54.5878 13.8609C57.6225 14.655 58.7128 16.4906 58.98 18.1818C59.2866 16.2431 58.8863 13.1109 54.8128 12.0459C50.2284 10.8478 47.8125 13.125 47.8125 13.125C47.8125 13.125 46.5619 9.88966 41.9775 8.69154C37.95 7.63873 36 10.0865 35.25 11.9062C36.3525 10.6003 38.2303 9.58123 41.2256 10.365V10.365Z" fill="url(#paint6_linear_2_3)"/>
<path d="M52.7503 18.8512C52.7181 19.0805 52.7376 19.3141 52.8074 19.5349C52.8771 19.7557 52.9954 19.9581 53.1535 20.1272C53.3116 20.2964 53.5056 20.428 53.7211 20.5125C53.9367 20.597 54.1684 20.6323 54.3994 20.6156C54.7419 20.5785 55.0783 20.4982 55.4006 20.3765C55.9183 20.1949 56.3674 19.8583 56.6871 19.4124C57.0068 18.9666 57.1815 18.4332 57.1875 17.8847C57.1351 17.3145 56.9022 16.776 56.5228 16.3472C55.8469 15.54 53.4609 14.2781 52.6463 15.525C52.2713 16.1015 52.755 17.1309 52.7888 17.7675C52.8069 18.1292 52.794 18.4917 52.7503 18.8512V18.8512Z" fill="url(#paint7_linear_2_3)"/>
<path d="M44.1628 15.6928C44.115 16.364 44.4441 16.9415 44.8191 16.8684C44.9618 16.8417 45.0981 16.7876 45.2203 16.709C45.4649 16.5105 45.6579 16.2557 45.7828 15.9664C45.9077 15.6772 45.9608 15.362 45.9375 15.0478C45.9231 14.6912 45.8327 14.3418 45.6722 14.0231C45.4012 13.485 44.4469 12.644 44.1216 13.4747C44.0583 13.9744 44.0776 14.4812 44.1788 14.9747C44.1855 15.2142 44.1802 15.4538 44.1628 15.6928V15.6928Z" fill="url(#paint8_linear_2_3)"/>
<path d="M5.18719 12.0459C9.77157 10.8478 12.1875 13.125 12.1875 13.125C12.1875 13.125 13.4381 9.88966 18.0225 8.69154C18.7378 8.44895 19.4961 8.35981 20.2481 8.42991C21.0001 8.50002 21.7289 8.7278 22.387 9.09841C23.0451 9.46902 23.6177 9.97415 24.0675 10.5809C24.5173 11.1876 24.8342 11.8823 24.9975 12.6197C25.3701 13.9554 25.4123 15.3618 25.1203 16.7175C23.7083 22.1158 20.8587 27.0302 16.875 30.9375C11.5864 29.4778 6.82576 26.5358 3.15469 22.4587C2.20988 21.4331 1.52592 20.1951 1.16063 18.8494C0.669377 17.0625 0.602815 13.244 5.18719 12.0459V12.0459Z" fill="url(#paint9_linear_2_3)"/>
<path d="M18.7744 10.365C14.0025 11.6137 12.6694 14.8706 12.6694 14.8706C12.6694 14.8706 10.1841 12.6122 5.4122 13.8609C2.37751 14.655 1.2872 16.4906 1.02001 18.1819C0.713447 16.2431 1.11376 13.1109 5.1872 12.0459C9.77157 10.8478 12.1875 13.125 12.1875 13.125C12.1875 13.125 13.4381 9.88967 18.0225 8.69154C22.0538 7.63873 24.0047 10.0865 24.7528 11.91C23.6475 10.6003 21.7697 9.58123 18.7744 10.365V10.365Z" fill="url(#paint10_linear_2_3)"/>
<path d="M19.74 15.4687C19.8403 15.6774 19.9861 15.8609 20.1665 16.0059C20.347 16.151 20.5575 16.2538 20.7829 16.3069C21.0082 16.36 21.2425 16.3621 21.4688 16.3129C21.695 16.2638 21.9074 16.1646 22.0903 16.0228C22.3549 15.8016 22.5902 15.5477 22.7906 15.2672C23.1199 14.829 23.3063 14.3001 23.3246 13.7523C23.3428 13.2046 23.1921 12.6644 22.8928 12.2053C22.5327 11.7602 22.0401 11.4413 21.4866 11.295C20.4759 10.9978 17.7909 11.2715 17.805 12.7612C17.8106 13.4494 18.7866 14.0372 19.1672 14.5481C19.3839 14.8382 19.5755 15.1462 19.74 15.4687V15.4687Z" fill="url(#paint11_linear_2_3)"/>
<path d="M10.8422 17.6006C11.175 18.1856 11.7703 18.4828 12.0431 18.2137C12.1469 18.1122 12.2299 17.9915 12.2878 17.8584C12.3809 17.5571 12.3997 17.2378 12.3427 16.9277C12.2858 16.6175 12.1547 16.3257 11.9606 16.0772C11.7501 15.7886 11.4807 15.548 11.1703 15.3712C10.6472 15.074 9.38908 14.9025 9.57658 15.7762C9.6647 16.1794 10.2075 16.6425 10.4541 16.9884C10.5938 17.1881 10.7231 17.3925 10.8422 17.6006V17.6006Z" fill="url(#paint12_linear_2_3)"/>
<path d="M34.8797 16.7175C34.5877 15.3618 34.6299 13.9554 35.0025 12.6197C35.2311 11.8118 35.613 11.0556 36.1275 10.3922C35.1272 11.2067 34.4062 12.3131 34.065 13.5572C33.6924 14.8929 33.6502 16.2993 33.9422 17.655C35.3545 23.0533 38.204 27.9676 42.1875 31.875C47.2201 30.4919 51.778 27.7575 55.3669 23.9681C51.9346 27.2801 47.7251 29.6766 43.125 30.9375C39.1415 27.0301 36.292 22.1158 34.8797 16.7175V16.7175Z" fill="#ED8D06"/>
<path d="M25.125 16.7175C23.7114 22.1163 20.8602 27.0307 16.875 30.9375C12.275 29.6766 8.06545 27.2801 4.63313 23.9681C8.22205 27.7575 12.7799 30.4919 17.8125 31.875C21.7977 27.9682 24.6489 23.0538 26.0625 17.655C26.3545 16.2993 26.3123 14.8929 25.9397 13.5572C25.5985 12.3131 24.8775 11.2067 23.8772 10.3922C24.3917 11.0556 24.7736 11.8118 25.0022 12.6197C25.3748 13.9554 25.417 15.3618 25.125 16.7175V16.7175Z" fill="#ED8D06"/>
</g>
<defs>
<linearGradient id="paint0_linear_2_3" x1="30" y1="1.22248" x2="30" y2="59.3475" gradientUnits="userSpaceOnUse">
<stop stop-color="#FFE100"/>
<stop offset="1" stop-color="#F98900"/>
</linearGradient>
<linearGradient id="paint1_linear_2_3" x1="13.125" y1="38.4384" x2="46.875" y2="38.4384" gradientUnits="userSpaceOnUse">
<stop stop-color="#B8B4B2"/>
<stop offset="0.143" stop-color="#D0CCC9"/>
<stop offset="0.374" stop-color="#F2EDEA"/>
<stop offset="0.5" stop-color="#FFFAF6"/>
<stop offset="0.638" stop-color="#F9F5F1"/>
<stop offset="0.825" stop-color="#E8E5E3"/>
<stop offset="1" stop-color="#D1D1D1"/>
</linearGradient>
<linearGradient id="paint2_linear_2_3" x1="30" y1="49.9453" x2="30" y2="34.7259" gradientUnits="userSpaceOnUse">
<stop stop-color="#69101B"/>
<stop offset="0.427" stop-color="#400A10"/>
</linearGradient>
<linearGradient id="paint3_linear_2_3" x1="30" y1="35.7778" x2="30" y2="42.0797" gradientUnits="userSpaceOnUse">
<stop stop-color="#B8B4B2"/>
<stop offset="0.143" stop-color="#D0CCC9"/>
<stop offset="0.374" stop-color="#F2EDEA"/>
<stop offset="0.5" stop-color="#FFFAF6"/>
<stop offset="0.638" stop-color="#F9F5F1"/>
<stop offset="0.825" stop-color="#E8E5E3"/>
<stop offset="1" stop-color="#D1D1D1"/>
</linearGradient>
<linearGradient id="paint4_linear_2_3" x1="30" y1="35.7778" x2="30" y2="42.0797" gradientUnits="userSpaceOnUse">
<stop stop-color="#ABABAB" stop-opacity="0.5"/>
<stop offset="0.541" stop-color="#C1C1C1" stop-opacity="0.216"/>
<stop offset="1" stop-color="#D1D1D1" stop-opacity="0"/>
</linearGradient>
<linearGradient id="paint5_linear_2_3" x1="49.3303" y1="8.63529" x2="41.895" y2="30.5728" gradientUnits="userSpaceOnUse">
<stop stop-color="#FF5F6F"/>
<stop offset="0.346" stop-color="#FF2D44"/>
<stop offset="0.722" stop-color="#D41E32"/>
<stop offset="0.853" stop-color="#D61F33"/>
<stop offset="0.918" stop-color="#DE2337"/>
<stop offset="0.968" stop-color="#EB293E"/>
<stop offset="1" stop-color="#F82F44"/>
</linearGradient>
<linearGradient id="paint6_linear_2_3" x1="48.4416" y1="8.34373" x2="46.8066" y2="16.5965" gradientUnits="userSpaceOnUse">
<stop stop-color="#FF8A95"/>
<stop offset="0.66" stop-color="#FF495D"/>
<stop offset="1" stop-color="#FF2D44"/>
</linearGradient>
<linearGradient id="paint7_linear_2_3" x1="55.3453" y1="15.6844" x2="53.6503" y2="20.5162" gradientUnits="userSpaceOnUse">
<stop stop-color="#FF5F5F"/>
<stop offset="0.283" stop-color="#FF565A"/>
<stop offset="0.746" stop-color="#FF3D4D"/>
<stop offset="1" stop-color="#FF2D44"/>
</linearGradient>
<linearGradient id="paint8_linear_2_3" x1="45.36" y1="13.5515" x2="44.2472" y2="16.725" gradientUnits="userSpaceOnUse">
<stop stop-color="#FF5F5F"/>
<stop offset="0.283" stop-color="#FF565A"/>
<stop offset="0.746" stop-color="#FF3D4D"/>
<stop offset="1" stop-color="#FF2D44"/>
</linearGradient>
<linearGradient id="paint9_linear_2_3" x1="10.6697" y1="8.63529" x2="18.105" y2="30.5728" gradientUnits="userSpaceOnUse">
<stop stop-color="#FF5F6F"/>
<stop offset="0.346" stop-color="#FF2D44"/>
<stop offset="0.722" stop-color="#D41E32"/>
<stop offset="0.853" stop-color="#D61F33"/>
<stop offset="0.918" stop-color="#DE2337"/>
<stop offset="0.968" stop-color="#EB293E"/>
<stop offset="1" stop-color="#F82F44"/>
</linearGradient>
<linearGradient id="paint10_linear_2_3" x1="11.5584" y1="8.34373" x2="13.1934" y2="16.5965" gradientUnits="userSpaceOnUse">
<stop stop-color="#FF8A95"/>
<stop offset="0.66" stop-color="#FF495D"/>
<stop offset="1" stop-color="#FF2D44"/>
</linearGradient>
<linearGradient id="paint11_linear_2_3" x1="20.1494" y1="11.3639" x2="21.4203" y2="16.324" gradientUnits="userSpaceOnUse">
<stop stop-color="#FF5F5F"/>
<stop offset="0.283" stop-color="#FF565A"/>
<stop offset="0.746" stop-color="#FF3D4D"/>
<stop offset="1" stop-color="#FF2D44"/>
</linearGradient>
<linearGradient id="paint12_linear_2_3" x1="10.6579" y1="15.1312" x2="11.4925" y2="18.3897" gradientUnits="userSpaceOnUse">
<stop stop-color="#FF5F5F"/>
<stop offset="0.283" stop-color="#FF565A"/>
<stop offset="0.746" stop-color="#FF3D4D"/>
<stop offset="1" stop-color="#FF2D44"/>
</linearGradient>
<clipPath id="clip0_2_3">
<rect width="60" height="60" fill="white"/>
</clipPath>
</defs>
</svg>
