<svg width="24" height="24" viewBox="0 0 24 24" fill="none" xmlns="http://www.w3.org/2000/svg">
<path d="M11.628 16.1144C13.9769 16.1144 15.881 14.2103 15.881 11.8614C15.881 9.51253 13.9769 7.6084 11.628 7.6084C9.27913 7.6084 7.375 9.51253 7.375 11.8614C7.375 14.2103 9.27913 16.1144 11.628 16.1144Z" fill="white"/>
<path d="M11.6027 6.79354H21.8797C21.0244 5.06422 19.7454 3.5794 18.1619 2.4773C16.5783 1.3752 14.7417 0.691631 12.823 0.490224C10.9042 0.288816 8.96567 0.576116 7.1878 1.32538C5.40994 2.07465 3.85053 3.26152 2.65472 4.77554L6.57572 11.4755C6.67265 10.2065 7.24353 9.02031 8.17491 8.15285C9.10629 7.2854 10.33 6.80014 11.6027 6.79354ZM11.6287 16.9275C10.5872 16.9276 9.57095 16.6068 8.71819 16.0089C7.86543 15.4109 7.21757 14.5647 6.86272 13.5855L2.13072 5.49354C1.05541 7.09843 0.404181 8.94958 0.237806 10.8742C0.0714307 12.7989 0.395332 14.7343 1.17929 16.5C1.96324 18.2656 3.18169 19.8038 4.72095 20.9712C6.2602 22.1385 8.07009 22.8969 9.98172 23.1755L13.9267 16.3755C13.2152 16.7388 12.4276 16.928 11.6287 16.9275ZM22.2447 7.60754H14.3847C15.4558 8.30152 16.2258 9.37394 16.541 10.6107C16.8561 11.8475 16.6932 13.1576 16.0847 14.2795L10.8697 23.2655C11.1207 23.2815 11.3697 23.2915 11.6287 23.2915C13.4971 23.2905 15.3368 22.8317 16.987 21.9555C18.6372 21.0792 20.0476 19.812 21.0949 18.2648C22.1423 16.7175 22.7947 14.9373 22.9951 13.0797C23.1956 11.222 22.9379 9.34359 22.2447 7.60854V7.60754Z" fill="white"/>
</svg>
