<svg width="24" height="23" viewBox="0 0 24 23" fill="none" xmlns="http://www.w3.org/2000/svg">
<path d="M23.0213 12.2052C23.0235 10.5509 22.6255 8.92053 21.8613 7.45325C22.1417 6.71919 22.383 5.97081 22.5843 5.21125C23.4483 2.04125 21.4603 0.154248 18.4103 0.461248C16.5824 0.655002 14.7982 1.14437 13.1273 1.91025C12.9913 1.90525 12.8543 1.90125 12.7173 1.90125C10.2984 1.90155 7.95659 2.75262 6.1019 4.30547C4.24721 5.85833 2.99777 8.01404 2.57228 10.3952C3.95148 8.47631 5.72948 6.87843 7.78428 5.71125C5.77566 7.73048 4.00357 9.97193 2.50228 12.3922C2.47628 12.4332 2.45128 12.4752 2.42628 12.5172C1.28954 14.4166 0.523336 16.5144 0.168281 18.6992C-0.297719 21.7292 1.22428 23.3472 4.47728 22.8832C5.76762 22.5577 7.01495 22.0807 8.19328 21.4622C9.4988 22.0998 10.9243 22.4542 12.3764 22.5023C13.8285 22.5504 15.2743 22.291 16.6191 21.7412C17.964 21.1914 19.1774 20.3636 20.1799 19.312C21.1824 18.2604 21.9513 17.0088 22.4363 15.6392H16.8573C16.3642 16.5019 15.6044 17.1811 14.6922 17.5749C13.78 17.9687 12.7646 18.0558 11.7986 17.8231C10.8326 17.5904 9.96827 17.0505 9.33544 16.2845C8.70262 15.5185 8.3355 14.5678 8.28928 13.5752H22.9293C22.9901 13.1211 23.0208 12.6634 23.0213 12.2052ZM4.53728 22.1342C2.79828 22.3172 0.551281 20.4222 3.11228 15.9342C3.93671 18.0482 5.43365 19.8322 7.37228 21.0112C6.49589 21.5398 5.53788 21.9193 4.53728 22.1342ZM8.32328 10.5192C8.46817 9.41504 9.00965 8.4012 9.8468 7.66672C10.6839 6.93225 11.7596 6.52726 12.8733 6.52726C13.987 6.52726 15.0626 6.93225 15.8998 7.66672C16.7369 8.4012 17.2784 9.41504 17.4233 10.5192H8.32328ZM16.5763 2.64925C20.9203 0.612248 22.4993 2.78825 22.0223 5.00525C21.9563 5.31025 21.7223 6.12325 21.5063 6.82425C20.351 4.9418 18.6233 3.47871 16.5763 2.64925Z" fill="white"/>
</svg>
