<svg width="24" height="23" viewBox="0 0 24 23" fill="none" xmlns="http://www.w3.org/2000/svg">
<path d="M19.5025 3.41151C19.4398 3.34951 19.3765 3.28852 19.3125 3.22852L19.5025 3.41151Z" fill="white"/>
<path d="M1.0395 9.53027C1.0395 9.53027 1.0075 9.56926 0.958502 9.63026C0.951502 9.66626 0.9445 9.70227 0.9375 9.73727C0.963398 9.66457 0.997627 9.59511 1.0395 9.53027Z" fill="white"/>
<path d="M4.24325 4.3573L4.30525 4.2943C5.75515 2.84641 7.5966 1.85383 9.60313 1.43863C11.6097 1.02343 13.6938 1.20371 15.5993 1.9573C16.4635 2.09069 17.2995 2.36678 18.0732 2.7743C15.9468 1.26719 13.3531 0.566669 10.7571 0.798293C8.161 1.02992 5.7323 2.17854 3.90625 4.0383C4.00588 4.1573 4.11896 4.26435 4.24325 4.3573Z" fill="white"/>
<path d="M8.13263 12.606C8.05909 12.5466 7.99205 12.4795 7.93262 12.406C7.9124 12.5719 7.90205 12.7388 7.90162 12.906C7.89916 13.2578 7.95111 13.608 8.05563 13.944C8.17579 14.3241 8.37517 14.6745 8.64062 14.972C8.85438 15.2092 9.10126 15.4143 9.37362 15.581L9.35662 15.608C10.0104 15.6422 10.6658 15.5894 11.3056 15.451C11.9569 15.1556 12.5684 14.7793 13.1256 14.331C13.4056 14.051 13.7326 14.191 14.0126 14.191C14.2926 14.191 14.3856 13.771 14.0126 13.351C13.6436 13.0473 13.1892 12.8662 12.7125 12.8327C12.2358 12.7991 11.7605 12.9149 11.3526 13.164C10.3726 13.82 8.97263 13.306 8.13263 12.606ZM8.80862 6.45098C8.73322 6.72773 8.69423 7.01314 8.69263 7.29998C8.6895 7.6491 8.76003 7.99496 8.89963 8.31498C8.99671 8.53679 9.11141 8.75048 9.24262 8.95398C9.31662 9.06798 9.38562 9.16198 9.44963 9.25398C9.57847 9.13541 9.71584 9.02645 9.86062 8.92798C10.1406 8.74098 11.2136 8.22798 11.3536 8.08798C11.4936 7.94798 11.7736 7.20098 11.5406 6.96798C11.3076 6.73498 9.81363 6.87498 9.34763 6.78098C9.14088 6.72299 8.95428 6.60874 8.80862 6.45098ZM9.10863 11.017V11.023L9.11362 11.012L9.10863 11.017ZM22.9246 8.92298C22.8694 9.28706 22.7293 9.63304 22.5156 9.93298C22.5511 9.76884 22.5632 9.60051 22.5516 9.43298C22.6442 8.31862 22.4683 7.19831 22.0386 6.16598C21.6757 5.32892 21.1154 4.59225 20.4056 4.01898V4.35098C20.2656 3.88398 18.9586 2.99798 18.9586 2.99798V3.46498C21.2916 5.61198 21.5256 7.10498 21.5256 7.10498C20.9299 5.78257 20.0161 4.62822 18.8656 3.74498C17.9239 3.03091 16.843 2.52198 15.6926 2.25098C17.0917 3.068 18.2632 4.22335 19.0996 5.61098C18.8385 5.3052 18.5174 5.05628 18.1562 4.87962C17.7949 4.70297 17.4013 4.60234 16.9996 4.58398C17.6949 5.16415 18.2662 5.87833 18.6796 6.68398C19.123 7.77936 19.3298 8.95607 19.2866 10.137C19.0935 9.66511 18.7487 9.27103 18.3066 9.01698C18.3066 9.01698 18.4466 10.417 18.5396 11.21C18.5392 11.9839 18.4291 12.7539 18.2126 13.497C18.2126 12.937 17.8856 12.797 17.8856 12.797C17.8892 13.423 17.7622 14.0429 17.5126 14.617C17.0456 16.11 16.1596 16.624 16.0196 16.577C15.8796 16.53 16.0196 16.297 16.0196 16.297C16.0196 16.297 15.7866 16.11 15.4596 16.624C15.2351 16.9445 14.9264 17.1967 14.5676 17.353C14.7196 17.267 14.7596 16.953 14.7596 16.953C14.175 17.1755 13.5626 17.3169 12.9396 17.373C12.5655 17.4657 12.1756 17.4762 11.797 17.4037C11.4184 17.3312 11.06 17.1774 10.7466 16.953C10.8866 16.813 11.5396 16.953 11.5396 16.953C11.5396 16.813 10.7926 16.58 10.0466 16.486C9.83971 16.4759 9.63795 16.418 9.45716 16.3168C9.27637 16.2157 9.12148 16.074 9.00463 15.903C8.743 15.7291 8.50443 15.5228 8.29462 15.289C8.08389 15.0528 7.90841 14.7874 7.77362 14.501C7.54613 14.0028 7.4314 13.4606 7.43763 12.913C7.43865 12.518 7.487 12.1245 7.58162 11.741C7.62037 11.5772 7.66981 11.4162 7.72963 11.259H7.73963C7.77319 11.1365 7.83162 11.0222 7.91128 10.9233C7.99093 10.8244 8.09011 10.7429 8.20263 10.684C8.13829 10.6402 8.07151 10.6001 8.00262 10.564C7.70091 10.3982 7.35279 10.337 7.01262 10.39C6.66228 10.4571 6.33391 10.6096 6.05663 10.834C5.7741 11.0576 5.5526 11.349 5.41262 11.681C5.26666 12.0201 5.19211 12.3857 5.19362 12.755C5.19509 13.1296 5.26525 13.5007 5.40063 13.85C5.53805 14.2033 5.72821 14.5337 5.96462 14.83C6.20298 15.129 6.47475 15.3997 6.77463 15.637C6.46004 15.4152 6.17183 15.1582 5.91562 14.871C5.65675 14.5808 5.44333 14.2531 5.28263 13.899C5.12019 13.54 5.02494 13.1543 5.00163 12.761C4.97828 12.3615 5.03751 11.9615 5.17562 11.586C5.31478 11.2004 5.54942 10.8563 5.85762 10.586C6.01204 10.455 6.1796 10.3404 6.35762 10.244C6.5416 10.1445 6.73897 10.0721 6.94362 10.029C7.1529 9.98595 7.36797 9.97884 7.57962 10.008C7.79019 10.0378 7.99492 10.0999 8.18662 10.192C8.37496 10.2823 8.55187 10.3948 8.71362 10.527C8.79416 10.5923 8.87126 10.6617 8.94463 10.735C8.98129 10.7716 9.01696 10.8093 9.05162 10.848C9.08062 10.881 9.10763 10.912 9.13663 10.948C9.24035 10.5216 9.24786 10.0776 9.15862 9.64798C9.07062 9.52298 8.94562 9.36598 8.80462 9.14198C8.67683 8.93664 8.56387 8.72242 8.46663 8.50098C8.30122 8.12267 8.21707 7.71385 8.21963 7.30098C8.22225 6.92797 8.27953 6.55737 8.38963 6.20098C8.41563 6.11498 8.44163 6.03998 8.46563 5.97598C8.77492 5.10087 9.30015 4.31801 9.99262 3.69998C9.41858 3.67392 8.84679 3.78773 8.32647 4.0316C7.80614 4.27548 7.35286 4.64212 7.00562 5.09998L6.99063 5.09098C6.70749 5.37926 6.50357 5.73577 6.39862 6.12598C6.40893 5.71455 6.47383 5.30631 6.59163 4.91198C5.97509 4.75561 5.33004 4.74944 4.71062 4.89398V4.90898C4.30724 4.98528 3.921 5.13402 3.57063 5.34798C3.25228 5.541 2.95732 5.77019 2.69162 6.03098C2.40415 6.30747 2.14825 6.61502 1.92863 6.94798L1.91562 6.93998C1.25518 8.16204 0.783184 9.47688 0.515625 10.84C0.627579 10.5 0.801509 10.1837 1.02862 9.90698C0.561625 10.607 0.655625 13.827 0.655625 13.827C0.680811 13.4398 0.775665 13.0604 0.935625 12.707C1.16783 15.4612 2.45511 18.0193 4.52862 19.847C6.08157 21.3163 8.0264 22.3051 10.1286 22.694C9.52163 22.507 9.38162 22.227 9.38162 22.227C10.3754 22.6844 11.4609 22.9078 12.5546 22.88C12.2276 22.693 12.1816 22.553 12.1816 22.553C14.0936 22.606 15.9926 22.223 17.7346 21.433C18.2149 21.038 18.6251 20.5647 18.9476 20.033C20.343 19.3323 21.461 18.1812 22.1206 16.766C22.3085 16.2056 22.3085 15.5993 22.1206 15.039C22.1206 15.039 22.1206 14.992 22.9136 13.219C23.3568 11.8209 23.3613 10.3207 22.9266 8.91998L22.9246 8.92298ZM3.33162 4.94598C3.53437 4.82381 3.74714 4.7191 3.96762 4.63298C3.70813 4.42472 3.49886 4.16071 3.35535 3.86053C3.21184 3.56035 3.13776 3.2317 3.13863 2.89898C2.38155 3.80021 1.96905 4.94097 1.97462 6.11798L2.01363 6.07298C2.39189 5.63127 2.83653 5.25106 3.33162 4.94598Z" fill="white"/>
</svg>
