<svg width="22" height="24" viewBox="0 0 22 24" fill="none" xmlns="http://www.w3.org/2000/svg">
<path d="M15.1732 12.0072C15.1732 11.9282 15.1732 11.8482 15.1732 11.7682C15.2342 9.6777 14.9762 7.59007 14.4082 5.57724C14.2355 5.0311 13.9824 4.51375 13.6572 4.04224C13.4333 3.72789 13.1637 3.4488 12.8572 3.21424C12.5603 2.99729 12.2186 2.84967 11.8572 2.78224C11.5864 2.7262 11.3107 2.69806 11.0342 2.69824C10.9732 2.69824 10.9242 2.69824 10.8882 2.69824C10.8522 2.69824 10.8032 2.69824 10.7422 2.69824C10.4657 2.69806 10.1899 2.7262 9.91918 2.78224C9.55775 2.84967 9.21603 2.99729 8.91918 3.21424C8.6127 3.44879 8.34305 3.72788 8.11918 4.04224C7.58625 4.85304 7.22516 5.76446 7.05819 6.72024C6.73871 8.38356 6.58594 10.0746 6.60218 11.7682C6.60218 11.8362 6.60218 11.9042 6.60218 11.9682C6.60218 12.0322 6.60218 12.1312 6.60218 12.2142C6.54239 14.2482 6.80085 16.2791 7.36819 18.2332C7.54152 18.7684 7.79507 19.2742 8.12019 19.7332C8.34512 20.0406 8.61477 20.3126 8.92019 20.5402C9.21854 20.7523 9.55997 20.8961 9.92019 20.9612C10.1908 21.0155 10.4662 21.0426 10.7422 21.0422C10.8032 21.0422 10.8522 21.0422 10.8882 21.0422C10.9242 21.0422 10.9732 21.0422 11.0342 21.0422C11.3102 21.0426 11.5856 21.0155 11.8562 20.9612C12.2164 20.8961 12.5578 20.7523 12.8562 20.5402C13.1616 20.3127 13.4313 20.0406 13.6562 19.7332C14.188 18.9466 14.5497 18.0577 14.7182 17.1232C15.037 15.5081 15.1899 13.8645 15.1742 12.2182C15.1742 12.1462 15.1742 12.0772 15.1732 12.0072ZM14.0822 18.1232C13.9206 18.6225 13.6846 19.0944 13.3822 19.5232C13.177 19.8037 12.9309 20.0518 12.6522 20.2592C12.3957 20.4399 12.1029 20.5624 11.7942 20.6182C11.5463 20.6678 11.294 20.6926 11.0412 20.6922H10.9312H10.8962H10.8602H10.7502C10.4973 20.6926 10.2451 20.6678 9.99719 20.6182C9.68849 20.5624 9.39569 20.4399 9.13919 20.2592C8.86041 20.0518 8.61434 19.8037 8.40919 19.5232C7.90699 18.7748 7.5664 17.9298 7.40919 17.0422C7.08424 15.3818 6.93341 13.692 6.95918 12.0002C6.88273 9.8686 7.13537 7.73791 7.70819 5.68324C7.87015 5.16956 8.10776 4.68288 8.41319 4.23924C8.61739 3.95219 8.86345 3.69736 9.14318 3.48324C9.39837 3.29849 9.69144 3.17279 10.0012 3.11524C10.2486 3.0644 10.5006 3.03893 10.7532 3.03924H10.8632H10.8982H10.9332H11.0432C11.2958 3.03892 11.5478 3.06439 11.7952 3.11524C12.1049 3.17279 12.398 3.29849 12.6532 3.48324C12.9329 3.69734 13.179 3.95217 13.3832 4.23924C13.887 5.01246 14.2274 5.8806 14.3832 6.79024C14.7083 8.49721 14.8591 10.2328 14.8332 11.9702C14.9091 14.048 14.6556 16.1247 14.0822 18.1232Z" fill="white"/>
<path d="M21.1071 8.16372C20.5603 5.891 19.2426 3.87808 17.3784 2.46773C15.5143 1.05738 13.2189 0.336807 10.8831 0.428719C7.50509 0.428719 2.56909 1.75072 0.659094 8.16372C0.300529 9.37063 0.131847 10.626 0.159094 11.8847C0.131879 13.1435 0.300561 14.3988 0.659094 15.6057C2.56809 22.0187 7.50509 23.3407 10.8831 23.3407C13.2189 23.4326 15.5143 22.7121 17.3784 21.3017C19.2426 19.8914 20.5603 17.8784 21.1071 15.6057C21.4657 14.3988 21.6344 13.1435 21.6071 11.8847C21.6343 10.626 21.4657 9.37063 21.1071 8.16372ZM13.2261 20.8917C12.5266 21.3382 11.714 21.5754 10.8841 21.5754C10.0542 21.5754 9.24163 21.3382 8.5421 20.8917C7.5701 20.1147 6.30909 18.4677 6.29109 11.8837C6.31009 5.30072 7.57109 3.65372 8.5421 2.87572C9.24163 2.42923 10.0542 2.192 10.8841 2.192C11.714 2.192 12.5266 2.42923 13.2261 2.87572C14.1981 3.65272 15.4591 5.29972 15.4771 11.8837C15.4551 18.4677 14.1981 20.1137 13.2261 20.8917Z" fill="white"/>
</svg>
