<svg width="22" height="24" viewBox="0 0 22 24" fill="none" xmlns="http://www.w3.org/2000/svg">
<path d="M10.7242 2.71589C10.3068 2.71617 9.88968 2.74154 9.47525 2.79189C9.44832 2.69211 9.40249 2.59841 9.34025 2.51589C9.5621 2.29445 9.68753 1.99435 9.68925 1.68089C9.65859 1.33938 9.50125 1.0217 9.24818 0.79033C8.99512 0.558965 8.66464 0.430664 8.32175 0.430664C7.97886 0.430664 7.64838 0.558965 7.39531 0.79033C7.14225 1.0217 6.98491 1.33938 6.95425 1.68089C6.96215 1.95357 7.05778 2.21644 7.22694 2.43045C7.3961 2.64447 7.62976 2.79823 7.89325 2.86889C7.88002 2.94902 7.88002 3.03077 7.89325 3.11089C5.38199 3.82663 3.23568 5.46827 1.88743 7.70454C0.539171 9.94082 0.0893335 12.6053 0.628682 15.1602C1.16803 17.7152 2.65642 19.9705 4.79351 21.471C6.9306 22.9715 9.55729 23.6056 12.1436 23.2452C14.7299 22.8849 17.0832 21.5569 18.7287 19.5294C20.3742 17.5018 21.1895 14.9256 21.0099 12.3205C20.8303 9.71542 19.6692 7.27543 17.761 5.49288C15.8528 3.71032 13.3395 2.71791 10.7282 2.71589H10.7242ZM7.27825 1.68089C7.30112 1.42004 7.4209 1.17722 7.61398 1.00034C7.80705 0.823447 8.0594 0.725327 8.32125 0.725327C8.5831 0.725327 8.83545 0.823447 9.02853 1.00034C9.2216 1.17722 9.34138 1.42004 9.36425 1.68089C9.36302 1.9148 9.27128 2.13915 9.10825 2.30689C9.01685 2.25177 8.91544 2.2153 8.80987 2.1996C8.7043 2.18389 8.59666 2.18926 8.49317 2.21538C8.38969 2.24151 8.2924 2.28788 8.20694 2.35182C8.12148 2.41576 8.04953 2.49599 7.99525 2.58789C7.79398 2.53412 7.61546 2.41678 7.48627 2.25335C7.35708 2.08992 7.28412 1.88914 7.27825 1.68089ZM10.7242 21.7049C9.00691 21.7049 7.32815 21.1956 5.90023 20.2415C4.47232 19.2874 3.3594 17.9313 2.7022 16.3447C2.04501 14.7581 1.87306 13.0123 2.20809 11.3279C2.54313 9.64359 3.3701 8.09642 4.58444 6.88208C5.79878 5.66775 7.34594 4.84077 9.03028 4.50573C10.7146 4.1707 12.4605 4.34265 14.0471 4.99985C15.6337 5.65704 16.9898 6.76997 17.9439 8.19788C18.898 9.62579 19.4072 11.3046 19.4072 13.0219C19.407 15.3247 18.4921 17.5331 16.8638 19.1614C15.2354 20.7897 13.027 21.7046 10.7242 21.7049Z" fill="white"/>
<path d="M16.7862 16.6929L17.3532 17.0529C18.3629 15.39 18.7126 13.409 18.3332 11.5009L17.7192 11.6379C17.701 11.643 17.682 11.6444 17.6632 11.6419C17.6445 11.6394 17.6264 11.6331 17.6102 11.6234C17.594 11.6136 17.5799 11.6007 17.5689 11.5854C17.5578 11.57 17.55 11.5526 17.5459 11.5341C17.5418 11.5157 17.5415 11.4966 17.5451 11.478C17.5486 11.4594 17.5559 11.4418 17.5665 11.4261C17.5771 11.4105 17.5908 11.3971 17.6068 11.387C17.6227 11.3768 17.6406 11.37 17.6592 11.3669L18.2742 11.2299C17.824 9.3381 16.6803 7.68408 15.0692 6.59492L14.6692 7.22392C14.6594 7.23935 14.6467 7.2527 14.6318 7.26321C14.6168 7.27373 14.6 7.28119 14.5821 7.28518C14.5643 7.28917 14.5459 7.28962 14.5279 7.28648C14.5099 7.28335 14.4927 7.2767 14.4772 7.26691C14.4618 7.25713 14.4484 7.24441 14.4379 7.22946C14.4274 7.21452 14.4199 7.19765 14.416 7.17983C14.412 7.162 14.4115 7.14355 14.4147 7.12555C14.4178 7.10755 14.4244 7.09034 14.4342 7.07491L14.8342 6.44392C13.1772 5.41041 11.1918 5.03875 9.27322 5.40292L9.43322 6.12092C9.43834 6.13912 9.43968 6.15818 9.43718 6.17693C9.43468 6.19567 9.42838 6.2137 9.41866 6.22993C9.40895 6.24615 9.39603 6.26022 9.38069 6.27128C9.36535 6.28234 9.34792 6.29016 9.32945 6.29424C9.31099 6.29833 9.29188 6.29861 9.27331 6.29506C9.25474 6.29151 9.23708 6.28421 9.22143 6.2736C9.20578 6.26299 9.19245 6.2493 9.18227 6.23336C9.17209 6.21743 9.16526 6.19958 9.16222 6.18092L9.00121 5.45892C7.08391 5.89664 5.40416 7.04567 4.30122 8.67392L4.93722 9.07391C4.95265 9.0837 4.966 9.09643 4.97651 9.11137C4.98702 9.12632 4.99449 9.14318 4.99848 9.16101C5.00248 9.17884 5.00292 9.19728 4.99979 9.21528C4.99665 9.23328 4.99 9.25049 4.98022 9.26592C4.97044 9.28135 4.95771 9.2947 4.94277 9.30521C4.92782 9.31573 4.91095 9.32319 4.89312 9.32718C4.87529 9.33117 4.85685 9.33162 4.83885 9.32848C4.82085 9.32535 4.80365 9.3187 4.78822 9.30891L4.15022 8.90292C3.10286 10.5786 2.73313 12.5903 3.11622 14.5289L3.85622 14.3639C3.87442 14.3588 3.89348 14.3575 3.91223 14.36C3.93097 14.3625 3.949 14.3688 3.96523 14.3785C3.98145 14.3882 3.99553 14.4011 4.00659 14.4165C4.01764 14.4318 4.02546 14.4492 4.02954 14.4677C4.03363 14.4861 4.03391 14.5053 4.03036 14.5238C4.02681 14.5424 4.01951 14.5601 4.0089 14.5757C3.99829 14.5914 3.9846 14.6047 3.96866 14.6149C3.95272 14.625 3.93488 14.6319 3.91622 14.6349L3.17422 14.7999C3.62958 16.7243 4.80197 18.4024 6.45222 19.4919L6.90622 18.7779C6.91601 18.7625 6.92873 18.7491 6.94367 18.7386C6.95862 18.7281 6.97548 18.7206 6.99331 18.7167C7.01114 18.7127 7.02958 18.7122 7.04758 18.7154C7.06558 18.7185 7.08278 18.7251 7.09822 18.7349C7.11365 18.7447 7.127 18.7574 7.13751 18.7724C7.14803 18.7873 7.15549 18.8042 7.15949 18.822C7.16348 18.8398 7.16392 18.8583 7.16078 18.8763C7.15765 18.8943 7.15101 18.9115 7.14122 18.9269L6.68722 19.6409C8.36908 20.6641 10.3763 21.0114 12.3042 20.6129L12.1412 19.8819C12.1361 19.8637 12.1348 19.8446 12.1373 19.8259C12.1398 19.8072 12.1461 19.7891 12.1558 19.7729C12.1655 19.7567 12.1784 19.7426 12.1938 19.7315C12.2091 19.7205 12.2265 19.7127 12.245 19.7086C12.2635 19.7045 12.2826 19.7042 12.3011 19.7078C12.3197 19.7113 12.3374 19.7186 12.353 19.7292C12.3687 19.7398 12.382 19.7535 12.3922 19.7695C12.4023 19.7854 12.4092 19.8033 12.4122 19.8219L12.5752 20.5519C14.4756 20.0864 16.1302 18.9207 17.2082 17.2879L16.6412 16.9279C16.6246 16.9188 16.6099 16.9063 16.5983 16.8913C16.5866 16.8763 16.5782 16.859 16.5734 16.8406C16.5687 16.8222 16.5678 16.803 16.5708 16.7842C16.5738 16.7654 16.5806 16.7474 16.5908 16.7314C16.6011 16.7154 16.6145 16.7016 16.6302 16.6909C16.646 16.6803 16.6637 16.673 16.6824 16.6695C16.7011 16.6659 16.7203 16.6663 16.7388 16.6705C16.7574 16.6747 16.7749 16.6827 16.7902 16.6939L16.7862 16.6929ZM7.60822 10.8449L9.02522 11.3619C9.23076 11.1527 9.47316 10.9832 9.74022 10.8619V7.98891L10.9842 10.6599C11.0808 10.6704 11.1766 10.6868 11.2712 10.7089L11.0632 10.9089C10.7568 10.861 10.4436 10.88 10.1451 10.9646C9.8467 11.0492 9.57013 11.1974 9.33441 11.399C9.09868 11.6006 8.90939 11.8509 8.77955 12.1326C8.64971 12.4143 8.58239 12.7207 8.58222 13.0309C8.58206 13.2691 8.6216 13.5057 8.69922 13.7309L8.54822 13.9819V13.9739H5.70822L8.36922 12.7349C8.40578 12.4378 8.49842 12.1504 8.64222 11.8879L7.60822 10.8449ZM6.07822 18.6919L9.87222 12.3859L9.90322 12.3349L9.93022 12.3089L15.2622 7.30891L11.4682 13.6149L11.4372 13.6659L11.4102 13.6919L6.07822 18.6919ZM13.9782 15.0359L12.5892 14.5049C12.4027 14.7383 12.1741 14.9347 11.9152 15.0839L11.9512 15.0779L11.9052 18.0429L10.7252 15.4009C10.5251 15.4006 10.3259 15.375 10.1322 15.3249L10.3322 15.1329C10.6422 15.1906 10.961 15.1794 11.2661 15.0999C11.5712 15.0205 11.8551 14.8749 12.0975 14.6734C12.34 14.4719 12.5351 14.2194 12.669 13.934C12.8029 13.6486 12.8723 13.3372 12.8722 13.0219C12.8726 12.7018 12.8012 12.3857 12.6632 12.0969L12.8032 11.8639L12.8112 11.8769L15.7112 11.9219L13.1082 13.0899C13.1004 13.3846 13.0376 13.6752 12.9232 13.9469L13.9782 15.0359ZM10.7052 12.3569C10.574 12.3628 10.4475 12.4074 10.3417 12.4852C10.2359 12.5629 10.1555 12.6703 10.1107 12.7937C10.0659 12.9172 10.0587 13.0511 10.09 13.1786C10.1213 13.3062 10.1898 13.4215 10.2867 13.5102C10.3836 13.5988 10.5045 13.6567 10.6343 13.6766C10.7641 13.6965 10.8969 13.6774 11.0159 13.6219C11.1349 13.5663 11.2347 13.4767 11.3027 13.3644C11.3708 13.2521 11.404 13.1221 11.3982 12.9909C11.3944 12.9034 11.3733 12.8176 11.3361 12.7383C11.2989 12.659 11.2464 12.5878 11.1817 12.5289C11.1169 12.4699 11.0411 12.4244 10.9586 12.3949C10.8762 12.3654 10.7887 12.3525 10.7012 12.3569H10.7052Z" fill="white"/>
</svg>
