<svg width="23" height="23" viewBox="0 0 23 23" fill="none" xmlns="http://www.w3.org/2000/svg">
<path d="M4.3125 2.15625H18.6875C19.2594 2.15625 19.8078 2.38343 20.2122 2.7878C20.6166 3.19218 20.8438 3.74063 20.8438 4.3125V18.6875C20.8438 19.2594 20.6166 19.8078 20.2122 20.2122C19.8078 20.6166 19.2594 20.8438 18.6875 20.8438H14.8501C12.7894 20.0797 12.5781 18.1607 12.5781 15.8125V11.9463L13.6124 12.9813C13.8147 13.1836 14.089 13.2972 14.375 13.2972C14.661 13.2972 14.9353 13.1836 15.1376 12.9813C15.3398 12.7791 15.4535 12.5048 15.4535 12.2188C15.4535 11.9327 15.3398 11.6584 15.1376 11.4562L12.2626 8.58116C12.1625 8.48097 12.0436 8.40149 11.9127 8.34727C11.7819 8.29305 11.6416 8.26514 11.5 8.26514C11.3584 8.26514 11.2181 8.29305 11.0873 8.34727C10.9564 8.40149 10.8375 8.48097 10.7374 8.58116L7.86241 11.4562C7.66015 11.6584 7.54653 11.9327 7.54653 12.2188C7.54653 12.5048 7.66015 12.7791 7.86241 12.9813C8.06466 13.1836 8.33897 13.2972 8.625 13.2972C8.91103 13.2972 9.18534 13.1836 9.38759 12.9813L10.4219 11.9463V15.8125C10.4219 17.0408 10.4305 19.1612 11.5288 20.8438H4.3125C3.74063 20.8438 3.19218 20.6166 2.7878 20.2122C2.38342 19.8078 2.15625 19.2594 2.15625 18.6875V4.3125C2.15625 3.74063 2.38342 3.19218 2.7878 2.7878C3.19218 2.38343 3.74063 2.15625 4.3125 2.15625Z" fill="#26B4B0"/>
</svg>
