<svg width="24" height="24" viewBox="0 0 24 24" fill="none" xmlns="http://www.w3.org/2000/svg">
<path d="M20.8972 0.216797H2.9512C2.24377 0.217327 1.56546 0.498589 1.06523 0.998821C0.564995 1.49905 0.283733 2.17736 0.283203 2.8848L0.283203 20.8308C0.283733 21.5382 0.564995 22.2165 1.06523 22.7168C1.56546 23.217 2.24377 23.4983 2.9512 23.4988H20.8972C21.6046 23.4983 22.2829 23.217 22.7832 22.7168C23.2834 22.2165 23.5647 21.5382 23.5652 20.8308V2.8848C23.5647 2.17736 23.2834 1.49905 22.7832 0.998821C22.2829 0.498589 21.6046 0.217327 20.8972 0.216797V0.216797ZM9.9832 18.8908C9.9832 19.3417 9.8041 19.7741 9.48528 20.0929C9.16647 20.4117 8.73407 20.5908 8.2832 20.5908H4.8832C4.43233 20.5908 3.99993 20.4117 3.68112 20.0929C3.36231 19.7741 3.1832 19.3417 3.1832 18.8908V15.4908C3.1832 15.0399 3.36231 14.6075 3.68112 14.2887C3.99993 13.9699 4.43233 13.7908 4.8832 13.7908H8.2832C8.73407 13.7908 9.16647 13.9699 9.48528 14.2887C9.8041 14.6075 9.9832 15.0399 9.9832 15.4908V18.8908ZM10.7832 5.0508L6.2832 10.3858C6.21506 10.467 6.12997 10.5322 6.03392 10.577C5.93787 10.6218 5.83318 10.645 5.7272 10.645C5.62123 10.645 5.51654 10.6218 5.42049 10.577C5.32443 10.5322 5.23935 10.467 5.1712 10.3858L3.3712 8.2518C3.26542 8.10319 3.21937 7.92025 3.24218 7.73927C3.265 7.55829 3.35502 7.3925 3.49437 7.2748C3.63373 7.1571 3.81223 7.09608 3.99448 7.10386C4.17672 7.11164 4.34939 7.18765 4.4782 7.3168L5.7232 8.7898L9.6702 4.1168C9.73074 4.04089 9.80587 3.97788 9.89115 3.93149C9.97643 3.88509 10.0701 3.85625 10.1668 3.84666C10.2634 3.83707 10.3609 3.84692 10.4537 3.87565C10.5464 3.90438 10.6325 3.95139 10.7067 4.01391C10.781 4.07643 10.842 4.15319 10.8861 4.23967C10.9303 4.32615 10.9566 4.4206 10.9637 4.51743C10.9707 4.61426 10.9583 4.71152 10.9271 4.80347C10.8959 4.89542 10.8467 4.9802 10.7822 5.0528L10.7832 5.0508ZM19.9282 20.1028H13.6212C13.5234 20.1064 13.4259 20.0903 13.3344 20.0554C13.243 20.0204 13.1596 19.9674 13.0891 19.8995C13.0186 19.8316 12.9625 19.7502 12.9243 19.6601C12.886 19.57 12.8662 19.4732 12.8662 19.3753C12.8662 19.2774 12.886 19.1806 12.9243 19.0905C12.9625 19.0004 13.0186 18.919 13.0891 18.8511C13.1596 18.7832 13.243 18.7302 13.3344 18.6952C13.4259 18.6603 13.5234 18.6442 13.6212 18.6478H19.9262C20.024 18.6442 20.1215 18.6603 20.213 18.6952C20.3044 18.7302 20.3878 18.7832 20.4583 18.8511C20.5288 18.919 20.5849 19.0004 20.6232 19.0905C20.6614 19.1806 20.6812 19.2774 20.6812 19.3753C20.6812 19.4732 20.6614 19.57 20.6232 19.6601C20.5849 19.7502 20.5288 19.8316 20.4583 19.8995C20.3878 19.9674 20.3044 20.0204 20.213 20.0554C20.1215 20.0903 20.024 20.1064 19.9262 20.1028H19.9282ZM19.9282 16.2228H13.6212C13.5234 16.2264 13.4259 16.2103 13.3344 16.1754C13.243 16.1404 13.1596 16.0874 13.0891 16.0195C13.0186 15.9516 12.9625 15.8702 12.9243 15.7801C12.886 15.69 12.8662 15.5932 12.8662 15.4953C12.8662 15.3974 12.886 15.3006 12.9243 15.2105C12.9625 15.1204 13.0186 15.039 13.0891 14.9711C13.1596 14.9032 13.243 14.8502 13.3344 14.8152C13.4259 14.7803 13.5234 14.7642 13.6212 14.7678H19.9262C20.024 14.7642 20.1215 14.7803 20.213 14.8152C20.3044 14.8502 20.3878 14.9032 20.4583 14.9711C20.5288 15.039 20.5849 15.1204 20.6232 15.2105C20.6614 15.3006 20.6812 15.3974 20.6812 15.4953C20.6812 15.5932 20.6614 15.69 20.6232 15.7801C20.5849 15.8702 20.5288 15.9516 20.4583 16.0195C20.3878 16.0874 20.3044 16.1404 20.213 16.1754C20.1215 16.2103 20.024 16.2264 19.9262 16.2228H19.9282ZM19.9282 10.4028H13.6212C13.5234 10.4064 13.4259 10.3903 13.3344 10.3554C13.243 10.3204 13.1596 10.2674 13.0891 10.1995C13.0186 10.1316 12.9625 10.0502 12.9243 9.96011C12.886 9.87004 12.8662 9.77317 12.8662 9.6753C12.8662 9.57742 12.886 9.48056 12.9243 9.39048C12.9625 9.30041 13.0186 9.21898 13.0891 9.15107C13.1596 9.08316 13.243 9.03016 13.3344 8.99523C13.4259 8.9603 13.5234 8.94417 13.6212 8.9478H19.9262C20.024 8.94417 20.1215 8.9603 20.213 8.99523C20.3044 9.03016 20.3878 9.08316 20.4583 9.15107C20.5288 9.21898 20.5849 9.30041 20.6232 9.39048C20.6614 9.48056 20.6812 9.57742 20.6812 9.6753C20.6812 9.77317 20.6614 9.87004 20.6232 9.96011C20.5849 10.0502 20.5288 10.1316 20.4583 10.1995C20.3878 10.2674 20.3044 10.3204 20.213 10.3554C20.1215 10.3903 20.024 10.4064 19.9262 10.4028H19.9282ZM19.9282 6.5228H13.6212C13.5234 6.52642 13.4259 6.51029 13.3344 6.47536C13.243 6.44044 13.1596 6.38743 13.0891 6.31952C13.0186 6.25161 12.9625 6.17018 12.9243 6.08011C12.886 5.99004 12.8662 5.89317 12.8662 5.7953C12.8662 5.69742 12.886 5.60056 12.9243 5.51048C12.9625 5.42041 13.0186 5.33898 13.0891 5.27107C13.1596 5.20316 13.243 5.15016 13.3344 5.11523C13.4259 5.0803 13.5234 5.06417 13.6212 5.0678H19.9262C20.024 5.06417 20.1215 5.0803 20.213 5.11523C20.3044 5.15016 20.3878 5.20316 20.4583 5.27107C20.5288 5.33898 20.5849 5.42041 20.6232 5.51048C20.6614 5.60056 20.6812 5.69742 20.6812 5.7953C20.6812 5.89317 20.6614 5.99004 20.6232 6.08011C20.5849 6.17018 20.5288 6.25161 20.4583 6.31952C20.3878 6.38743 20.3044 6.44044 20.213 6.47536C20.1215 6.51029 20.024 6.52642 19.9262 6.5228H19.9282Z" fill="#134773"/>
</svg>
