<svg width="30" height="30" viewBox="0 0 30 30" fill="none" xmlns="http://www.w3.org/2000/svg">
<path d="M22.989 2.31145V2.41145H23.089H24.2079C27.3465 2.41145 29.9 4.96498 29.9 8.10344V24.2024C29.9 27.3409 27.3465 29.8944 24.208 29.8944H5.79205C2.65352 29.8944 0.1 27.3409 0.1 24.2024V8.10344C0.1 4.96498 2.65352 2.41145 5.79205 2.41145H6.91098H7.01098V2.31145V1.17917C7.01098 0.587456 7.49063 0.107813 8.08234 0.107813C8.67405 0.107813 9.15369 0.587456 9.15369 1.17917V2.31145V2.41145H9.25369H20.7462H20.8462V2.31145V1.17917C20.8462 0.587456 21.3259 0.107813 21.9176 0.107813C22.5093 0.107813 22.989 0.587456 22.989 1.17917V2.31145ZM7.01098 4.65416V4.55416H6.91098H5.79205C3.83484 4.55416 2.24271 6.14629 2.24271 8.10344V9.22244V9.32244H2.34271H27.6573H27.7573V9.22244V8.10344C27.7573 6.14629 26.1652 4.55416 24.208 4.55416H23.089H22.989V4.65416V6.9383C22.989 7.53001 22.5094 8.00965 21.9177 8.00965C21.326 8.00965 20.8463 7.53001 20.8463 6.9383V4.65416V4.55416H20.7463H9.25369H9.15369V4.65416V6.9383C9.15369 7.53001 8.67405 8.00965 8.08234 8.00965C7.49063 8.00965 7.01098 7.53001 7.01098 6.9383V4.65416ZM2.34271 11.4651H2.24271V11.5651V24.2024C2.24271 26.1596 3.83484 27.7517 5.79205 27.7517H24.2079C26.1652 27.7517 27.7573 26.1596 27.7573 24.2024V11.5651V11.4651H27.6573H2.34271ZM10.3055 16.1725C10.3055 16.7642 9.8259 17.2438 9.23419 17.2438H6.93055C6.33884 17.2438 5.85919 16.7642 5.85919 16.1725C5.85919 15.5808 6.33884 15.1011 6.93055 15.1011H9.23419C9.82584 15.1011 10.3055 15.5808 10.3055 16.1725ZM24.1409 16.1725C24.1409 16.7642 23.6612 17.2438 23.0695 17.2438H20.7659C20.1742 17.2438 19.6945 16.7642 19.6945 16.1725C19.6945 15.5808 20.1742 15.1011 20.7659 15.1011H23.0695C23.6612 15.1011 24.1409 15.5808 24.1409 16.1725ZM17.2165 16.1725C17.2165 16.7642 16.7369 17.2438 16.1452 17.2438H13.8415C13.2498 17.2438 12.7702 16.7642 12.7702 16.1725C12.7702 15.5808 13.2498 15.1011 13.8415 15.1011H16.1452C16.7368 15.1011 17.2165 15.5808 17.2165 16.1725ZM10.3055 23.0835C10.3055 23.6752 9.8259 24.1548 9.23419 24.1548H6.93055C6.33884 24.1548 5.85919 23.6752 5.85919 23.0835C5.85919 22.4918 6.33884 22.0121 6.93055 22.0121H9.23419C9.82584 22.0121 10.3055 22.4918 10.3055 23.0835ZM24.1409 23.0835C24.1409 23.6752 23.6612 24.1548 23.0695 24.1548H20.7659C20.1742 24.1548 19.6945 23.6752 19.6945 23.0835C19.6945 22.4918 20.1742 22.0121 20.7659 22.0121H23.0695C23.6612 22.0121 24.1409 22.4918 24.1409 23.0835ZM17.2165 23.0835C17.2165 23.6752 16.7369 24.1548 16.1452 24.1548H13.8415C13.2498 24.1548 12.7702 23.6752 12.7702 23.0835C12.7702 22.4918 13.2498 22.0121 13.8415 22.0121H16.1452C16.7368 22.0121 17.2165 22.4918 17.2165 23.0835Z" fill="#28B7B3" stroke="#DDF2F1" stroke-width="0.2"/>
</svg>
