<svg width="17" height="18" viewBox="0 0 17 18" fill="none" xmlns="http://www.w3.org/2000/svg">
<path d="M15.068 2.43627H14.178V1.57927C14.1671 1.35 14.0684 1.13372 13.9023 0.975305C13.7362 0.816892 13.5155 0.728516 13.286 0.728516C13.0564 0.728516 12.8357 0.816892 12.6696 0.975305C12.5035 1.13372 12.4048 1.35 12.394 1.57927V2.43627H5.25397V1.57927C5.24311 1.35 5.14439 1.13372 4.9783 0.975305C4.8122 0.816892 4.59149 0.728516 4.36197 0.728516C4.13245 0.728516 3.91173 0.816892 3.74564 0.975305C3.57955 1.13372 3.48083 1.35 3.46997 1.57927V2.43627H2.57797C2.3487 2.43176 2.1208 2.47257 1.90733 2.55635C1.69387 2.64012 1.49905 2.76522 1.33404 2.92447C1.16904 3.08371 1.0371 3.27397 0.945793 3.48432C0.854487 3.69467 0.805611 3.92098 0.80197 4.15027L0.792969 16.1503C0.802682 16.6141 0.99616 17.055 1.33088 17.3763C1.66559 17.6975 2.11415 17.8726 2.57797 17.8633H15.068C15.5313 17.8708 15.9789 17.6948 16.3131 17.3738C16.6472 17.0527 16.8409 16.6126 16.852 16.1493V4.14927C16.8407 3.68615 16.6469 3.24626 16.3127 2.92541C15.9786 2.60456 15.5312 2.42874 15.068 2.43627ZM15.068 15.2923C15.0625 15.5239 14.9656 15.744 14.7985 15.9045C14.6314 16.0651 14.4076 16.153 14.176 16.1493H3.46897C3.23729 16.153 3.01352 16.0651 2.84643 15.9045C2.67934 15.744 2.58248 15.5239 2.57697 15.2923V6.72127H15.068V15.2923ZM4.36097 8.43527H6.14497V10.1493H4.36097V8.43527ZM7.92997 8.43527H9.71397V10.1493H7.92997V8.43527ZM11.499 8.43527H13.283V10.1493H11.499V8.43527Z" fill="white"/>
</svg>
