<svg width="43" height="43" viewBox="0 0 43 43" fill="none" xmlns="http://www.w3.org/2000/svg">
<path d="M38.039 0.556641H4.227C3.10908 0.560567 2.0384 1.00277 1.24987 1.78622C0.461353 2.56967 0.0194038 3.63037 0.0209999 4.73559L0 42.3422L8.453 33.9853H38.039C39.1591 33.9821 40.2324 33.5408 41.0244 32.7578C41.8165 31.9748 42.2628 30.9137 42.266 29.8063V4.73559C42.2628 3.62823 41.8165 2.56711 41.0244 1.78408C40.2324 1.00106 39.1591 0.559771 38.039 0.556641ZM10.567 15.1815H31.7C31.9776 15.1815 32.2524 15.2355 32.5088 15.3405C32.7652 15.4455 32.9982 15.5994 33.1945 15.7935C33.3907 15.9875 33.5464 16.2178 33.6526 16.4713C33.7588 16.7248 33.8135 16.9966 33.8135 17.2709C33.8135 17.5453 33.7588 17.817 33.6526 18.0706C33.5464 18.3241 33.3907 18.5544 33.1945 18.7484C32.9982 18.9425 32.7652 19.0964 32.5088 19.2014C32.2524 19.3064 31.9776 19.3604 31.7 19.3604H10.567C10.0065 19.3604 9.46889 19.1403 9.07253 18.7484C8.67617 18.3566 8.4535 17.8251 8.4535 17.2709C8.4535 16.7168 8.67617 16.1853 9.07253 15.7935C9.46889 15.4016 10.0065 15.1815 10.567 15.1815ZM23.246 25.6283H10.567C10.0065 25.6283 9.46889 25.4082 9.07253 25.0164C8.67617 24.6245 8.4535 24.093 8.4535 23.5389C8.4535 22.9847 8.67617 22.4532 9.07253 22.0614C9.46889 21.6695 10.0065 21.4494 10.567 21.4494H23.247C23.8075 21.4494 24.3451 21.6695 24.7415 22.0614C25.1378 22.4532 25.3605 22.9847 25.3605 23.5389C25.3605 24.093 25.1378 24.6245 24.7415 25.0164C24.3451 25.4082 23.8075 25.6283 23.247 25.6283H23.246ZM31.7 13.0925H10.567C10.0065 13.0925 9.46889 12.8724 9.07253 12.4805C8.67617 12.0886 8.4535 11.5572 8.4535 11.003C8.4535 10.4489 8.67617 9.91739 9.07253 9.52554C9.46889 9.13369 10.0065 8.91355 10.567 8.91355H31.7C32.2605 8.91355 32.7981 9.13369 33.1945 9.52554C33.5908 9.91739 33.8135 10.4489 33.8135 11.003C33.8135 11.5572 33.5908 12.0886 33.1945 12.4805C32.7981 12.8724 32.2605 13.0925 31.7 13.0925Z" fill="white"/>
</svg>
