<svg width="26" height="22" viewBox="0 0 26 22" fill="none" xmlns="http://www.w3.org/2000/svg">
<path d="M22.9446 0.298828H12.1526C11.8556 0.298697 11.5615 0.357083 11.2871 0.47065C11.0126 0.584217 10.7633 0.75074 10.5532 0.960706C10.3431 1.17067 10.1765 1.41997 10.0628 1.69435C9.94913 1.96873 9.89062 2.26283 9.89062 2.55983V7.87583L11.6526 8.75183L12.5326 6.99083C12.658 6.73481 12.8327 6.50614 13.0469 6.31802C13.2611 6.1299 13.5104 5.98605 13.7804 5.89477C14.0504 5.80349 14.3359 5.76659 14.6203 5.7862C14.9046 5.80581 15.1823 5.88154 15.4373 6.00902C15.6922 6.1365 15.9194 6.3132 16.1057 6.52894C16.2921 6.74467 16.4338 6.99517 16.5228 7.26597C16.6118 7.53677 16.6463 7.82252 16.6243 8.10672C16.6023 8.39092 16.5242 8.66795 16.3946 8.92183L14.8256 12.0608C14.8678 12.4775 14.8298 12.8984 14.7136 13.3008H15.7496L13.0176 20.8138C12.983 20.9032 12.9665 20.9985 12.9692 21.0943C12.9719 21.1901 12.9937 21.2844 13.0333 21.3717C13.0729 21.459 13.1295 21.5374 13.1998 21.6025C13.2702 21.6676 13.3528 21.718 13.4429 21.7508C13.5329 21.7835 13.6286 21.798 13.7243 21.7933C13.8201 21.7885 13.9139 21.7648 14.0003 21.7233C14.0867 21.6819 14.164 21.6236 14.2276 21.5519C14.2911 21.4802 14.3398 21.3966 14.3706 21.3058L17.2816 13.2988H17.7816L20.7226 21.3058C20.7889 21.485 20.9237 21.6305 21.0972 21.7103C21.2708 21.7901 21.469 21.7976 21.6481 21.7313C21.8273 21.665 21.9728 21.5303 22.0526 21.3567C22.1323 21.1831 22.1399 20.985 22.0736 20.8058L19.3196 13.2988H22.9446C23.5443 13.2988 24.1194 13.0606 24.5434 12.6366C24.9674 12.2126 25.2056 11.6375 25.2056 11.0378V2.55983C25.2056 1.96017 24.9674 1.38508 24.5434 0.96106C24.1194 0.53704 23.5443 0.298828 22.9446 0.298828V0.298828ZM21.4026 10.2168H18.1736C17.9874 10.2099 17.8112 10.131 17.6819 9.99687C17.5527 9.8627 17.4805 9.68364 17.4805 9.49733C17.4805 9.31102 17.5527 9.13196 17.6819 8.99779C17.8112 8.86361 17.9874 8.78477 18.1736 8.77783H21.4026C21.4994 8.77422 21.5958 8.79016 21.6863 8.82469C21.7767 8.85923 21.8593 8.91165 21.929 8.97881C21.9987 9.04598 22.0542 9.12652 22.092 9.21561C22.1299 9.3047 22.1494 9.40052 22.1494 9.49733C22.1494 9.59414 22.1299 9.68995 22.092 9.77905C22.0542 9.86814 21.9987 9.94868 21.929 10.0158C21.8593 10.083 21.7767 10.1354 21.6863 10.17C21.5958 10.2045 21.4994 10.2204 21.4026 10.2168V10.2168ZM21.4026 7.51683H18.1736C17.9874 7.50989 17.8112 7.43104 17.6819 7.29687C17.5527 7.1627 17.4805 6.98364 17.4805 6.79733C17.4805 6.61102 17.5527 6.43196 17.6819 6.29779C17.8112 6.16361 17.9874 6.08477 18.1736 6.07783H21.4026C21.4994 6.07422 21.5958 6.09016 21.6863 6.12469C21.7767 6.15923 21.8593 6.21165 21.929 6.27881C21.9987 6.34598 22.0542 6.42652 22.092 6.51561C22.1299 6.6047 22.1494 6.70052 22.1494 6.79733C22.1494 6.89414 22.1299 6.98995 22.092 7.07905C22.0542 7.16814 21.9987 7.24868 21.929 7.31584C21.8593 7.38301 21.7767 7.43543 21.6863 7.46996C21.5958 7.5045 21.4994 7.52044 21.4026 7.51683V7.51683ZM21.4026 4.81683H13.6906C13.5939 4.82044 13.4974 4.8045 13.407 4.76996C13.3165 4.73543 13.234 4.68301 13.1642 4.61584C13.0945 4.54868 13.0391 4.46814 13.0012 4.37905C12.9633 4.28995 12.9438 4.19414 12.9438 4.09733C12.9438 4.00052 12.9633 3.9047 13.0012 3.81561C13.0391 3.72652 13.0945 3.64598 13.1642 3.57881C13.234 3.51165 13.3165 3.45923 13.407 3.42469C13.4974 3.39016 13.5939 3.37422 13.6906 3.37783H21.3986C21.4954 3.37422 21.5918 3.39016 21.6823 3.42469C21.7727 3.45923 21.8553 3.51165 21.925 3.57881C21.9947 3.64598 22.0502 3.72652 22.088 3.81561C22.1259 3.9047 22.1454 4.00052 22.1454 4.09733C22.1454 4.19414 22.1259 4.28995 22.088 4.37905C22.0502 4.46814 21.9947 4.54868 21.925 4.61584C21.8553 4.68301 21.7727 4.73543 21.6823 4.76996C21.5918 4.8045 21.4954 4.82044 21.3986 4.81683H21.4026Z" fill="#134773"/>
<path d="M13.3046 12.9913C13.4305 12.6221 13.4371 12.2226 13.3236 11.8493L15.1096 8.27733C15.1591 8.19214 15.1906 8.0977 15.2021 7.99985C15.2137 7.902 15.205 7.80282 15.1767 7.70846C15.1483 7.6141 15.1009 7.52655 15.0374 7.45125C14.9738 7.37595 14.8955 7.31449 14.8073 7.27067C14.719 7.22686 14.6227 7.20162 14.5243 7.19652C14.4259 7.19142 14.3275 7.20658 14.2352 7.24104C14.1429 7.27551 14.0587 7.32855 13.9877 7.39688C13.9167 7.46522 13.8605 7.5474 13.8226 7.63833L12.2996 10.6843L8.8916 8.98433C7.98192 8.3974 6.93385 8.06012 5.8526 8.00633H5.2166C5.93787 8.00646 6.63712 7.75787 7.19646 7.30249C7.7558 6.84711 8.141 6.21279 8.28713 5.50648C8.43326 4.80017 8.33137 4.06507 7.99865 3.42513C7.66592 2.78519 7.12271 2.27956 6.4606 1.99348C5.79849 1.70739 5.05799 1.65837 4.36395 1.85466C3.6699 2.05096 3.06477 2.48057 2.65058 3.07106C2.2364 3.66155 2.03849 4.37679 2.09022 5.09621C2.14196 5.81562 2.44018 6.49519 2.9346 7.02033C3.22735 7.33197 3.5809 7.58025 3.97341 7.74984C4.36591 7.91943 4.78902 8.00673 5.2166 8.00633C4.00496 8.00959 2.84354 8.49076 1.9846 9.34533C1.55772 9.76873 1.21925 10.2728 0.988862 10.8281C0.758479 11.3835 0.640777 11.9791 0.642599 12.5803V14.8923C0.642705 15.3664 0.791567 15.8285 1.06821 16.2135C1.34485 16.5985 1.73532 16.887 2.1846 17.0383V21.0603C2.1846 21.2513 2.26046 21.4344 2.39548 21.5694C2.53051 21.7045 2.71364 21.7803 2.9046 21.7803H7.5286C7.71956 21.7803 7.90269 21.7045 8.03772 21.5694C8.17274 21.4344 8.2486 21.2513 8.2486 21.0603V12.9733L10.5486 14.1253C10.8002 14.2515 11.0759 14.3223 11.3571 14.333C11.6384 14.3437 11.9186 14.294 12.1791 14.1873C12.4395 14.0806 12.6741 13.9194 12.8671 13.7145C13.06 13.5096 13.2068 13.2657 13.2976 12.9993V12.9913H13.3046Z" fill="#134773"/>
</svg>
