<svg width="30" height="30" viewBox="0 0 30 30" fill="none" xmlns="http://www.w3.org/2000/svg">
<path d="M20.3426 17.6503L16.1598 14.5132V8.12285C16.1598 7.48031 15.6404 6.96094 14.9979 6.96094C14.3553 6.96094 13.8359 7.48031 13.8359 8.12285V15.0942C13.8359 15.4602 14.0079 15.8053 14.3007 16.0238L18.9482 19.5094C19.1574 19.6663 19.4014 19.7418 19.6442 19.7418C19.9986 19.7418 20.3472 19.5826 20.5749 19.2759C20.9608 18.7634 20.8562 18.0349 20.3426 17.6503Z" fill="#28B7B3"/>
<path d="M15 0C6.7285 0 0 6.7285 0 15C0 23.2715 6.7285 30 15 30C23.2715 30 30 23.2715 30 15C30 6.7285 23.2715 0 15 0ZM15 27.6762C8.01123 27.6762 2.32377 21.9888 2.32377 15C2.32377 8.01123 8.01123 2.32377 15 2.32377C21.9899 2.32377 27.6762 8.01123 27.6762 15C27.6762 21.9888 21.9888 27.6762 15 27.6762Z" fill="#28B7B3"/>
</svg>
