<svg width="64" height="57" viewBox="0 0 64 57" fill="none" xmlns="http://www.w3.org/2000/svg">
<path d="M27.3095 2.75678L0.97528 48.3656C0.499591 49.1893 0.249111 50.1236 0.249023 51.0747C0.248935 52.0259 0.499242 52.9603 0.974778 53.784C1.45031 54.6077 2.13432 55.2917 2.95803 55.7673C3.78175 56.2428 4.71614 56.4931 5.66726 56.493H58.3314C59.2825 56.4931 60.2169 56.2428 61.0406 55.7673C61.8644 55.2917 62.5484 54.6077 63.0239 53.784C63.4994 52.9603 63.7497 52.0259 63.7497 51.0747C63.7496 50.1236 63.4991 49.1893 63.0234 48.3656L36.692 2.75678C36.2166 1.93331 35.5327 1.24949 34.7092 0.774062C33.8858 0.298632 32.9516 0.0483398 32.0008 0.0483398C31.0499 0.0483398 30.1157 0.298632 29.2923 0.774062C28.4688 1.24949 27.7849 1.93331 27.3095 2.75678Z" fill="white"/>
<path d="M32.3439 16.8237H31.657C29.9657 16.8237 28.5947 18.1948 28.5947 19.886V34.5231C28.5947 36.2143 29.9657 37.5854 31.657 37.5854H32.3439C34.0352 37.5854 35.4062 36.2143 35.4062 34.5231V19.886C35.4062 18.1948 34.0352 16.8237 32.3439 16.8237Z" fill="#F44343"/>
<path d="M32.0005 49.1943C33.8814 49.1943 35.4062 47.6695 35.4062 45.7885C35.4062 43.9076 33.8814 42.3828 32.0005 42.3828C30.1195 42.3828 28.5947 43.9076 28.5947 45.7885C28.5947 47.6695 30.1195 49.1943 32.0005 49.1943Z" fill="#F44343"/>
</svg>
