<svg width="23" height="23" viewBox="0 0 23 23" fill="none" xmlns="http://www.w3.org/2000/svg">
<path d="M17.3582 4.27419C17.3589 4.01838 17.3089 3.76497 17.2111 3.52861C17.1132 3.29225 16.9695 3.07764 16.7882 2.89719L14.9522 1.06219C14.5814 0.698115 14.0829 0.493538 13.5632 0.492188L13.4512 0.492188V4.38619H17.3582V4.27419V4.27419Z" fill="#134773"/>
<path d="M12.3579 13.8852C12.4849 13.5039 12.6985 13.1572 12.9819 12.8722L17.3759 8.49219V5.68419H12.8159C12.7317 5.68382 12.6485 5.66663 12.5711 5.63362C12.4937 5.60061 12.4237 5.55245 12.3651 5.49198C12.3066 5.43151 12.2608 5.35994 12.2304 5.2815C12.1999 5.20305 12.1855 5.1193 12.1879 5.03519V0.492188H2.45286C1.93665 0.492717 1.44173 0.698017 1.07671 1.06304C0.711689 1.42805 0.506389 1.92297 0.505859 2.43919L0.505859 20.6982C0.506389 21.2144 0.711689 21.7093 1.07671 22.0743C1.44173 22.4394 1.93665 22.6447 2.45286 22.6452H15.4119C15.9298 22.6452 16.4268 22.4406 16.7946 22.076C17.1625 21.7113 17.3714 21.2161 17.3759 20.6982V15.8542L16.6629 16.5542C16.3793 16.837 16.0339 17.0499 15.6539 17.1762L13.5899 17.8652L13.2759 17.8822C13.0186 17.882 12.7651 17.8207 12.5363 17.7033C12.3074 17.5859 12.1097 17.4158 11.9595 17.207C11.8093 16.9981 11.7108 16.7566 11.6723 16.5023C11.6338 16.248 11.6562 15.9881 11.7379 15.7442L12.3579 13.8852ZM3.75086 12.1742H10.2199C10.3922 12.1742 10.5576 12.2427 10.6795 12.3646C10.8014 12.4865 10.8699 12.6518 10.8699 12.8242C10.8699 12.9966 10.8014 13.1619 10.6795 13.2838C10.5576 13.4057 10.3922 13.4742 10.2199 13.4742H3.75086C3.57847 13.4742 3.41314 13.4057 3.29124 13.2838C3.16934 13.1619 3.10086 12.9966 3.10086 12.8242C3.10086 12.6518 3.16934 12.4865 3.29124 12.3646C3.41314 12.2427 3.57847 12.1742 3.75086 12.1742V12.1742ZM3.10586 10.2272C3.10586 10.142 3.12265 10.0576 3.15526 9.97883C3.18788 9.90009 3.23568 9.82854 3.29595 9.76828C3.35621 9.70801 3.42776 9.6602 3.5065 9.62759C3.58524 9.59497 3.66963 9.57819 3.75486 9.57819H10.2199C10.3922 9.57819 10.5576 9.64667 10.6795 9.76857C10.8014 9.89047 10.8699 10.0558 10.8699 10.2282C10.8699 10.4006 10.8014 10.5659 10.6795 10.6878C10.5576 10.8097 10.3922 10.8782 10.2199 10.8782H3.75086C3.57908 10.8771 3.41473 10.808 3.29382 10.686C3.17292 10.564 3.10533 10.399 3.10586 10.2272V10.2272ZM3.10586 15.4192C3.10586 15.2471 3.17424 15.082 3.29595 14.9603C3.41766 14.8386 3.58273 14.7702 3.75486 14.7702H10.2199C10.3922 14.7702 10.5576 14.8387 10.6795 14.9606C10.8014 15.0825 10.8699 15.2478 10.8699 15.4202C10.8699 15.5926 10.8014 15.7579 10.6795 15.8798C10.5576 16.0017 10.3922 16.0702 10.2199 16.0702H3.75086C3.57908 16.0691 3.41473 16 3.29382 15.878C3.17292 15.756 3.10533 15.591 3.10586 15.4192V15.4192ZM12.8199 18.6642C12.9923 18.6642 13.1576 18.7327 13.2795 18.8546C13.4014 18.9765 13.4699 19.1418 13.4699 19.3142C13.4699 19.4866 13.4014 19.6519 13.2795 19.7738C13.1576 19.8957 12.9923 19.9642 12.8199 19.9642H8.92186C8.74947 19.9642 8.58414 19.8957 8.46224 19.7738C8.34034 19.6519 8.27186 19.4866 8.27186 19.3142C8.27186 19.1418 8.34034 18.9765 8.46224 18.8546C8.58414 18.7327 8.74947 18.6642 8.92186 18.6642H12.8199ZM3.75086 8.28019C3.57847 8.28019 3.41314 8.21171 3.29124 8.08981C3.16934 7.96791 3.10086 7.80258 3.10086 7.63019C3.10086 7.4578 3.16934 7.29247 3.29124 7.17057C3.41314 7.04867 3.57847 6.98019 3.75086 6.98019H12.8159C12.9883 6.98019 13.1536 7.04867 13.2755 7.17057C13.3974 7.29247 13.4659 7.4578 13.4659 7.63019C13.4659 7.80258 13.3974 7.96791 13.2755 8.08981C13.1536 8.21171 12.9883 8.28019 12.8159 8.28019H3.75086Z" fill="#134773"/>
<path d="M13.533 14.459L12.968 16.153C12.9488 16.2102 12.946 16.2716 12.9598 16.3304C12.9736 16.3891 13.0036 16.4428 13.0464 16.4854C13.0891 16.5281 13.1429 16.5579 13.2017 16.5716C13.2604 16.5853 13.3219 16.5823 13.379 16.563L15.072 15.998L13.533 14.459Z" fill="#134773"/>
<path d="M18.5748 9.11523L14.3008 13.3892L16.1438 15.2322L20.4178 10.9572L18.5748 9.11523Z" fill="#134773"/>
<path d="M22.2733 7.25371C22.0228 7.02156 21.6938 6.89258 21.3523 6.89258C21.0107 6.89258 20.6818 7.02156 20.4313 7.25371L19.4883 8.19672L21.3313 10.0397L22.2743 9.09671C22.5179 8.85182 22.6545 8.52041 22.6543 8.175C22.6541 7.8296 22.5171 7.49834 22.2733 7.25371V7.25371Z" fill="#134773"/>
<path d="M22.2793 9.09389L22.2853 9.08789L22.2793 9.09389Z" fill="#134773"/>
</svg>
