<svg width="20" height="18" viewBox="0 0 20 18" fill="none" xmlns="http://www.w3.org/2000/svg">
<path d="M10 3.638C11.2061 3.63827 12.3628 4.11751 13.2156 4.97037C14.0685 5.82323 14.5477 6.97988 14.548 8.186C14.5476 8.75659 14.4365 9.32168 14.221 9.85L16.877 12.506C18.2642 11.3511 19.3383 9.8654 20 8.186C19.2102 6.17669 17.8342 4.45152 16.0507 3.23485C14.2672 2.01817 12.1589 1.3663 10 1.364C8.76414 1.36294 7.53764 1.57818 6.376 2L8.34 3.965C8.86707 3.74998 9.43076 3.63894 10 3.638ZM0.91 1.155L2.983 3.229L3.401 3.647C1.88095 4.82777 0.706287 6.39548 0 8.186C0.517869 9.50437 1.29113 10.7074 2.27535 11.726C3.25958 12.7447 4.43537 13.5588 5.73518 14.1216C7.03499 14.6845 8.4332 14.9849 9.84948 15.0057C11.2658 15.0266 12.6722 14.7674 13.988 14.243L14.37 14.625L17.035 17.281L18.19 16.126L2.065 0L0.91 1.155ZM5.94 6.185L7.35 7.595C7.30281 7.7885 7.27832 7.98683 7.277 8.186C7.27661 8.54394 7.34673 8.89844 7.48338 9.22927C7.62002 9.5601 7.8205 9.86077 8.07337 10.1141C8.32623 10.3674 8.62653 10.5685 8.95711 10.7057C9.28769 10.843 9.64206 10.9137 10 10.914C10.1992 10.9127 10.3975 10.8882 10.591 10.841L12.001 12.251C11.1524 12.6763 10.1914 12.8234 9.25443 12.6716C8.31745 12.5199 7.45208 12.0768 6.78112 11.4054C6.11016 10.734 5.6677 9.86837 5.51654 8.93129C5.36538 7.99421 5.51319 7.03332 5.939 6.185H5.94ZM9.86 5.476L12.725 8.341L12.743 8.195C12.7435 7.83647 12.6733 7.48137 12.5363 7.15003C12.3994 6.8187 12.1984 6.51765 11.9449 6.26413C11.6914 6.01062 11.3903 5.80962 11.059 5.67266C10.7276 5.5357 10.3725 5.46547 10.014 5.466L9.86 5.476Z" fill="white"/>
</svg>
