<svg width="18" height="41" viewBox="0 0 18 41" fill="none" xmlns="http://www.w3.org/2000/svg">
<path d="M8.20583 40.1894L3.73283 35.7614C3.66434 35.6931 3.61001 35.612 3.57293 35.5227C3.53586 35.4334 3.51677 35.3376 3.51677 35.2409C3.51677 35.1442 3.53586 35.0485 3.57293 34.9591C3.61001 34.8698 3.66434 34.7887 3.73283 34.7204C3.87188 34.582 4.06011 34.5043 4.25633 34.5043C4.45255 34.5043 4.64077 34.582 4.77983 34.7204L8.70483 38.6104L12.6268 34.7174C12.7659 34.579 12.9541 34.5013 13.1503 34.5013C13.3465 34.5013 13.5348 34.579 13.6738 34.7174C13.7424 34.7856 13.7969 34.8667 13.834 34.9561C13.8712 35.0454 13.8903 35.1412 13.8903 35.2379C13.8903 35.3347 13.8712 35.4305 13.834 35.5198C13.7969 35.6091 13.7424 35.6902 13.6738 35.7584L9.23283 40.1694C9.09729 40.3026 8.91598 40.3789 8.726 40.3829C8.53602 40.3868 8.35173 40.3179 8.21083 40.1904L8.20583 40.1894ZM5.41683 29.7054C4.90224 29.4903 4.4099 29.2253 3.94683 28.9144C3.02746 28.2982 2.23452 27.5117 1.61083 26.5974C0.644727 25.1834 0.12945 23.51 0.132829 21.7974V8.67842C0.130796 7.53051 0.362148 6.39417 0.812829 5.33842C1.03172 4.8277 1.29964 4.33941 1.61283 3.88042C2.40964 2.71226 3.47965 1.75635 4.7299 1.09575C5.98014 0.435146 7.37279 0.0898438 8.78683 0.0898438C10.2009 0.0898437 11.5935 0.435146 12.8438 1.09575C14.094 1.75635 15.164 2.71226 15.9608 3.88042C16.274 4.33939 16.542 4.82768 16.7608 5.33842C17.2112 6.39424 17.4422 7.53058 17.4398 8.67842V21.7974C17.4427 23.5097 16.9278 25.1829 15.9628 26.5974C14.8307 28.2494 13.1636 29.4606 11.2425 30.0268C9.32146 30.5929 7.26396 30.4794 5.41683 29.7054ZM6.19683 2.67642C5.38261 3.02763 4.6448 3.53444 4.02483 4.16842C3.39874 4.80502 2.90132 5.55642 2.55983 6.38142C2.20332 7.23999 2.02079 8.16078 2.02283 9.09042V21.3834C2.02079 22.3131 2.20332 23.2339 2.55983 24.0924C2.90124 24.9172 3.39829 25.6686 4.02383 26.3054C4.6441 26.9395 5.38225 27.4463 6.19683 27.7974C7.03718 28.1584 7.94222 28.3446 8.85683 28.3446C9.77144 28.3446 10.6765 28.1584 11.5168 27.7974C12.3313 27.4466 13.0695 26.9401 13.6898 26.3064C14.3154 25.6696 14.8124 24.9182 15.1538 24.0934C15.5103 23.2349 15.6929 22.3141 15.6908 21.3844V9.09042C15.6929 8.16078 15.5103 7.23999 15.1538 6.38142C14.8126 5.5565 14.3156 4.80511 13.6898 4.16842C13.0695 3.53469 12.3313 3.02821 11.5168 2.67742C10.6765 2.31641 9.77144 2.13023 8.85683 2.13023C7.94222 2.13023 7.03718 2.31641 6.19683 2.67742V2.67642ZM7.98383 9.27642V5.31542C7.98383 5.17937 8.01063 5.04465 8.06269 4.91896C8.11475 4.79327 8.19106 4.67906 8.28727 4.58286C8.38347 4.48666 8.49767 4.41035 8.62337 4.35828C8.74906 4.30622 8.88378 4.27942 9.01983 4.27942C9.15588 4.27942 9.2906 4.30622 9.41629 4.35828C9.54198 4.41035 9.65619 4.48666 9.75239 4.58286C9.84859 4.67906 9.9249 4.79327 9.97697 4.91896C10.029 5.04465 10.0558 5.17937 10.0558 5.31542V9.27742C10.0558 9.41347 10.029 9.54819 9.97697 9.67388C9.9249 9.79957 9.84859 9.91378 9.75239 10.01C9.65619 10.1062 9.54198 10.1825 9.41629 10.2346C9.2906 10.2866 9.15588 10.3134 9.01983 10.3134C8.88378 10.3134 8.74906 10.2866 8.62337 10.2346C8.49767 10.1825 8.38347 10.1062 8.28727 10.01C8.19106 9.91378 8.11475 9.79957 8.06269 9.67388C8.01063 9.54819 7.98383 9.41347 7.98383 9.27742V9.27642Z" fill="white"/>
</svg>
