<svg width="24" height="23" viewBox="0 0 24 23" fill="none" xmlns="http://www.w3.org/2000/svg">
<path d="M23.175 10.124L12.729 0.605001C12.5098 0.403454 12.2228 0.291603 11.925 0.291603C11.6272 0.291603 11.3402 0.403454 11.121 0.605001L0.674 10.124C0.496419 10.286 0.371885 10.4979 0.316691 10.7319C0.261498 10.9658 0.278215 11.211 0.364657 11.4354C0.451099 11.6597 0.603239 11.8527 0.801171 11.9891C0.999102 12.1255 1.23361 12.199 1.474 12.2H3.147V21.737C3.147 21.827 3.16472 21.916 3.19914 21.9991C3.23357 22.0822 3.28402 22.1578 3.34763 22.2214C3.41124 22.285 3.48675 22.3354 3.56986 22.3699C3.65297 22.4043 3.74204 22.422 3.832 22.422H9.557C9.64696 22.422 9.73603 22.4043 9.81914 22.3699C9.90225 22.3354 9.97776 22.285 10.0414 22.2214C10.105 22.1578 10.1554 22.0822 10.1899 21.9991C10.2243 21.916 10.242 21.827 10.242 21.737V15.946H13.607V21.737C13.607 21.9187 13.6792 22.0929 13.8076 22.2214C13.9361 22.3498 14.1103 22.422 14.292 22.422H20.018C20.1997 22.422 20.3739 22.3498 20.5024 22.2214C20.6308 22.0929 20.703 21.9187 20.703 21.737V12.2H22.372C22.6124 12.199 22.8469 12.1255 23.0448 11.9891C23.2428 11.8527 23.3949 11.6597 23.4813 11.4354C23.5678 11.211 23.5845 10.9658 23.5293 10.7319C23.4741 10.4979 23.3496 10.286 23.172 10.124H23.175Z" fill="#134773"/>
<path d="M20.523 1.658H15.923L21.206 6.458V2.343C21.206 2.16167 21.1341 1.98774 21.0061 1.85934C20.878 1.73093 20.7043 1.65853 20.523 1.658V1.658Z" fill="#134773"/>
</svg>
