<svg width="17" height="17" viewBox="0 0 17 17" fill="none" xmlns="http://www.w3.org/2000/svg">
<path d="M8.492 3.76505e-06C6.8112 0.00158569 5.1686 0.501446 3.77184 1.4364C2.37507 2.37135 1.28685 3.69942 0.644734 5.25273C0.00261563 6.80604 -0.164572 8.51486 0.164306 10.1632C0.493183 11.8115 1.30336 13.3253 2.49242 14.5132C3.68149 15.7012 5.19606 16.5099 6.84468 16.8373C8.4933 17.1646 10.202 16.9958 11.7547 16.3522C13.3074 15.7086 14.6344 14.6192 15.568 13.2215C16.5017 11.8239 17 10.1808 17 8.5C17 7.38309 16.7799 6.27714 16.3522 5.24535C15.9246 4.21356 15.2977 3.27617 14.5076 2.48677C13.7174 1.69736 12.7795 1.07142 11.7473 0.64473C10.7151 0.218036 9.60891 -0.00104744 8.492 3.76505e-06ZM14.383 5.1H11.875C11.6084 4.04714 11.2138 3.03091 10.7 2.074C12.2511 2.60745 13.5582 3.68166 14.382 5.1H14.383ZM8.5 1.734C9.21418 2.76409 9.76218 3.89992 10.124 5.1H6.877C7.23851 3.89998 7.78618 2.76415 8.5 1.734ZM1.921 10.2C1.62634 9.08582 1.62634 7.91418 1.921 6.8H4.794C4.71995 7.36374 4.68021 7.93145 4.675 8.5C4.68021 9.06856 4.71995 9.63627 4.794 10.2H1.921ZM2.621 11.9H5.126C5.39233 12.9528 5.7866 13.9691 6.3 14.926C4.74732 14.3954 3.43933 13.3205 2.618 11.9H2.621ZM5.126 5.1H2.618C3.43933 3.67953 4.74732 2.60458 6.3 2.074C5.7866 3.03096 5.39233 4.04719 5.126 5.1ZM8.5 15.266C7.78618 14.2359 7.23851 13.1 6.877 11.9H10.124C9.76218 13.1001 9.21418 14.2359 8.5 15.266ZM10.489 10.2H6.511C6.42704 9.63709 6.3816 9.06911 6.375 8.5C6.38127 7.93089 6.42671 7.36288 6.511 6.8H10.489C10.5733 7.36288 10.6187 7.93089 10.625 8.5C10.6184 9.06911 10.573 9.63709 10.489 10.2ZM10.701 14.926C11.2144 13.9691 11.6087 12.9528 11.875 11.9H14.383C13.5589 13.3185 12.2515 14.3928 10.7 14.926H10.701ZM12.201 10.2C12.2751 9.63627 12.3148 9.06856 12.32 8.5C12.3148 7.93145 12.2751 7.36374 12.201 6.8H15.074C15.3687 7.91418 15.3687 9.08582 15.074 10.2H12.201Z" fill="white"/>
</svg>
