<svg width="19" height="18" viewBox="0 0 19 18" fill="none" xmlns="http://www.w3.org/2000/svg">
<path d="M8.756 2C7.37035 2 6.01581 2.41089 4.86368 3.18072C3.71155 3.95055 2.81357 5.04474 2.2833 6.32492C1.75304 7.6051 1.61429 9.01377 1.88462 10.3728C2.15495 11.7318 2.82221 12.9802 3.80201 13.96C4.78182 14.9398 6.03017 15.6071 7.3892 15.8774C8.74823 16.1477 10.1569 16.009 11.4371 15.4787C12.7173 14.9484 13.8115 14.0505 14.5813 12.8983C15.3511 11.7462 15.762 10.3917 15.762 9.006C15.7612 7.14814 15.0228 5.3666 13.7091 4.05289C12.3954 2.73918 10.6139 2.0008 8.756 2ZM8.056 14.562C6.70165 14.3929 5.45569 13.7349 4.55228 12.7118C3.64887 11.6887 3.15021 10.3709 3.15 9.006C3.15232 8.58384 3.20162 8.16325 3.297 7.752L6.65 11.108V11.808C6.65132 12.1789 6.79924 12.5342 7.06151 12.7965C7.32378 13.0588 7.67911 13.2067 8.05 13.208L8.056 14.562ZM12.89 12.782C12.8012 12.4988 12.6241 12.2515 12.3846 12.0763C12.1451 11.901 11.8558 11.807 11.559 11.808H10.859V9.708C10.859 9.52235 10.7853 9.3443 10.654 9.21303C10.5227 9.08175 10.3447 9.008 10.159 9.008H5.95V7.6H7.35C7.44193 7.6 7.53295 7.58189 7.61788 7.54672C7.70281 7.51154 7.77998 7.45998 7.84498 7.39497C7.90998 7.32997 7.96154 7.25281 7.99672 7.16788C8.0319 7.08295 8.05 6.99193 8.05 6.9V5.5H9.45C9.8209 5.49868 10.1762 5.35076 10.4385 5.08849C10.7008 4.82623 10.8487 4.4709 10.85 4.1V3.815C11.6886 4.1526 12.4328 4.68848 13.019 5.37672C13.6051 6.06495 14.0156 6.88502 14.2154 7.76667C14.4151 8.64832 14.3982 9.56525 14.166 10.4389C13.9337 11.3126 13.4932 12.1169 12.882 12.783L12.89 12.782Z" fill="white"/>
</svg>
