<svg width="22" height="23" viewBox="0 0 22 23" fill="none" xmlns="http://www.w3.org/2000/svg">
<path d="M12.0319 2.26127L6.95354 7.3396C6.61438 7.67877 6.42188 8.14627 6.42188 8.6321V17.7896C6.42188 18.7979 7.24688 19.6229 8.25521 19.6229H16.5052C17.2385 19.6229 17.8985 19.1829 18.1919 18.5138L21.1802 11.5379C21.9502 9.72294 20.621 7.70627 18.6502 7.70627H13.471L14.3419 3.50794C14.4335 3.0496 14.296 2.5821 13.966 2.2521C13.4252 1.72044 12.5635 1.72044 12.0319 2.26127ZM2.75521 19.6229C3.76354 19.6229 4.58854 18.7979 4.58854 17.7896V10.4563C4.58854 9.44794 3.76354 8.62294 2.75521 8.62294C1.74687 8.62294 0.921875 9.44794 0.921875 10.4563V17.7896C0.921875 18.7979 1.74687 19.6229 2.75521 19.6229Z" fill="#26B4B0"/>
</svg>
