<svg width="16" height="22" viewBox="0 0 16 22" fill="none" xmlns="http://www.w3.org/2000/svg">
<path d="M14 7.2207H13V5.2207C13 2.4607 10.76 0.220703 8 0.220703C5.24 0.220703 3 2.4607 3 5.2207V7.2207H2C0.9 7.2207 0 8.1207 0 9.2207V19.2207C0 20.3207 0.9 21.2207 2 21.2207H14C15.1 21.2207 16 20.3207 16 19.2207V9.2207C16 8.1207 15.1 7.2207 14 7.2207ZM8 16.2207C6.9 16.2207 6 15.3207 6 14.2207C6 13.1207 6.9 12.2207 8 12.2207C9.1 12.2207 10 13.1207 10 14.2207C10 15.3207 9.1 16.2207 8 16.2207ZM5 7.2207V5.2207C5 3.5607 6.34 2.2207 8 2.2207C9.66 2.2207 11 3.5607 11 5.2207V7.2207H5Z" fill="#26B4B0"/>
</svg>
