<svg width="24" height="25" viewBox="0 0 24 25" fill="none" xmlns="http://www.w3.org/2000/svg">
<path d="M18 8.2207H17V6.2207C17 3.4607 14.76 1.2207 12 1.2207C9.24 1.2207 7 3.4607 7 6.2207V8.2207H6C4.9 8.2207 4 9.1207 4 10.2207V20.2207C4 21.3207 4.9 22.2207 6 22.2207H18C19.1 22.2207 20 21.3207 20 20.2207V10.2207C20 9.1207 19.1 8.2207 18 8.2207ZM12 17.2207C10.9 17.2207 10 16.3207 10 15.2207C10 14.1207 10.9 13.2207 12 13.2207C13.1 13.2207 14 14.1207 14 15.2207C14 16.3207 13.1 17.2207 12 17.2207ZM9 8.2207V6.2207C9 4.5607 10.34 3.2207 12 3.2207C13.66 3.2207 15 4.5607 15 6.2207V8.2207H9Z" fill="#26B4B0"/>
</svg>
