<svg width="13" height="10" viewBox="0 0 13 10" fill="none" xmlns="http://www.w3.org/2000/svg">
<path d="M11.5344 0H1.93438C1.61716 0.00158611 1.31347 0.128714 1.08972 0.353586C0.865975 0.578458 0.740371 0.882777 0.740375 1.2L0.734375 8.4C0.734375 8.71826 0.860803 9.02349 1.08585 9.24853C1.31089 9.47357 1.61612 9.6 1.93438 9.6H11.5344C11.8526 9.6 12.1579 9.47357 12.3829 9.24853C12.6079 9.02349 12.7344 8.71826 12.7344 8.4V1.2C12.7344 0.88174 12.6079 0.576516 12.3829 0.351472C12.1579 0.126428 11.8526 0 11.5344 0ZM11.5344 2.4L6.73438 5.4L1.93438 2.4V1.2L6.73438 4.2L11.5344 1.2V2.4Z" fill="white"/>
</svg>
