<svg width="30" height="30" viewBox="0 0 30 30" fill="none" xmlns="http://www.w3.org/2000/svg">
<path d="M24.2803 22.7562C22.8856 22.2736 21.0684 21.9086 19.0516 21.6994C19.3611 21.2295 19.6781 20.7363 19.9959 20.2254C22.876 15.5958 24.3364 11.933 24.3364 9.33873C24.3363 4.18934 20.147 0 14.9977 0C9.84832 0 5.65898 4.18934 5.65898 9.33873C5.65898 11.933 7.11937 15.5958 9.99949 20.2254C10.3172 20.7363 10.6342 21.2295 10.9438 21.6994C8.92705 21.9086 7.10971 22.2735 5.71506 22.7562C3.54023 23.5088 2.4375 24.5156 2.4375 25.7484C2.4375 27.13 3.81252 28.2221 6.5243 28.9946C8.80019 29.643 11.8095 30 14.9977 30C18.1859 30 21.1951 29.6429 23.4711 28.9946C26.1828 28.2221 27.5578 27.1299 27.5578 25.7483C27.5578 24.5156 26.4552 23.5088 24.2803 22.7562ZM7.54301 9.33873C7.54301 5.22814 10.8871 1.88402 14.9977 1.88402C19.1082 1.88402 22.4523 5.22814 22.4523 9.33873C22.4523 11.5414 21.053 14.9565 18.4058 19.2146C17.1029 21.3104 15.7873 23.1374 14.9976 24.1956C14.2079 23.1374 12.8923 21.3104 11.5894 19.2146C8.94228 14.9565 7.54301 11.5414 7.54301 9.33873ZM22.9549 27.1826C20.842 27.7845 18.0161 28.116 14.9977 28.116C11.9792 28.116 9.15322 27.7845 7.04045 27.1826C4.79414 26.5427 4.32146 25.8569 4.32146 25.7484C4.32146 25.646 4.67906 25.1084 6.33117 24.5367C7.82045 24.0213 9.87334 23.6512 12.1562 23.4832C13.3307 25.1593 14.2037 26.2634 14.2596 26.3338C14.4383 26.5591 14.7101 26.6904 14.9977 26.6904C15.2852 26.6904 15.5569 26.5591 15.7357 26.3338C15.7916 26.2634 16.6646 25.1593 17.8392 23.4832C20.122 23.6512 22.1749 24.0213 23.6642 24.5367C25.3162 25.1084 25.6738 25.646 25.6738 25.7483C25.6738 25.8569 25.2012 26.5427 22.9549 27.1826Z" fill="#28B7B3"/>
<path d="M14.9975 4.97266C12.5908 4.97266 10.6328 6.93068 10.6328 9.33731C10.6328 11.7439 12.5908 13.702 14.9975 13.702C17.4041 13.702 19.3621 11.7439 19.3621 9.33731C19.3621 6.93068 17.4041 4.97266 14.9975 4.97266ZM14.9975 11.818C13.6296 11.818 12.5168 10.7052 12.5168 9.33736C12.5168 7.96949 13.6296 6.85674 14.9975 6.85674C16.3653 6.85674 17.4781 7.96955 17.4781 9.33736C17.4781 10.7052 16.3653 11.818 14.9975 11.818Z" fill="#28B7B3"/>
</svg>
