<svg width="20" height="20" viewBox="0 0 20 20" fill="none" xmlns="http://www.w3.org/2000/svg">
<path d="M3.93594 8.49935C3.93594 4.69908 6.81531 2.26602 10.0026 2.26602C13.1899 2.26602 16.0693 4.69908 16.0693 8.49935C16.0693 9.6692 15.6178 10.9971 14.6378 12.4972C13.659 13.9954 12.1747 15.6316 10.1662 17.4058C10.0755 17.4834 9.93774 17.4833 9.84717 17.4057C7.83441 15.6314 6.34807 13.9952 5.3683 12.497C4.38735 10.997 3.93594 9.66915 3.93594 8.49935ZM7.73594 8.33268C7.73594 9.58072 8.75457 10.5993 10.0026 10.5993C11.2506 10.5993 12.2693 9.58072 12.2693 8.33268C12.2693 7.08465 11.2506 6.06602 10.0026 6.06602C8.75456 6.06602 7.73594 7.08465 7.73594 8.33268Z" stroke="#9D9D9D" stroke-width="1.2"/>
</svg>
