<svg width="20" height="20" viewBox="0 0 20 20" fill="none" xmlns="http://www.w3.org/2000/svg">
<path d="M10.0026 1.66602C6.5026 1.66602 3.33594 4.34935 3.33594 8.49935C3.33594 11.1494 5.3776 14.266 9.4526 17.8577C9.76927 18.1327 10.2443 18.1327 10.5609 17.8577C14.6276 14.266 16.6693 11.1494 16.6693 8.49935C16.6693 4.34935 13.5026 1.66602 10.0026 1.66602ZM10.0026 9.99935C9.08594 9.99935 8.33594 9.24935 8.33594 8.33268C8.33594 7.41602 9.08594 6.66602 10.0026 6.66602C10.9193 6.66602 11.6693 7.41602 11.6693 8.33268C11.6693 9.24935 10.9193 9.99935 10.0026 9.99935Z" fill="#B4B4B4"/>
</svg>
