<svg width="31" height="30" viewBox="0 0 31 30" fill="none" xmlns="http://www.w3.org/2000/svg">
<g clip-path="url(#clip0_5_934)">
<path d="M9.85742 23.7734C10.0575 25.0406 10.9601 26.1381 12.2777 26.4912C13.5954 26.8442 14.9258 26.345 15.7327 25.3477C14.7914 25.1442 13.817 24.9159 12.7747 24.6366C11.7324 24.3573 10.7744 24.0678 9.85742 23.7734Z" fill="#249F9B"/>
<path d="M24.3927 22.1891C23.5835 20.3205 22.3441 16.7414 23.1382 13.7778C23.9256 10.8392 22.746 7.68965 20.2579 5.9814C20.5595 4.72247 19.8014 3.442 18.5449 3.10532C17.2875 2.7684 15.9917 3.49852 15.6233 4.73955C12.6135 4.97465 10.0172 7.1125 9.22979 10.0511C8.43544 13.0156 5.57374 15.4948 3.9377 16.7082C3.3918 17.1135 3.08353 17.7594 3.11386 18.4364C3.14351 19.0973 3.49734 19.698 4.06115 20.0419C5.04837 20.6454 6.71015 21.4723 9.34135 22.3721C10.4805 22.7608 11.7155 23.1404 13.0787 23.5057C14.4409 23.8707 15.7003 24.1594 16.8811 24.3924C19.6106 24.9289 21.4623 25.0435 22.6199 25.0147C23.2801 24.9988 23.886 24.6553 24.2421 24.0977C24.6069 23.5266 24.6619 22.8128 24.3927 22.1891Z" fill="#249F9B"/>
</g>
<circle cx="23.998" cy="10" r="3.5" fill="#FF3E3E" stroke="#DEF1F0"/>
<defs>
<clipPath id="clip0_5_934">
<rect width="24" height="24" fill="white" transform="translate(6.95117) rotate(15)"/>
</clipPath>
</defs>
</svg>
