<svg width="13" height="12" viewBox="0 0 13 12" fill="none" xmlns="http://www.w3.org/2000/svg">
<path d="M3.14738 5.193C4.11379 7.08251 5.65086 8.61959 7.54037 9.586L9.00737 8.119C9.09459 8.03168 9.20446 7.97044 9.32459 7.94218C9.44473 7.91391 9.57037 7.91974 9.68738 7.959C10.4554 8.21145 11.2589 8.33973 12.0674 8.339C12.2441 8.33953 12.4135 8.40997 12.5384 8.53494C12.6634 8.65991 12.7338 8.82926 12.7344 9.006V11.333C12.7338 11.5097 12.6634 11.6791 12.5384 11.8041C12.4135 11.929 12.2441 11.9995 12.0674 12C10.5791 12.0001 9.10531 11.7071 7.73027 11.1376C6.35523 10.5681 5.10583 9.73333 4.05344 8.68093C3.00105 7.62854 2.16627 6.37915 1.59678 5.00411C1.02729 3.62906 0.734244 2.15531 0.734375 0.667C0.734903 0.490263 0.805345 0.320915 0.930318 0.195943C1.05529 0.0709701 1.22464 0.000527577 1.40138 0H3.73438C3.91111 0.000527577 4.08046 0.0709701 4.20543 0.195943C4.3304 0.320915 4.40085 0.490263 4.40137 0.667C4.4002 1.47553 4.52849 2.27903 4.78137 3.047C4.81907 3.16471 4.82342 3.29056 4.79394 3.41059C4.76446 3.53062 4.70231 3.64014 4.61438 3.727L3.14738 5.193Z" fill="white"/>
</svg>
