<svg width="18" height="18" viewBox="0 0 18 18" fill="none" xmlns="http://www.w3.org/2000/svg">
<path d="M9.00009 14.1857C9.48555 14.1857 9.87909 13.7922 9.87909 13.3067C9.87909 12.8213 9.48555 12.4277 9.00009 12.4277C8.51464 12.4277 8.12109 12.8213 8.12109 13.3067C8.12109 13.7922 8.51464 14.1857 9.00009 14.1857Z" fill="white"/>
<path d="M9 0C7.21997 0 5.47991 0.527841 3.99987 1.51677C2.51983 2.50571 1.36628 3.91131 0.685088 5.55585C0.00389957 7.20038 -0.17433 9.00998 0.172937 10.7558C0.520203 12.5016 1.37737 14.1053 2.63604 15.364C3.89472 16.6226 5.49836 17.4798 7.24419 17.8271C8.99002 18.1743 10.7996 17.9961 12.4442 17.3149C14.0887 16.6337 15.4943 15.4802 16.4832 14.0001C17.4722 12.5201 18 10.78 18 9C18 6.61305 17.0518 4.32387 15.364 2.63604C13.6761 0.948212 11.387 0 9 0V0ZM9 16.594C7.49805 16.594 6.02983 16.1486 4.781 15.3142C3.53218 14.4797 2.55883 13.2937 1.98406 11.9061C1.40929 10.5185 1.2589 8.99158 1.55192 7.51848C1.84494 6.04539 2.5682 4.69227 3.63024 3.63023C4.69228 2.56819 6.0454 1.84493 7.51849 1.55192C8.99158 1.2589 10.5185 1.40929 11.9061 1.98406C13.2937 2.55883 14.4797 3.53217 15.3142 4.781C16.1486 6.02983 16.594 7.49805 16.594 9C16.5945 9.99741 16.3985 10.9851 16.017 11.9067C15.6356 12.8283 15.0762 13.6657 14.3709 14.3709C13.6657 15.0762 12.8283 15.6356 11.9067 16.017C10.9851 16.3985 9.99741 16.5945 9 16.594Z" fill="white"/>
<path d="M9.0005 4.51863C8.25469 4.51943 7.53965 4.81605 7.01228 5.34341C6.48492 5.87078 6.18829 6.58582 6.1875 7.33163C6.1875 7.51808 6.26156 7.69688 6.3934 7.82872C6.52524 7.96056 6.70406 8.03464 6.8905 8.03464C7.07695 8.03464 7.25575 7.96056 7.38759 7.82872C7.51943 7.69688 7.59351 7.51808 7.59351 7.33163C7.59351 7.05355 7.67597 6.78172 7.83046 6.55051C7.98495 6.31929 8.20453 6.13907 8.46144 6.03265C8.71835 5.92624 9.00107 5.8984 9.2738 5.95265C9.54654 6.0069 9.79707 6.1408 9.9937 6.33743C10.1903 6.53407 10.3242 6.78459 10.3785 7.05733C10.4327 7.33006 10.4049 7.61278 10.2985 7.86969C10.1921 8.1266 10.0118 8.34618 9.78062 8.50067C9.54941 8.65516 9.27758 8.73763 8.9995 8.73763C8.81384 8.73763 8.63581 8.81138 8.50453 8.94266C8.37326 9.07393 8.2995 9.25199 8.2995 9.43764V11.1956C8.2995 11.3821 8.37356 11.5609 8.5054 11.6927C8.63724 11.8246 8.81606 11.8986 9.0025 11.8986C9.18895 11.8986 9.36777 11.8246 9.4996 11.6927C9.63144 11.5609 9.70551 11.3821 9.70551 11.1956V10.0516C10.3676 9.88002 10.9444 9.47308 11.3282 8.90695C11.7119 8.34082 11.8762 7.65427 11.7904 6.97574C11.7046 6.29721 11.3746 5.67318 10.862 5.22038C10.3494 4.76759 9.68942 4.51704 9.00549 4.51562L9.0005 4.51863Z" fill="white"/>
</svg>
