<svg width="20" height="21" viewBox="0 0 20 21" fill="none" xmlns="http://www.w3.org/2000/svg">
<path d="M18.7109 18.5674L14.0279 13.6974C15.1899 12.3125 15.8447 10.5726 15.8841 8.76526C15.9234 6.95787 15.345 5.19115 14.2443 3.75702C13.1437 2.32288 11.5866 1.30718 9.83058 0.877733C8.07451 0.448288 6.22448 0.630806 4.58618 1.39513C2.94789 2.15945 1.61938 3.45983 0.820181 5.0814C0.0209826 6.70296 -0.201076 8.54867 0.190698 10.3135C0.582473 12.0784 1.56463 13.6568 2.97489 14.7879C4.38514 15.9189 6.13909 16.5351 7.9469 16.5344C9.57662 16.5386 11.1673 16.0361 12.4989 15.0964L17.2179 20.0044C17.3123 20.1025 17.425 20.181 17.5497 20.2356C17.6744 20.2901 17.8087 20.3195 17.9448 20.3222C18.0808 20.3248 18.2161 20.3006 18.3428 20.251C18.4696 20.2014 18.5853 20.1273 18.6834 20.0329C18.7815 19.9385 18.8601 19.8258 18.9146 19.7011C18.9691 19.5764 18.9985 19.4421 19.0012 19.306C19.0038 19.17 18.9796 19.0347 18.93 18.908C18.8804 18.7812 18.8063 18.6655 18.7119 18.5674H18.7109ZM7.9469 2.7174C9.10828 2.7174 10.2436 3.06178 11.2092 3.70701C12.1749 4.35223 12.9275 5.26931 13.3719 6.34228C13.8164 7.41525 13.9326 8.59591 13.7061 9.73497C13.4795 10.874 12.9202 11.9203 12.099 12.7415C11.2778 13.5627 10.2315 14.122 9.09247 14.3486C7.95342 14.5751 6.77275 14.4589 5.69979 14.0144C4.62682 13.57 3.70974 12.8174 3.06451 11.8517C2.41929 10.8861 2.0749 9.75077 2.0749 8.5894C2.07676 7.03261 2.69601 5.54012 3.79682 4.43931C4.89763 3.3385 6.39012 2.71925 7.9469 2.7174Z" fill="white"/>
</svg>
