<svg width="20" height="20" viewBox="0 0 20 20" fill="none" xmlns="http://www.w3.org/2000/svg">
<path d="M15.4394 13.6085H14.4795L14.1393 13.2806C15.5974 11.5805 16.3508 9.26115 15.9376 6.79604C15.3665 3.42018 12.5475 0.724352 9.14526 0.311477C4.0054 -0.319979 -0.320335 4.00307 0.311515 9.13972C0.724647 12.5399 3.42216 15.3571 6.80012 15.9279C9.26677 16.3407 11.5876 15.5879 13.2887 14.1306L13.6168 14.4707V15.43L17.5659 19.3766C18.0641 19.8745 18.8782 19.8745 19.3764 19.3766C19.8745 18.8787 19.8745 18.0651 19.3764 17.5672L15.4394 13.6085ZM8.14888 13.6085C5.12329 13.6085 2.68095 11.1677 2.68095 8.14396C2.68095 5.12026 5.12329 2.67944 8.14888 2.67944C11.1745 2.67944 13.6168 5.12026 13.6168 8.14396C13.6168 11.1677 11.1745 13.6085 8.14888 13.6085Z" fill="#D5D9D9"/>
</svg>
