<svg width="18" height="18" viewBox="0 0 18 18" fill="none" xmlns="http://www.w3.org/2000/svg">
<path d="M9.52734 0C8.36399 0 7.38281 0.981176 7.38281 2.14453C7.38281 3.30789 8.36399 4.28906 9.52734 4.28906C10.6907 4.28906 11.6367 3.30789 11.6367 2.14453C11.6367 0.981176 10.6907 0 9.52734 0Z" fill="#B4B4B4"/>
<path d="M11.8685 4.28906C11.2889 4.93168 10.4588 5.34375 9.52734 5.34375C8.59584 5.34375 7.73061 4.93168 7.15106 4.28906C6.64509 4.85012 6.32812 5.58513 6.32812 6.39844V6.92578C6.32812 7.21726 6.56399 7.45312 6.85547 7.45312H12.1641C12.4555 7.45312 12.6914 7.21726 12.6914 6.92578V6.39844C12.6914 5.58513 12.3744 4.85012 11.8685 4.28906Z" fill="#B4B4B4"/>
<path d="M5.0949 16.1859L2.40752 10.7981C2.14803 10.2778 1.51649 10.0656 0.995575 10.3237L0.293189 10.6717C0.0316612 10.8013 -0.0747568 11.1192 0.0557784 11.3803L3.21984 17.7084C3.34995 17.9693 3.66647 18.0732 3.92588 17.9453L4.61924 17.6017C5.14219 17.3427 5.35534 16.7082 5.0949 16.1859Z" fill="#B4B4B4"/>
<path d="M17.5681 8.70798C17.1356 8.39158 16.5344 8.45486 16.1759 8.84509L13.2931 12.3888C13.0927 12.5998 12.713 12.7263 12.5126 12.7263H10.0551C9.7598 12.7263 9.5278 12.4943 9.5278 12.199C9.5278 11.9036 9.7598 11.6717 10.0551 11.6717C10.7614 11.6717 11.5434 11.6717 12.1645 11.6717C12.7446 11.6717 13.2192 11.197 13.2192 10.617C13.2192 10.0369 12.7446 9.56228 12.1645 9.56228C9.6879 9.56228 12.0503 9.56228 9.40124 9.56228C9.13841 9.56228 9.00735 9.3956 8.80007 9.2142C7.98412 8.47996 6.7628 8.12622 5.52635 8.41281C4.83982 8.57193 4.37685 8.84927 3.9073 9.22116L3.89166 9.20847L3.12891 9.87974L6.12647 15.8904H7.01409H12.1645C13.1559 15.8904 14.1052 15.4158 14.6958 14.6248L17.7895 10.1951C18.1376 9.73099 18.0426 9.05606 17.5681 8.70798Z" fill="#B4B4B4"/>
</svg>
