<svg width="30" height="30" viewBox="0 0 30 30" fill="none" xmlns="http://www.w3.org/2000/svg">
<g clip-path="url(#clip0_729_26548)">
<path d="M29.0616 14.7986C28.0585 13.9719 26.4731 13.901 25.4325 15.0177L22.8493 17.7908C22.5153 16.7174 21.5128 15.9358 20.3311 15.9358H15.7212C15.3714 15.9358 15.2543 15.8022 14.6467 15.3341C12.33 13.3145 8.85035 13.3209 6.5407 15.3534L4.84629 16.8451C4.08463 16.442 3.19523 16.432 2.42941 16.8147L0.485977 17.7861C0.0517973 18.0035 -0.123925 18.5313 0.0928129 18.9655L5.36596 29.5117C5.58334 29.9459 6.11121 30.1217 6.54539 29.9049L8.48883 28.9329C9.44678 28.4542 9.97992 27.4769 9.94535 26.4821H20.331C22.2569 26.4821 24.0972 25.5622 25.2526 24.0213L29.4717 18.3955C30.2902 17.3051 30.1607 15.7061 29.0616 14.7986ZM7.7025 27.3609L6.54533 27.9397L2.05793 18.9655L3.21568 18.3867C3.64986 18.1699 4.17715 18.3451 4.39453 18.7798L8.09566 26.1821C8.31246 26.6162 8.13668 27.1435 7.7025 27.3609ZM28.0655 17.3408L23.8465 22.9666C23.021 24.0676 21.7068 24.7243 20.3311 24.7243H9.33193L6.03855 18.1371L7.70191 16.6729C9.35707 15.2169 11.853 15.2169 13.5082 16.6729C14.4831 17.5313 15.0895 17.6936 15.7212 17.6936H20.331C20.8156 17.6936 21.2099 18.0879 21.2099 18.5724C21.2099 19.0569 20.8155 19.4513 20.331 19.4513H15.8425C15.3573 19.4513 14.9636 19.845 14.9636 20.3301C14.9636 20.8152 15.3574 21.209 15.8425 21.209H20.9199C21.6493 21.209 22.3525 20.9031 22.8493 20.3694L26.7186 16.2159C27.0725 15.8362 27.615 15.8678 27.9478 16.159C28.2958 16.4637 28.3334 16.9846 28.0655 17.3408Z" fill="#28B7B3"/>
<path d="M18.476 5.9973C19.0777 5.36631 19.4486 4.51324 19.4486 3.57398C19.4486 1.63934 17.8855 0 15.9332 0C13.9957 0 12.3593 1.63641 12.3593 3.57398C12.3593 4.48447 12.7161 5.34398 13.3641 6.00434C11.757 6.90545 10.6016 8.63502 10.6016 10.6634V11.5423C10.6016 12.0274 10.9953 12.4211 11.4804 12.4211H20.3275C20.8126 12.4211 21.2064 12.0274 21.2064 11.5423V10.6634C21.2063 8.67486 20.1126 6.91834 18.476 5.9973ZM15.9332 1.75775C16.8859 1.75775 17.6909 2.58973 17.6909 3.57404C17.6909 4.54313 16.9023 5.33174 15.9332 5.33174C14.9489 5.33174 14.117 4.52672 14.117 3.57404C14.117 2.60672 14.9659 1.75775 15.9332 1.75775ZM12.3593 10.6634C12.3593 8.72584 13.9957 7.08943 15.9332 7.08943C17.8714 7.08943 19.4486 8.69244 19.4486 10.6634H12.3593Z" fill="#28B7B3"/>
</g>
<defs>
<clipPath id="clip0_729_26548">
<rect width="30" height="30" fill="white"/>
</clipPath>
</defs>
</svg>
