<svg width="21" height="21" viewBox="0 0 21 21" fill="none" xmlns="http://www.w3.org/2000/svg">
<path d="M18.2463 4.50265L13.8723 0.128707C13.7931 0.0492598 13.6837 0 13.5625 0H4.37501C3.41029 0 2.625 0.784834 2.625 1.75001V19.25C2.625 20.2152 3.41029 21 4.37501 21H16.625C17.5897 21 18.375 20.2152 18.375 19.25V4.81249C18.375 4.69133 18.3257 4.58186 18.2463 4.50265ZM5.68751 4.37501H10.9375C11.1793 4.37501 11.375 4.5707 11.375 4.81253C11.375 5.05436 11.1793 5.25004 10.9375 5.25004H5.68751C5.44569 5.25004 5.25 5.05436 5.25 4.81253C5.25 4.5707 5.44569 4.37501 5.68751 4.37501ZM12.1193 16.4994C10.2146 18.375 9.77111 18.375 9.62501 18.375C9.08156 18.375 8.88673 17.7512 8.68506 17.083C8.37998 17.7021 8.02881 18.375 7.43749 18.375C7.13327 18.375 6.76926 18.1746 6.42661 17.8696C6.26341 18.0319 6.10103 18.1742 5.94981 18.2874C5.87118 18.3464 5.7789 18.375 5.68747 18.375C5.55503 18.375 5.42341 18.3147 5.33712 18.1998C5.1927 18.0067 5.23199 17.7324 5.42514 17.5876C5.56356 17.4833 5.70458 17.3577 5.843 17.2193C5.49523 16.7395 5.25 16.1926 5.25 15.75C5.25 14.7515 6.0464 14 6.5625 14C7.07007 14 7.875 14.3563 7.875 15.3125C7.875 15.8696 7.48789 16.5904 7.00596 17.2129C7.18454 17.3795 7.34692 17.4901 7.44175 17.5C7.5383 17.4321 7.80404 16.8911 7.93222 16.6314C8.19369 16.1007 8.36628 15.75 8.74999 15.75C9.19862 15.75 9.33786 16.2152 9.51562 16.8044C9.56776 16.9791 9.65405 17.2671 9.7301 17.4393C10.0514 17.2222 10.8623 16.5087 11.5057 15.8755C11.6783 15.7068 11.9552 15.7076 12.1244 15.8807C12.2936 16.0529 12.2919 16.3298 12.1193 16.4994ZM15.3125 13.125H9.1875C8.94567 13.125 8.74999 12.9293 8.74999 12.6875C8.74999 12.4457 8.94567 12.25 9.1875 12.25H15.3125C15.5543 12.25 15.75 12.4457 15.75 12.6875C15.75 12.9293 15.5543 13.125 15.3125 13.125ZM15.3125 10.5H5.68751C5.44569 10.5 5.25 10.3043 5.25 10.0625C5.25 9.82066 5.44569 9.62497 5.68751 9.62497H15.3125C15.5544 9.62497 15.75 9.82066 15.75 10.0625C15.75 10.3043 15.5543 10.5 15.3125 10.5ZM15.3125 7.875H5.68751C5.44569 7.875 5.25 7.67931 5.25 7.43749C5.25 7.19566 5.44569 6.99997 5.68751 6.99997H15.3125C15.5544 6.99997 15.75 7.19566 15.75 7.43749C15.75 7.67931 15.5543 7.875 15.3125 7.875ZM14.875 4.37501C14.3922 4.37501 14 3.98237 14 3.50003V1.49367L16.8814 4.37501H14.875Z" fill="#26B4B0"/>
<path d="M6.56251 14.875C6.51637 14.904 6.125 15.2164 6.125 15.75C6.125 15.9738 6.25145 16.255 6.42921 16.5259C6.76419 16.0623 7.00003 15.5915 7.00003 15.3125C7.00003 14.8959 6.63515 14.875 6.56251 14.875Z" fill="#26B4B0"/>
</svg>
