<svg width="18" height="19" viewBox="0 0 18 19" fill="none" xmlns="http://www.w3.org/2000/svg">
<path d="M7.79 13.8838C8.18 14.2738 8.81 14.2738 9.2 13.8838L12.79 10.2937C13.18 9.90375 13.18 9.27375 12.79 8.88375L9.2 5.29375C8.81 4.90375 8.18 4.90375 7.79 5.29375C7.4 5.68375 7.4 6.31375 7.79 6.70375L9.67 8.59375H1C0.45 8.59375 0 9.04375 0 9.59375C0 10.1438 0.45 10.5938 1 10.5938L9.67 10.5937L7.79 12.4738C7.4 12.8638 7.41 13.5038 7.79 13.8838ZM16 0.59375L2 0.59375C0.89 0.59375 0 1.49375 0 2.59375L0 5.59375C0 6.14375 0.45 6.59375 1 6.59375C1.55 6.59375 2 6.14375 2 5.59375V3.59375C2 3.04375 2.45 2.59375 3 2.59375L15 2.59375C15.55 2.59375 16 3.04375 16 3.59375L16 15.5937C16 16.1438 15.55 16.5938 15 16.5938H3C2.45 16.5938 2 16.1438 2 15.5938V13.5938C2 13.0437 1.55 12.5938 1 12.5938C0.45 12.5938 0 13.0437 0 13.5938L0 16.5938C0 17.6938 0.9 18.5938 2 18.5938L16 18.5937C17.1 18.5937 18 17.6938 18 16.5938L18 2.59375C18 1.49375 17.1 0.59375 16 0.59375Z" fill="#26B4B0"/>
</svg>
