<svg width="20" height="20" viewBox="0 0 20 20" fill="none" xmlns="http://www.w3.org/2000/svg">
<path d="M11.1719 0H10.5859V9.41406H20V8.82812C20 3.98156 16.0184 0 11.1719 0Z" fill="#26B4B0"/>
<path d="M3.05078 17.7784C4.59742 19.1328 6.61602 20 8.82875 20C13.6753 20 17.6178 16.0184 17.6178 11.1719V10.5859H10.2432L3.05078 17.7784Z" fill="#26B4B0"/>
<path d="M9.41422 2.38281H8.82828C6.91484 2.38281 5.14773 3.00422 3.70312 4.04629L9.41422 9.75738V2.38281Z" fill="#26B4B0"/>
<path d="M2.79594 4.7959C1.1025 6.39895 0 8.66086 0 11.1714C0 13.3841 0.867187 15.4027 2.2216 16.9494L8.58551 10.5855L2.79594 4.7959Z" fill="#26B4B0"/>
</svg>
