<svg width="28" height="28" viewBox="0 0 28 28" fill="none" xmlns="http://www.w3.org/2000/svg">
<path d="M14.6748 0.457031C13.8381 0.467404 13.0386 0.804399 12.4469 1.39609C11.8552 1.98779 11.5182 2.78731 11.5078 3.62403C11.5182 4.46075 11.8552 5.26028 12.4469 5.85197C13.0386 6.44366 13.8381 6.78066 14.6748 6.79103C15.5147 6.79103 16.3203 6.45737 16.9142 5.86344C17.5081 5.26951 17.8418 4.46397 17.8418 3.62403C17.8418 2.78409 17.5081 1.97855 16.9142 1.38462C16.3203 0.790696 15.5147 0.457031 14.6748 0.457031V0.457031Z" fill="#134773"/>
<path d="M18.1283 6.79102C17.694 7.27911 17.1616 7.67008 16.5659 7.93838C15.9702 8.20667 15.3246 8.34626 14.6713 8.34801C14.0103 8.34651 13.3569 8.20728 12.7527 7.9392C12.1486 7.67112 11.6069 7.28008 11.1623 6.79102C10.384 7.64212 9.9508 8.75271 9.94727 9.90601V10.685C9.94713 10.7873 9.96719 10.8887 10.0063 10.9833C10.0454 11.0779 10.1028 11.1638 10.1751 11.2361C10.2475 11.3085 10.3334 11.3659 10.428 11.405C10.5226 11.4441 10.6239 11.4641 10.7263 11.464H18.5653C18.6676 11.4641 18.769 11.4441 18.8635 11.405C18.9581 11.3659 19.044 11.3085 19.1164 11.2361C19.1888 11.1638 19.2461 11.0779 19.2852 10.9833C19.3243 10.8887 19.3444 10.7873 19.3443 10.685V9.90601C19.3405 8.75258 18.9069 7.64197 18.1283 6.79102Z" fill="#134773"/>
<path d="M8.12658 24.3571L4.15858 16.4012C3.97455 16.0322 3.65169 15.7513 3.26082 15.62C2.86994 15.4888 2.44298 15.518 2.07358 15.7011L1.03658 16.2151C0.944744 16.2607 0.862794 16.3238 0.795425 16.4011C0.728057 16.4783 0.676594 16.5681 0.643987 16.6653C0.61138 16.7625 0.598269 16.8651 0.605407 16.9674C0.612544 17.0696 0.639789 17.1694 0.68558 17.2611L5.35758 26.6071C5.44989 26.7915 5.61142 26.9318 5.80686 26.9973C6.00231 27.0629 6.21576 27.0485 6.40058 26.9572L7.42458 26.4501C7.60847 26.3592 7.77258 26.2328 7.90748 26.0783C8.04237 25.9237 8.1454 25.7441 8.21063 25.5496C8.27587 25.3551 8.30202 25.1496 8.2876 24.945C8.27317 24.7403 8.21845 24.5406 8.12658 24.3571V24.3571Z" fill="#134773"/>
<path d="M26.5437 13.3162C26.2361 13.0916 25.8567 12.9879 25.4776 13.0248C25.0985 13.0616 24.7462 13.2365 24.4877 13.5162L20.2307 18.7492C19.9152 19.0428 19.5086 19.2193 19.0787 19.2492H15.4497C15.3451 19.2529 15.2408 19.2356 15.1431 19.1981C15.0454 19.1607 14.9562 19.104 14.8809 19.0313C14.8056 18.9586 14.7457 18.8716 14.7048 18.7752C14.6638 18.6789 14.6428 18.5753 14.6428 18.4707C14.6428 18.366 14.6638 18.2625 14.7048 18.1661C14.7457 18.0698 14.8056 17.9827 14.8809 17.9101C14.9562 17.8374 15.0454 17.7807 15.1431 17.7432C15.2408 17.7058 15.3451 17.6884 15.4497 17.6922H18.5647C18.9777 17.6922 19.3739 17.5281 19.666 17.236C19.9581 16.9439 20.1222 16.5478 20.1222 16.1347C20.1222 15.7216 19.9581 15.3255 19.666 15.0334C19.3739 14.7413 18.9777 14.5772 18.5647 14.5772H14.4847C14.0967 14.5772 13.9027 14.3312 13.5967 14.0632C12.9441 13.4941 12.1646 13.0896 11.3235 12.8838C10.4825 12.678 9.60431 12.6767 8.76266 12.8802C7.88205 13.0824 7.06237 13.4917 6.37166 14.0742L6.34866 14.0552L5.22266 15.0462L9.64866 23.9222H18.5647C19.2901 23.9215 20.0055 23.7525 20.6547 23.4285C21.3038 23.1046 21.8689 22.6345 22.3057 22.0552L26.8737 15.5142C26.9966 15.3483 27.0857 15.1598 27.1357 14.9595C27.1857 14.7591 27.1956 14.5509 27.165 14.3467C27.1343 14.1425 27.0636 13.9463 26.957 13.7695C26.8504 13.5927 26.7099 13.4386 26.5437 13.3162V13.3162Z" fill="#134773"/>
</svg>
