<svg width="28" height="23" viewBox="0 0 28 23" fill="none" xmlns="http://www.w3.org/2000/svg">
<path d="M9.21132 1.83398C9.11849 1.83398 9.02947 1.87086 8.96384 1.9365C8.8982 2.00213 8.86133 2.09116 8.86133 2.18399C8.86133 2.27681 8.8982 2.36584 8.96384 2.43147C9.02947 2.49711 9.11849 2.53399 9.21132 2.53399C9.30414 2.53399 9.39316 2.49711 9.4588 2.43147C9.52444 2.36584 9.56133 2.27681 9.56133 2.18399C9.56133 2.09116 9.52444 2.00213 9.4588 1.9365C9.39316 1.87086 9.30414 1.83398 9.21132 1.83398Z" fill="#134773"/>
<path d="M26.2734 14.4688L26.2834 17.2028C26.6303 17.1785 26.9549 17.0233 27.1916 16.7686C27.4283 16.5139 27.5593 16.1788 27.558 15.8311C27.5567 15.4834 27.4233 15.1492 27.1848 14.8962C26.9462 14.6433 26.6204 14.4904 26.2734 14.4688V14.4688Z" fill="#134773"/>
<path d="M25.4093 17.6476L25.3963 14.0326L25.3863 11.2676L19.4473 13.6676L19.4643 18.2266L25.4213 20.5836L25.4102 17.6486L25.4093 17.6476Z" fill="#134773"/>
<path d="M5.68204 1.82227C5.58921 1.82227 5.50019 1.85914 5.43455 1.92478C5.36891 1.99042 5.33203 2.07944 5.33203 2.17226C5.33203 2.26509 5.36891 2.35411 5.43455 2.41975C5.50019 2.48539 5.58921 2.52227 5.68204 2.52227C5.77486 2.52227 5.86388 2.48539 5.92952 2.41975C5.99516 2.35411 6.03204 2.26509 6.03204 2.17226C6.03204 2.07944 5.99516 1.99042 5.92952 1.92478C5.86388 1.85914 5.77486 1.82227 5.68204 1.82227Z" fill="#134773"/>
<path d="M2.15469 1.80859C2.06186 1.80859 1.97284 1.84547 1.9072 1.91111C1.84156 1.97674 1.80469 2.06577 1.80469 2.15859C1.80469 2.25142 1.84156 2.34044 1.9072 2.40608C1.97284 2.47172 2.06186 2.50859 2.15469 2.50859V2.50859C2.24751 2.50859 2.33654 2.47172 2.40218 2.40608C2.46781 2.34044 2.50469 2.25142 2.50469 2.15859C2.50469 2.06577 2.46781 1.97674 2.40218 1.91111C2.33654 1.84547 2.24751 1.80859 2.15469 1.80859Z" fill="#134773"/>
<path d="M20.6622 5.12891H0.283203V15.7719C0.283733 16.3189 0.501254 16.8433 0.888027 17.2301C1.2748 17.6169 1.79922 17.8344 2.3462 17.8349H13.9362C13.8529 17.6251 13.8098 17.4016 13.8092 17.1759L13.8002 14.7539C13.799 14.5168 13.8447 14.2817 13.9346 14.0623C14.0246 13.8429 14.157 13.6434 14.3242 13.4753C14.4915 13.3072 14.6903 13.1738 14.9093 13.0828C15.1283 12.9918 15.3631 12.9449 15.6002 12.9449L18.9272 12.9319L20.6662 12.2319L20.6622 5.12891Z" fill="#134773"/>
<path d="M17.604 18.9668L15.748 18.9738L16.5301 21.7738C16.5834 21.9614 16.6961 22.1266 16.8514 22.2445C17.0067 22.3625 17.1961 22.4268 17.3911 22.4278V22.4278C17.5287 22.4271 17.6643 22.3947 17.7874 22.3331C17.9105 22.2715 18.0178 22.1824 18.1008 22.0725C18.1838 21.9627 18.2404 21.8352 18.2661 21.7C18.2918 21.5648 18.286 21.4254 18.2491 21.2928L17.604 18.9668Z" fill="#134773"/>
<path d="M15.5998 13.8224C15.354 13.8235 15.1187 13.922 14.9455 14.0964C14.7722 14.2707 14.6753 14.5067 14.6758 14.7524L14.6848 17.1745C14.6856 17.4198 14.7836 17.6548 14.9574 17.828C15.1311 18.0012 15.3665 18.0985 15.6118 18.0984V18.0984L17.9448 18.0905H18.5848L18.5688 13.8145L15.5998 13.8224Z" fill="#134773"/>
<path d="M20.6622 2.10787C20.6611 1.56124 20.4434 1.03733 20.0567 0.65099C19.67 0.26465 19.1458 0.0474034 18.5992 0.046875H2.3462C1.79957 0.0474034 1.27545 0.26465 0.888732 0.65099C0.502016 1.03733 0.284262 1.56124 0.283203 2.10787L0.283203 4.25488H20.6622V2.10787ZM2.1542 3.38287C1.83071 3.38102 1.52113 3.25108 1.29323 3.02149C1.06533 2.7919 0.937669 2.48137 0.938203 2.15787C0.938726 1.83507 1.06685 1.52556 1.29464 1.29684C1.52243 1.06811 1.8314 0.938722 2.1542 0.936875C2.47787 0.938462 2.78771 1.06829 3.01582 1.29791C3.24394 1.52752 3.37174 1.83821 3.3712 2.16187C3.37068 2.48485 3.24242 2.79451 3.01441 3.02326C2.78641 3.25201 2.47718 3.38129 2.1542 3.38287V3.38287ZM5.6832 3.39387C5.52218 3.39427 5.36266 3.36286 5.2138 3.30145C5.06494 3.24004 4.92967 3.14984 4.81576 3.03602C4.70185 2.92221 4.61154 2.78701 4.55001 2.63821C4.48848 2.4894 4.45694 2.3299 4.4572 2.16887C4.45733 2.0081 4.48916 1.84893 4.55087 1.70047C4.61258 1.552 4.70295 1.41717 4.81683 1.30367C4.9307 1.19017 5.06583 1.10023 5.21449 1.03901C5.36315 0.97779 5.52243 0.94648 5.6832 0.946875V0.946875C5.84415 0.946743 6.00353 0.978379 6.15223 1.03997C6.30092 1.10156 6.43599 1.19189 6.5497 1.30579C6.66342 1.41969 6.75353 1.55491 6.81488 1.7037C6.87622 1.85249 6.9076 2.01193 6.9072 2.17287C6.90667 2.49706 6.77745 2.80777 6.54793 3.03673C6.31842 3.26568 6.00739 3.39414 5.6832 3.39387V3.39387ZM9.2112 3.40487C8.88762 3.40302 8.57793 3.27311 8.34987 3.04355C8.12181 2.81399 7.99393 2.50346 7.9942 2.17987C7.99473 1.8569 8.12299 1.54724 8.35099 1.31849C8.579 1.08974 8.88823 0.960459 9.2112 0.958875C9.53487 0.960462 9.84471 1.09029 10.0728 1.31991C10.3009 1.54952 10.4287 1.86021 10.4282 2.18387C10.4277 2.50685 10.2994 2.81651 10.0714 3.04526C9.84341 3.27401 9.53418 3.40329 9.2112 3.40487V3.40487Z" fill="#134773"/>
</svg>
