<svg width="31" height="30" viewBox="0 0 31 30" fill="none" xmlns="http://www.w3.org/2000/svg">
<path d="M26.5412 17.9877C26.6053 18.0517 26.6561 18.1277 26.6908 18.2113C26.7255 18.295 26.7433 18.3846 26.7433 18.4752C26.7433 18.5657 26.7255 18.6554 26.6908 18.739C26.6561 18.8227 26.6053 18.8987 26.5412 18.9627L22.6802 22.8277C22.6162 22.8917 22.5402 22.9426 22.4566 22.9773C22.3729 23.0119 22.2833 23.0298 22.1927 23.0298C22.1022 23.0298 22.0125 23.0119 21.9289 22.9773C21.8452 22.9426 21.7692 22.8917 21.7052 22.8277L19.3562 20.4787C19.2269 20.3494 19.1543 20.174 19.1543 19.9912C19.1543 19.8083 19.2269 19.633 19.3562 19.5037C19.4855 19.3744 19.6609 19.3017 19.8437 19.3017C20.0266 19.3017 20.2019 19.3744 20.3312 19.5037L22.1892 21.3637L25.5672 17.9857C25.6312 17.9216 25.7072 17.8708 25.7909 17.8361C25.8745 17.8014 25.9642 17.7836 26.0547 17.7836C26.1453 17.7836 26.2349 17.8014 26.3186 17.8361C26.4022 17.8708 26.4782 17.9216 26.5422 17.9857L26.5412 17.9877ZM29.9022 20.4077C29.902 21.4942 29.6473 22.5656 29.1585 23.536C28.6697 24.5064 27.9604 25.3488 27.0875 25.9957C26.2145 26.6426 25.2022 27.0761 24.1316 27.2614C23.0609 27.4467 21.9618 27.3786 20.9222 27.0627C18.2019 28.4472 15.1984 29.184 12.1462 29.2157C11.7309 29.2157 11.3159 29.201 10.9012 29.1717C7.31632 28.8504 3.87003 27.6316 0.880225 25.6277C0.792197 25.5715 0.718097 25.496 0.663526 25.407C0.608955 25.3179 0.575341 25.2176 0.565225 25.1137C0.256382 22.3547 0.837304 19.5692 2.22322 17.1637C3.49079 15.0571 5.45737 13.4621 7.78022 12.6567C6.85642 11.5634 6.20525 10.2666 5.88022 8.87267C5.50684 7.34252 5.60799 5.73496 6.17022 4.26368C6.65268 3.08258 7.48776 2.07908 8.56154 1.39007C9.63532 0.701065 10.8955 0.360093 12.1702 0.413675H12.1902C13.4649 0.360093 14.7251 0.701065 15.7989 1.39007C16.8727 2.07908 17.7078 3.08258 18.1902 4.26368C18.7526 5.73454 18.8541 7.34174 18.4812 8.87168C18.1562 10.2656 17.505 11.5624 16.5812 12.6557C17.6738 13.0407 18.6972 13.5992 19.6122 14.3097C20.6714 13.728 21.8639 13.4324 23.0721 13.452C24.2803 13.4716 25.4626 13.8058 26.5023 14.4215C27.542 15.0373 28.4033 15.9134 29.0013 16.9635C29.5992 18.0135 29.9132 19.2013 29.9122 20.4097L29.9022 20.4077ZM9.32323 12.3007C9.68157 12.7163 10.1184 13.0571 10.6086 13.3037C11.0988 13.5503 11.6329 13.6978 12.1802 13.7377C12.7267 13.697 13.2599 13.5491 13.7492 13.3023C14.2386 13.0556 14.6746 12.7149 15.0322 12.2997C16.0291 11.3556 16.7353 10.1461 17.0676 8.81394C17.3998 7.48173 17.3441 6.08231 16.9072 4.78067C16.5282 3.8527 15.869 3.0661 15.0217 2.53049C14.1744 1.99489 13.1811 1.73697 12.1802 1.79268C11.1785 1.7359 10.1841 1.99332 9.33579 2.52899C8.48746 3.06466 7.82757 3.85186 7.44822 4.78067C7.0111 6.08245 6.95536 7.48207 7.28758 8.81448C7.6198 10.1469 8.32611 11.3565 9.32323 12.3007V12.3007ZM19.2682 26.3087C18.3426 25.7324 17.5656 24.9463 17 24.0141C16.4344 23.0819 16.0961 22.0297 16.0125 20.9426C15.9289 19.8554 16.1023 18.7639 16.5186 17.7561C16.935 16.7484 17.5826 15.8528 18.4092 15.1417C17.5176 14.518 16.5275 14.0488 15.4802 13.7537C14.5796 14.5896 13.4082 15.0735 12.1802 15.1167C10.9487 15.0758 9.77338 14.5919 8.87022 13.7537C4.21623 15.0977 1.52022 19.3157 1.91222 24.6477C7.74222 28.2737 13.4342 28.8207 19.2682 26.3077V26.3087ZM28.5242 20.4087C28.5242 19.3056 28.1971 18.2274 27.5843 17.3103C26.9715 16.3931 26.1005 15.6783 25.0814 15.2562C24.0624 14.8341 22.941 14.7236 21.8592 14.9388C20.7774 15.154 19.7836 15.6852 19.0037 16.4651C18.2237 17.2451 17.6926 18.2388 17.4774 19.3207C17.2622 20.4025 17.3726 21.5238 17.7947 22.5429C18.2169 23.562 18.9317 24.433 19.8488 25.0458C20.7659 25.6586 21.8442 25.9857 22.9472 25.9857C24.4259 25.9838 25.8435 25.3955 26.8891 24.3498C27.9346 23.3041 28.5226 21.8864 28.5242 20.4077V20.4087Z" fill="white" stroke="white" stroke-width="0.2"/>
</svg>
