<svg width="21" height="21" viewBox="0 0 21 21" fill="none" xmlns="http://www.w3.org/2000/svg">
<g clip-path="url(#clip0_0_33)">
<path d="M10.4992 10.9048C13.4992 10.9048 15.9516 8.45241 15.9516 5.45239C15.9516 2.45237 13.4992 0 10.4992 0C7.4992 0 5.04688 2.45237 5.04688 5.45239C5.04688 8.45241 7.49925 10.9048 10.4992 10.9048Z" fill="#26B4B0"/>
<path d="M19.8589 15.262C19.7161 14.9049 19.5256 14.5715 19.3113 14.262C18.2161 12.6429 16.5256 11.5715 14.6209 11.3096C14.3828 11.2858 14.1209 11.3334 13.9304 11.4763C12.9304 12.2144 11.7399 12.5953 10.5018 12.5953C9.26369 12.5953 8.07323 12.2144 7.07322 11.4763C6.88273 11.3334 6.62082 11.262 6.38275 11.3096C4.47798 11.5715 2.76371 12.6429 1.69229 14.262C1.47801 14.5715 1.28751 14.9287 1.14469 15.262C1.07327 15.4049 1.09706 15.5716 1.16848 15.7144C1.35897 16.0477 1.59704 16.3811 1.81133 16.6668C2.14465 17.1192 2.5018 17.5239 2.90658 17.9049C3.2399 18.2382 3.62085 18.5477 4.00184 18.8573C5.88277 20.2621 8.14469 21.0001 10.478 21.0001C12.8114 21.0001 15.0733 20.262 16.9542 18.8573C17.3352 18.5716 17.7161 18.2382 18.0495 17.9049C18.4304 17.5239 18.8114 17.1192 19.1447 16.6668C19.3828 16.3573 19.5971 16.0477 19.7876 15.7144C19.9066 15.5716 19.9303 15.4048 19.8589 15.262Z" fill="#26B4B0"/>
</g>
<defs>
<clipPath id="clip0_0_33">
<rect width="21" height="21" fill="white"/>
</clipPath>
</defs>
</svg>
