<svg width="26" height="26" viewBox="0 0 26 26" fill="none" xmlns="http://www.w3.org/2000/svg">
<path d="M25.5732 12.8364C25.5745 10.7333 25.0512 8.66311 24.0508 6.81323C23.0503 4.96335 21.6042 3.39221 19.8435 2.24207C18.0828 1.09193 16.063 0.399113 13.967 0.22634C11.871 0.0535662 9.76506 0.406297 7.83977 1.25259C5.91447 2.09889 4.23066 3.41203 2.94079 5.07312C1.65091 6.7342 0.79571 8.69078 0.452611 10.7657C0.109513 12.8406 0.289354 14.9683 0.975851 16.9562C1.66235 18.9441 2.83382 20.7294 4.3842 22.1504L4.3722 22.1614L4.7822 22.5074C4.8092 22.5304 4.8382 22.5484 4.8642 22.5704C5.0822 22.7514 5.3082 22.9224 5.5382 23.0884C5.6122 23.1424 5.6872 23.1964 5.7632 23.2484C6.00854 23.4177 6.2602 23.5784 6.5182 23.7304L6.6872 23.8304C6.9692 23.9904 7.2572 24.1424 7.5512 24.2814L7.6162 24.3104C8.58986 24.7627 9.61761 25.0881 10.6742 25.2784L10.7592 25.2934C11.0922 25.3504 11.4282 25.3934 11.7692 25.4274L11.8942 25.4374C12.2332 25.4654 12.5762 25.4834 12.9242 25.4834C13.2722 25.4834 13.6082 25.4654 13.9462 25.4384L14.0742 25.4284C14.4122 25.3977 14.7455 25.3537 15.0742 25.2964L15.1602 25.2804C16.2011 25.0939 17.2141 24.7764 18.1752 24.3354L18.2842 24.2854C18.5682 24.1521 18.8459 24.0087 19.1172 23.8554L19.3172 23.7394C19.5642 23.5934 19.8082 23.4394 20.0442 23.2794C20.1292 23.2214 20.2122 23.1604 20.2962 23.0994C20.4962 22.9544 20.6962 22.7994 20.8892 22.6474C20.9322 22.6134 20.9782 22.5834 21.0202 22.5474L21.4442 22.1914L21.4322 22.1804C22.7363 20.9981 23.7784 19.556 24.4916 17.9467C25.2048 16.3374 25.5732 14.5966 25.5732 12.8364ZM1.2042 12.8364C1.2023 10.8778 1.6911 8.94984 2.62596 7.22869C3.56081 5.50755 4.91195 4.04802 6.55598 2.98338C8.20002 1.91875 10.0846 1.28292 12.0375 1.13397C13.9905 0.985021 15.9497 1.32769 17.7362 2.13069C19.5226 2.93368 21.0795 4.17142 22.2646 5.73089C23.4496 7.29035 24.2251 9.12183 24.5203 11.0581C24.8155 12.9944 24.6209 14.9738 23.9542 16.8155C23.2876 18.6572 22.1703 20.3026 20.7042 21.6014C20.5731 21.5096 20.4358 21.4271 20.2932 21.3544L16.4002 19.4084C16.2297 19.3238 16.0864 19.1932 15.9863 19.0313C15.8863 18.8694 15.8336 18.6827 15.8342 18.4924V17.1314C15.9242 17.0204 16.0192 16.8944 16.1182 16.7554C16.6276 16.0307 17.0316 15.2375 17.3182 14.3994C17.6059 14.2658 17.8495 14.053 18.0206 13.7859C18.1917 13.5189 18.2831 13.2086 18.2842 12.8914V11.2614C18.2828 10.8613 18.138 10.4749 17.8762 10.1724V8.0234C17.9566 7.04421 17.6452 6.07313 17.0102 5.3234C16.4761 4.8006 15.8351 4.39966 15.1314 4.14815C14.4276 3.89663 13.6777 3.80052 12.9332 3.8664C12.1877 3.80023 11.4367 3.89649 10.732 4.14854C10.0273 4.40059 9.38563 4.80245 8.8512 5.3264C8.21633 6.07619 7.90488 7.04723 7.9852 8.0264V10.1684C7.72351 10.471 7.57878 10.8573 7.5772 11.2574V12.8914C7.57673 13.1403 7.63178 13.3861 7.73834 13.611C7.84491 13.8359 8.0003 14.0342 8.1932 14.1914C8.47623 15.2522 8.95884 16.2493 9.6152 17.1294V18.4604C9.61514 18.6445 9.56553 18.8252 9.47157 18.9836C9.37762 19.142 9.24278 19.2721 9.0812 19.3604L5.4462 21.3364C5.32648 21.4022 5.21092 21.4754 5.1002 21.5554C3.87417 20.4578 2.89346 19.1139 2.22213 17.6115C1.55079 16.1091 1.20393 14.482 1.2042 12.8364Z" fill="white"/>
</svg>
