<svg width="24" height="30" viewBox="0 0 24 30" fill="none" xmlns="http://www.w3.org/2000/svg">
<path d="M16.3692 13.0278C17.4819 12.1252 18.2876 10.9 18.6756 9.5207C19.0636 8.14144 19.0148 6.67586 18.536 5.32546C18.0571 3.97506 17.1716 2.80617 16.0014 1.9795C14.8311 1.15283 13.4335 0.708984 12.0007 0.708984C10.5679 0.708984 9.17031 1.15283 8.00005 1.9795C6.82979 2.80617 5.94435 3.97506 5.46547 5.32546C4.9866 6.67586 4.9378 8.14144 5.3258 9.5207C5.7138 10.9 6.51953 12.1252 7.63222 13.0278C3.35922 13.7368 0.0742188 17.7698 0.0742188 22.6248V28.2828C0.0742188 28.5035 0.161876 28.7151 0.317906 28.8711C0.473936 29.0272 0.685559 29.1148 0.906219 29.1148H23.0942C23.3149 29.1148 23.5265 29.0272 23.6825 28.8711C23.8386 28.7151 23.9262 28.5035 23.9262 28.2828V22.6248C23.9262 17.7698 20.6412 13.7368 16.3692 13.0248V13.0278ZM12.8322 14.5818V16.2458H11.1682V14.5818H12.8322ZM11.0182 17.9148H12.9822L13.8612 22.3098L12.0002 23.8728L10.1392 22.3048L11.0182 17.9148ZM6.73122 7.64783C6.73122 6.60552 7.0403 5.58662 7.61937 4.71997C8.19845 3.85333 9.02151 3.17786 9.98448 2.77899C10.9474 2.38011 12.0071 2.27575 13.0293 2.47909C14.0516 2.68244 14.9906 3.18435 15.7277 3.92138C16.4647 4.6584 16.9666 5.59742 17.17 6.6197C17.3733 7.64198 17.2689 8.70161 16.8701 9.66457C16.4712 10.6275 15.7957 11.4506 14.9291 12.0297C14.0624 12.6088 13.0435 12.9178 12.0012 12.9178C10.604 12.9162 9.26449 12.3605 8.27652 11.3725C7.28855 10.3846 6.73281 9.04503 6.73122 7.64783V7.64783ZM22.2622 27.4478H1.73822V22.6248C1.73822 18.1898 4.98422 14.5818 8.97422 14.5818H9.50422V16.9958L8.41122 22.4618C8.38204 22.6081 8.39272 22.7596 8.44216 22.9003C8.4916 23.0411 8.57796 23.1659 8.69222 23.2618L11.4652 25.5918C11.6151 25.7177 11.8045 25.7866 12.0002 25.7866C12.1959 25.7866 12.3853 25.7177 12.5352 25.5918L15.3082 23.2618C15.4225 23.1659 15.5088 23.0411 15.5583 22.9003C15.6077 22.7596 15.6184 22.6081 15.5892 22.4618L14.4962 16.9958V14.5818H15.0262C19.0162 14.5818 22.2622 18.1898 22.2622 22.6248V27.4478Z" fill="white"/>
</svg>
