<svg width="22" height="22" viewBox="0 0 22 22" fill="none" xmlns="http://www.w3.org/2000/svg">
<path d="M17.4221 0.388672H4.23312C3.13165 0.38973 2.07557 0.827691 1.29662 1.60646C0.517664 2.38523 0.0794487 3.4412 0.078125 4.54267V17.7327C0.079184 18.8343 0.517282 19.8905 1.29627 20.6695C2.07525 21.4485 3.13148 21.8866 4.23312 21.8877H17.4231C18.5244 21.8863 19.5802 21.4483 20.359 20.6695C21.1377 19.8908 21.5758 18.835 21.5771 17.7337V4.54267C21.5758 3.4412 21.1376 2.38523 20.3586 1.60646C19.5797 0.827691 18.5236 0.38973 17.4221 0.388672ZM18.6141 2.86567H19.0891V6.50967L15.4571 6.52167L15.4441 2.87767L18.6141 2.86567ZM7.75913 8.93167C8.28637 8.20229 9.05674 7.68515 9.93147 7.4734C10.8062 7.26165 11.7278 7.36921 12.5303 7.77671C13.3327 8.1842 13.9633 8.86485 14.3084 9.69605C14.6535 10.5272 14.6905 11.4544 14.4126 12.3104C14.1348 13.1664 13.5604 13.8951 12.7929 14.3652C12.0255 14.8353 11.1154 15.0159 10.2265 14.8744C9.33774 14.733 8.52864 14.2788 7.945 13.5937C7.36136 12.9087 7.04153 12.0377 7.04313 11.1377C7.04494 10.3455 7.29538 9.5739 7.75913 8.93167ZM19.4821 17.7317C19.4816 18.2779 19.2644 18.8015 18.8782 19.1877C18.492 19.5739 17.9683 19.7911 17.4221 19.7917H4.23312C3.68694 19.7911 3.16328 19.5739 2.77707 19.1877C2.39086 18.8015 2.17365 18.2779 2.17313 17.7317V8.93167H5.38212C5.01869 9.82432 4.88029 10.7926 4.97911 11.7514C5.07793 12.7101 5.41094 13.6298 5.94882 14.4295C6.4867 15.2293 7.21295 15.8845 8.06363 16.3376C8.91431 16.7906 9.86333 17.0276 10.8271 17.0276C11.7909 17.0276 12.7399 16.7906 13.5906 16.3376C14.4413 15.8845 15.1676 15.2293 15.7054 14.4295C16.2433 13.6298 16.5763 12.7101 16.6751 11.7514C16.774 10.7926 16.6356 9.82432 16.2721 8.93167H19.4821V17.7317Z" fill="white"/>
</svg>
