<svg width="23" height="23" viewBox="0 0 23 23" fill="none" xmlns="http://www.w3.org/2000/svg">
<path d="M5.59919 22.4683H0.992188V7.1123H5.59919V22.4683ZM22.4912 22.4683H17.8842V14.2683C17.8842 12.1303 17.1222 11.0683 15.6132 11.0683C15.0748 11.0403 14.544 11.205 14.1159 11.5328C13.6878 11.8607 13.3905 12.3302 13.2772 12.8573V22.4733H8.67019C8.67019 22.4733 8.73119 8.6533 8.67019 7.1173H12.3062L12.5872 10.1883H12.6872C13.1425 9.39394 13.8022 8.73599 14.5977 8.28281C15.3933 7.82964 16.2957 7.59777 17.2112 7.6113C17.9221 7.56599 18.6342 7.68053 19.2951 7.94651C19.9559 8.21248 20.5488 8.62314 21.0302 9.1483C22.0887 10.4569 22.6112 12.1184 22.4922 13.7973L22.4912 22.4683Z" fill="white"/>
<path d="M3.29406 5.57573C4.6085 5.57573 5.67406 4.54464 5.67406 3.27273C5.67406 2.00081 4.6085 0.969727 3.29406 0.969727C1.97962 0.969727 0.914062 2.00081 0.914062 3.27273C0.914062 4.54464 1.97962 5.57573 3.29406 5.57573Z" fill="white"/>
</svg>
