<svg width="28" height="22" viewBox="0 0 28 22" fill="none" xmlns="http://www.w3.org/2000/svg">
<path d="M27.8345 2.93014C26.7972 3.3693 25.7017 3.65619 24.5823 3.78207C25.7508 3.11966 26.6364 2.05257 27.0723 0.782071C25.9527 1.41519 24.7365 1.85925 23.4724 2.09616C22.9324 1.55028 22.289 1.11763 21.5796 0.823819C20.8702 0.530005 20.1091 0.38088 19.3413 0.385098C17.8719 0.35318 16.45 0.905917 15.3879 1.92184C14.3259 2.93777 13.7108 4.33373 13.6775 5.80307C13.6773 6.21872 13.7263 6.63294 13.8235 7.03708C11.5949 6.94108 9.40958 6.38935 7.40259 5.41586C5.39559 4.44237 3.60934 3.06789 2.1543 1.37716C1.65249 2.19713 1.38721 3.13983 1.38745 4.10116C1.39366 5.00419 1.62776 5.891 2.06812 6.67941C2.50847 7.46782 3.14087 8.13218 3.90649 8.61105C3.01084 8.58454 2.13308 8.35259 1.34131 7.93307V8.00216C1.36277 9.27754 1.82803 10.5055 2.65698 11.4749C3.48593 12.4444 4.62674 13.0947 5.8833 13.3141C5.39606 13.4403 4.89469 13.5036 4.39136 13.5022C4.03428 13.5023 3.67795 13.4707 3.32642 13.408C3.71375 14.5034 4.42948 15.4526 5.37622 16.1261C6.32296 16.7995 7.45464 17.1645 8.61646 17.1711C6.58528 18.6857 4.11716 19.4995 1.5835 19.4901C1.13278 19.4905 0.682274 19.4655 0.234375 19.4151C2.84613 21.0129 5.84966 21.8554 8.91138 21.8491C10.9857 21.9111 13.0517 21.5598 14.989 20.8156C16.9263 20.0715 18.6962 18.9493 20.1956 17.5145C21.6949 16.0797 22.8937 14.361 23.7224 12.4583C24.5511 10.5557 24.9931 8.50717 25.0225 6.4321C25.0225 6.1971 25.0154 5.96314 25.0054 5.73214C26.1072 4.97343 27.0652 4.02463 27.8345 2.93014Z" fill="white"/>
</svg>
