<svg width="33" height="23" viewBox="0 0 33 23" fill="none" xmlns="http://www.w3.org/2000/svg">
<path d="M32.073 7.05544C31.973 6.12044 31.888 5.06844 31.697 4.15544C31.5059 3.33699 31.0525 2.60342 30.406 2.06644C29.219 1.07544 27.906 1.10044 26.368 1.05144C25.824 1.03444 25.291 0.980432 24.747 0.964432C22.569 0.899432 20.423 0.82543 18.242 0.81543H12.898C12.46 0.82343 12.025 0.85044 11.589 0.85144C10.489 0.85144 9.437 0.896436 8.336 0.943436C7.798 0.966436 7.24899 0.949439 6.71399 0.993439C6.17899 1.03744 5.63599 1.05943 5.08699 1.07443C4.1318 1.02885 3.18285 1.25086 2.347 1.71544C1.64895 2.14185 1.09985 2.77371 0.774996 3.52443C0.160996 4.93543 -0.0760017 10.8784 0.0209983 12.8114C0.0587551 14.8554 0.24356 16.894 0.573992 18.9114C0.759128 19.7629 1.22528 20.5274 1.89748 21.0819C2.56968 21.6363 3.40885 21.9486 4.28 21.9684C7.718 22.2164 10.639 22.2114 14.047 22.3074H14.173H17.773C18.204 22.2994 18.631 22.2744 19.063 22.2704C19.633 22.2644 20.2 22.2804 20.771 22.2704C22.381 22.2404 23.995 22.1544 25.598 22.0804C26.148 22.0544 26.684 22.0534 27.235 22.0094C28.1876 22.0536 29.1331 21.8269 29.962 21.3554C31.714 20.2554 31.835 18.6354 32.011 16.6774C32.106 15.6244 32.193 14.5944 32.252 13.5374C32.3627 11.3754 32.3028 9.20805 32.073 7.05544ZM9.468 6.19844L7.177 6.22043V18.2204L5.18399 18.2554C5.09699 17.9464 5.149 13.0034 5.149 12.2404V6.22543L2.96599 6.20244C2.94099 6.12944 2.942 6.16543 2.942 6.08344V4.30344L9.468 4.32544V6.20343V6.19844ZM15.184 18.2154H13.334V17.1154C13.227 17.1454 12.89 17.6044 12.762 17.6814L12.334 17.9984C12.1243 18.1192 11.9049 18.2223 11.678 18.3064C11.4108 18.3969 11.1242 18.4142 10.848 18.3564C10.6024 18.3244 10.3753 18.2086 10.2052 18.0286C10.035 17.8486 9.93218 17.6155 9.914 17.3684C9.81281 16.7674 9.77926 16.1569 9.814 15.5484V7.89543H11.629V15.7624C11.629 15.8624 11.639 15.9404 11.645 16.0294C11.666 16.3804 11.702 16.9034 12.407 16.6814C12.607 16.6174 13.307 16.0394 13.34 15.8054V7.89644H15.19L15.184 18.2154ZM22.337 15.5814L22.255 16.7454C22.2171 17.0854 22.1095 17.4139 21.939 17.7104C21.7946 17.9087 21.6082 18.0725 21.3931 18.1902C21.1779 18.3079 20.9394 18.3765 20.6946 18.3911C20.4498 18.4057 20.2048 18.366 19.9772 18.2748C19.7495 18.1835 19.5449 18.0431 19.378 17.8634L18.708 17.2544V18.2154L16.857 18.2504C16.947 17.9414 16.893 12.1144 16.893 11.2744C16.893 10.8274 16.866 4.54843 16.893 4.29843H18.708V8.85443C18.908 8.78643 19.308 8.09543 20.162 7.81743C20.4843 7.69939 20.8373 7.69547 21.1622 7.8063C21.487 7.91714 21.764 8.13602 21.947 8.42644C22.2013 8.89575 22.324 9.4251 22.302 9.95844C22.302 10.1784 22.34 10.3364 22.338 10.5584V15.5774L22.337 15.5814ZM26.153 16.5694C26.428 16.7994 27.599 16.9954 27.602 15.5804L27.639 14.6914H29.489C29.5157 15.294 29.4758 15.8977 29.37 16.4914C29.1695 17.091 28.771 17.6046 28.2399 17.9476C27.7089 18.2906 27.0769 18.4428 26.4479 18.379C25.8189 18.3153 25.2303 18.0394 24.7789 17.5968C24.3275 17.1541 24.0401 16.5711 23.964 15.9434C23.8812 15.3271 23.8478 14.7051 23.864 14.0834V12.1254C23.864 10.5404 23.817 8.66943 25.533 7.95743C25.8876 7.79143 26.2738 7.70389 26.6653 7.70078C27.0569 7.69766 27.4445 7.77903 27.8017 7.93936C28.1589 8.09969 28.4773 8.33519 28.7352 8.62979C28.993 8.92439 29.1843 9.27117 29.296 9.64644C29.4985 10.8657 29.5552 12.1048 29.465 13.3374C29.265 13.4374 26.204 13.3714 25.715 13.3714V15.1864C25.6725 15.4349 25.6899 15.6899 25.7657 15.9302C25.8415 16.1706 25.9736 16.3894 26.151 16.5684L26.153 16.5694Z" fill="white"/>
<path d="M19.3882 9.42323C18.4882 9.68923 18.7122 10.0632 18.7122 11.0232V15.5792C18.7122 15.7642 18.7032 15.9702 18.7122 16.1512C18.7242 16.5032 19.4852 16.7912 19.8832 16.7112C20.5592 16.5762 20.5302 15.5952 20.5302 15.0802V12.8042C20.5302 12.0642 20.5612 11.2562 20.5302 10.5252C20.5022 9.84922 20.1662 9.19423 19.3902 9.42523L19.3882 9.42323Z" fill="white"/>
<path d="M25.744 11.8527H27.614C27.649 11.7617 27.814 10.1257 27.33 9.62569C27.2503 9.53438 27.1489 9.46456 27.0351 9.42263C26.9214 9.38069 26.799 9.36799 26.679 9.38568C25.771 9.38568 25.719 10.2857 25.719 10.9857C25.6914 11.2746 25.6998 11.5658 25.744 11.8527Z" fill="white"/>
</svg>
